{"glyphs":{"0":{"ha":685,"x_min":81,"x_max":604,"o":"m 342 -15 q 139 72 197 -15 q 81 317 81 158 l 81 808 q 141 1051 81 965 q 342 1138 201 1138 q 544 1051 483 1138 q 604 808 604 965 l 604 317 q 546 71 604 157 q 342 -15 488 -15 m 342 42 q 485 110 443 42 q 528 304 528 179 l 528 819 q 485 1013 528 944 q 342 1081 443 1081 q 199 1012 242 1081 q 156 819 156 943 l 156 304 q 199 111 156 181 q 342 42 242 42 z "},"1":{"ha":560,"x_min":128,"x_max":364,"o":"m 289 1024 q 216 967 267 992 q 128 931 165 942 l 128 994 q 218 1042 168 1006 q 300 1125 268 1078 l 364 1125 l 364 0 l 289 0 l 289 1024 z "},"2":{"ha":679,"x_min":75,"x_max":594,"o":"m 75 56 l 388 531 q 462 648 438 606 q 503 745 486 690 q 521 865 521 800 q 476 1019 521 964 q 350 1075 432 1075 q 197 1010 239 1075 q 153 824 154 946 l 153 806 l 81 806 l 81 828 q 144 1062 81 986 q 347 1138 208 1138 q 531 1063 468 1138 q 594 854 594 989 q 559 689 594 765 q 454 507 524 613 l 160 63 l 572 63 l 572 0 l 75 0 l 75 56 z "},"3":{"ha":674,"x_min":94,"x_max":592,"o":"m 331 -15 q 151 54 208 -15 q 94 250 94 124 l 94 271 l 164 271 l 164 249 q 205 96 165 147 q 331 44 244 44 q 466 101 417 44 q 515 299 515 158 q 335 556 515 554 l 303 556 l 303 621 l 335 621 q 474 678 432 621 q 515 861 515 735 q 347 1078 515 1078 q 210 1031 254 1078 q 164 874 165 983 l 164 857 l 94 857 l 94 875 q 153 1069 94 1000 q 346 1138 213 1138 q 531 1061 469 1138 q 592 861 592 985 q 548 669 592 739 q 432 586 504 600 q 544 501 496 571 q 592 300 592 432 q 528 69 592 153 q 331 -15 465 -15 z "},"4":{"ha":685,"x_min":78,"x_max":629,"o":"m 425 346 l 78 346 l 78 417 l 413 1125 l 499 1125 l 499 414 l 629 414 l 629 346 l 499 346 l 499 0 l 425 0 l 425 346 m 425 414 l 425 1017 l 156 414 l 425 414 z "},"5":{"ha":678,"x_min":113,"x_max":599,"o":"m 349 -12 q 169 58 225 -12 q 113 275 113 129 l 185 275 q 224 101 185 156 q 353 46 263 46 q 456 77 418 46 q 510 173 494 108 q 526 344 526 238 q 508 527 526 461 q 452 620 489 593 q 356 647 415 647 q 197 553 258 647 l 138 553 l 138 1125 l 546 1125 l 544 1061 l 200 1061 l 197 624 q 267 683 222 660 q 375 706 313 706 q 544 617 490 706 q 599 351 599 529 q 538 76 599 164 q 349 -12 478 -12 z "},"6":{"ha":683,"x_min":101,"x_max":610,"o":"m 351 -15 q 161 69 221 -15 q 101 328 101 154 l 101 818 q 350 1138 101 1138 q 531 1076 474 1138 q 590 885 589 1014 l 590 858 l 519 858 q 481 1028 519 979 q 356 1076 443 1076 q 224 1022 272 1076 q 175 833 175 967 l 175 596 q 263 638 211 619 q 367 656 314 656 q 512 624 460 656 q 587 518 564 592 q 610 314 610 444 q 549 68 610 151 q 351 -15 488 -15 m 351 47 q 453 69 414 47 q 514 148 493 92 q 535 304 535 204 q 522 480 535 419 q 469 568 508 540 q 351 596 431 596 q 256 577 307 596 q 175 539 204 558 l 175 329 q 194 159 175 221 q 252 72 214 97 q 351 47 290 47 z "},"7":{"ha":642,"x_min":106,"x_max":546,"o":"m 469 1064 l 106 1064 l 106 1125 l 546 1125 l 546 1088 l 313 0 l 240 0 l 469 1064 z "},"8":{"ha":679,"x_min":83,"x_max":596,"o":"m 340 -15 q 83 293 83 -15 q 110 456 83 396 q 172 541 136 515 q 258 589 207 567 q 136 679 181 611 q 92 860 92 747 q 150 1063 92 988 q 340 1138 208 1138 q 528 1061 471 1138 q 586 856 586 985 q 542 678 586 744 q 421 589 499 613 q 508 541 472 567 q 569 456 543 515 q 596 293 596 396 q 340 -15 596 -15 m 340 621 q 474 687 433 626 q 514 857 514 747 q 472 1022 514 969 q 340 1075 429 1075 q 208 1022 251 1075 q 165 857 165 969 q 206 687 165 747 q 340 621 246 626 m 340 44 q 475 103 428 44 q 522 294 522 161 q 479 480 522 414 q 340 557 436 546 q 199 480 242 546 q 156 294 156 414 q 203 103 156 161 q 340 44 251 44 z "},"9":{"ha":683,"x_min":85,"x_max":593,"o":"m 350 -15 q 165 47 225 -15 q 106 239 106 110 l 106 264 l 176 264 q 193 133 176 181 q 247 66 210 86 q 351 46 285 46 q 477 99 435 46 q 519 289 519 153 l 519 526 q 443 485 492 503 q 328 467 394 467 q 183 499 235 467 q 108 604 131 531 q 85 810 85 678 q 147 1054 85 971 q 346 1138 210 1138 q 534 1053 475 1138 q 593 794 593 968 l 593 304 q 535 67 593 149 q 350 -15 478 -15 m 344 526 q 447 544 403 526 q 519 583 492 561 l 519 793 q 501 963 519 901 q 444 1050 482 1025 q 346 1075 406 1075 q 207 1017 253 1075 q 161 818 161 958 q 174 642 161 703 q 226 554 188 582 q 344 526 265 526 z "},"\u0000":{"ha":0,"x_min":0,"x_max":0,"o":""},"\r":{"ha":263,"x_min":0,"x_max":0,"o":""}," ":{"ha":263,"x_min":0,"x_max":0,"o":""},"A":{"ha":650,"x_min":44,"x_max":606,"o":"m 281 1125 l 368 1125 l 606 0 l 529 0 l 471 311 l 179 311 l 119 0 l 44 0 l 281 1125 m 461 367 l 325 1033 l 190 367 l 461 367 z "},"Á":{"ha":650,"x_min":44,"x_max":606,"o":"m 281 1125 l 368 1125 l 606 0 l 529 0 l 471 311 l 179 311 l 119 0 l 44 0 l 281 1125 m 461 367 l 325 1033 l 190 367 l 461 367 m 396 1461 l 471 1461 l 346 1192 l 307 1192 l 396 1461 z "},"Ă":{"ha":650,"x_min":44,"x_max":606,"o":"m 281 1125 l 368 1125 l 606 0 l 529 0 l 471 311 l 179 311 l 119 0 l 44 0 l 281 1125 m 461 367 l 325 1033 l 190 367 l 461 367 m 324 1210 q 210 1248 251 1210 q 167 1364 169 1286 l 218 1364 q 324 1257 219 1257 q 432 1364 425 1257 l 483 1364 q 438 1249 481 1288 q 324 1210 396 1210 z "},"Ắ":{"ha":650,"x_min":44,"x_max":606,"o":"m 281 1125 l 368 1125 l 606 0 l 529 0 l 471 311 l 179 311 l 119 0 l 44 0 l 281 1125 m 461 367 l 325 1033 l 190 367 l 461 367 m 367 1575 l 442 1575 l 315 1413 l 276 1413 l 367 1575 m 324 1210 q 210 1248 251 1210 q 167 1364 169 1286 l 218 1364 q 324 1257 219 1257 q 432 1364 425 1257 l 483 1364 q 438 1249 481 1288 q 324 1210 396 1210 z "},"Ặ":{"ha":650,"x_min":44,"x_max":606,"o":"m 281 1125 l 368 1125 l 606 0 l 529 0 l 471 311 l 179 311 l 119 0 l 44 0 l 281 1125 m 461 367 l 325 1033 l 190 367 l 461 367 m 283 -83 l 367 -83 l 367 -187 l 283 -187 l 283 -83 m 324 1210 q 210 1248 251 1210 q 167 1364 169 1286 l 218 1364 q 324 1257 219 1257 q 432 1364 425 1257 l 483 1364 q 438 1249 481 1288 q 324 1210 396 1210 z "},"Ằ":{"ha":650,"x_min":44,"x_max":606,"o":"m 281 1125 l 368 1125 l 606 0 l 529 0 l 471 311 l 179 311 l 119 0 l 44 0 l 281 1125 m 461 367 l 325 1033 l 190 367 l 461 367 m 217 1575 l 292 1575 l 382 1413 l 343 1413 l 217 1575 m 324 1210 q 210 1248 251 1210 q 167 1364 169 1286 l 218 1364 q 324 1257 219 1257 q 432 1364 425 1257 l 483 1364 q 438 1249 481 1288 q 324 1210 396 1210 z "},"Ẳ":{"ha":650,"x_min":44,"x_max":606,"o":"m 281 1125 l 368 1125 l 606 0 l 529 0 l 471 311 l 179 311 l 119 0 l 44 0 l 281 1125 m 461 367 l 325 1033 l 190 367 l 461 367 m 300 1385 q 349 1420 333 1403 q 364 1460 364 1438 q 304 1507 364 1507 q 242 1497 272 1507 l 242 1535 q 318 1547 282 1547 q 394 1526 367 1547 q 421 1464 421 1504 q 397 1401 421 1428 q 331 1353 372 1374 l 300 1385 m 324 1210 q 210 1248 251 1210 q 167 1364 169 1286 l 218 1364 q 324 1257 219 1257 q 432 1364 425 1257 l 483 1364 q 438 1249 481 1288 q 324 1210 396 1210 z "},"Ẵ":{"ha":650,"x_min":44,"x_max":606,"o":"m 281 1125 l 368 1125 l 606 0 l 529 0 l 471 311 l 179 311 l 119 0 l 44 0 l 281 1125 m 461 367 l 325 1033 l 190 367 l 461 367 m 324 1210 q 210 1248 251 1210 q 167 1364 169 1286 l 218 1364 q 324 1257 219 1257 q 432 1364 425 1257 l 483 1364 q 438 1249 481 1288 q 324 1210 396 1210 m 397 1425 q 357 1434 375 1425 q 314 1461 339 1443 q 281 1483 293 1476 q 254 1490 268 1490 q 223 1476 235 1490 q 211 1436 211 1463 l 161 1436 q 180 1506 161 1469 q 247 1542 199 1542 q 290 1532 271 1542 q 338 1504 310 1522 q 396 1476 372 1476 q 429 1491 418 1476 q 442 1539 440 1506 l 489 1539 q 470 1462 489 1499 q 397 1425 451 1425 z "},"Â":{"ha":650,"x_min":44,"x_max":606,"o":"m 281 1125 l 368 1125 l 606 0 l 529 0 l 471 311 l 179 311 l 119 0 l 44 0 l 281 1125 m 461 367 l 325 1033 l 190 367 l 461 367 m 279 1447 l 371 1447 l 489 1197 l 436 1197 l 325 1410 l 214 1197 l 160 1197 l 279 1447 z "},"Ấ":{"ha":650,"x_min":44,"x_max":614,"o":"m 281 1125 l 368 1125 l 606 0 l 529 0 l 471 311 l 179 311 l 119 0 l 44 0 l 281 1125 m 461 367 l 325 1033 l 190 367 l 461 367 m 542 1481 l 614 1481 l 521 1321 l 468 1321 l 542 1481 m 279 1392 l 371 1392 l 489 1197 l 436 1197 l 325 1357 l 214 1197 l 160 1197 l 279 1392 z "},"Ậ":{"ha":650,"x_min":44,"x_max":606,"o":"m 281 1125 l 368 1125 l 606 0 l 529 0 l 471 311 l 179 311 l 119 0 l 44 0 l 281 1125 m 461 367 l 325 1033 l 190 367 l 461 367 m 279 1392 l 371 1392 l 489 1197 l 436 1197 l 325 1357 l 214 1197 l 160 1197 l 279 1392 m 283 -83 l 367 -83 l 367 -187 l 283 -187 l 283 -83 z "},"Ầ":{"ha":650,"x_min":44,"x_max":606,"o":"m 281 1125 l 368 1125 l 606 0 l 529 0 l 471 311 l 179 311 l 119 0 l 44 0 l 281 1125 m 461 367 l 325 1033 l 190 367 l 461 367 m 411 1481 l 483 1481 l 557 1321 l 504 1321 l 411 1481 m 279 1392 l 371 1392 l 489 1197 l 436 1197 l 325 1357 l 214 1197 l 160 1197 l 279 1392 z "},"Ẩ":{"ha":650,"x_min":44,"x_max":606,"o":"m 281 1125 l 368 1125 l 606 0 l 529 0 l 471 311 l 179 311 l 119 0 l 44 0 l 281 1125 m 461 367 l 325 1033 l 190 367 l 461 367 m 457 1351 q 506 1387 490 1369 q 521 1426 521 1404 q 461 1474 521 1474 q 399 1464 429 1474 l 399 1501 q 475 1514 438 1514 q 551 1492 524 1514 q 578 1431 578 1471 q 554 1367 578 1393 q 488 1319 531 1342 l 457 1351 m 279 1392 l 371 1392 l 489 1197 l 436 1197 l 325 1357 l 214 1197 l 160 1197 l 279 1392 z "},"Ẫ":{"ha":650,"x_min":44,"x_max":606,"o":"m 281 1125 l 368 1125 l 606 0 l 529 0 l 471 311 l 179 311 l 119 0 l 44 0 l 281 1125 m 461 367 l 325 1033 l 190 367 l 461 367 m 279 1392 l 371 1392 l 489 1197 l 436 1197 l 325 1357 l 214 1197 l 160 1197 l 279 1392 m 397 1461 q 357 1470 375 1461 q 314 1497 339 1479 q 281 1519 293 1513 q 254 1526 268 1526 q 223 1513 235 1526 q 211 1472 211 1499 l 161 1472 q 180 1542 161 1506 q 247 1578 199 1578 q 290 1568 271 1578 q 338 1540 310 1558 q 396 1513 372 1513 q 429 1527 418 1513 q 442 1575 440 1542 l 489 1575 q 470 1498 489 1535 q 397 1461 451 1461 z "},"Ȁ":{"ha":650,"x_min":44,"x_max":606,"o":"m 281 1125 l 368 1125 l 606 0 l 529 0 l 471 311 l 179 311 l 119 0 l 44 0 l 281 1125 m 461 367 l 325 1033 l 190 367 l 461 367 m 110 1447 l 192 1447 l 269 1243 l 229 1243 l 110 1447 m 272 1447 l 344 1447 l 403 1243 l 365 1243 l 272 1447 z "},"Ä":{"ha":650,"x_min":44,"x_max":606,"o":"m 281 1125 l 368 1125 l 606 0 l 529 0 l 471 311 l 179 311 l 119 0 l 44 0 l 281 1125 m 461 367 l 325 1033 l 190 367 l 461 367 m 176 1447 l 253 1447 l 253 1342 l 176 1342 l 176 1447 m 399 1447 l 476 1447 l 476 1342 l 399 1342 l 399 1447 z "},"Ạ":{"ha":650,"x_min":44,"x_max":606,"o":"m 281 1125 l 368 1125 l 606 0 l 529 0 l 471 311 l 179 311 l 119 0 l 44 0 l 281 1125 m 461 367 l 325 1033 l 190 367 l 461 367 m 283 -83 l 367 -83 l 367 -187 l 283 -187 l 283 -83 z "},"À":{"ha":650,"x_min":44,"x_max":606,"o":"m 281 1125 l 368 1125 l 606 0 l 529 0 l 471 311 l 179 311 l 119 0 l 44 0 l 281 1125 m 461 367 l 325 1033 l 190 367 l 461 367 m 192 1461 l 267 1461 l 342 1192 l 304 1192 l 192 1461 z "},"Ả":{"ha":650,"x_min":44,"x_max":606,"o":"m 281 1125 l 368 1125 l 606 0 l 529 0 l 471 311 l 179 311 l 119 0 l 44 0 l 281 1125 m 461 367 l 325 1033 l 190 367 l 461 367 m 293 1271 q 344 1307 328 1290 q 360 1346 360 1324 q 344 1382 360 1371 q 296 1393 329 1393 q 235 1386 272 1393 l 235 1425 q 308 1433 272 1433 q 417 1350 417 1433 q 392 1287 417 1313 q 324 1239 368 1261 l 293 1271 z "},"Ȃ":{"ha":650,"x_min":44,"x_max":606,"o":"m 281 1125 l 368 1125 l 606 0 l 529 0 l 471 311 l 179 311 l 119 0 l 44 0 l 281 1125 m 461 367 l 325 1033 l 190 367 l 461 367 m 167 1293 q 212 1408 169 1369 q 325 1447 254 1447 q 439 1408 397 1447 q 483 1293 481 1369 l 432 1293 q 325 1399 428 1399 q 218 1293 224 1399 l 167 1293 z "},"Ā":{"ha":650,"x_min":44,"x_max":606,"o":"m 281 1125 l 368 1125 l 606 0 l 529 0 l 471 311 l 179 311 l 119 0 l 44 0 l 281 1125 m 461 367 l 325 1033 l 190 367 l 461 367 m 206 1350 l 444 1350 l 444 1294 l 206 1294 l 206 1350 z "},"Ą":{"ha":650,"x_min":44,"x_max":624,"o":"m 281 1125 l 368 1125 l 606 0 l 529 0 l 471 311 l 179 311 l 119 0 l 44 0 l 281 1125 m 461 367 l 325 1033 l 190 367 l 461 367 m 579 -279 q 478 -250 515 -279 q 440 -168 440 -221 q 470 -78 440 -121 q 550 0 500 -35 l 592 0 q 522 -85 546 -46 q 499 -162 499 -124 q 526 -217 499 -199 q 599 -236 554 -236 q 624 -233 610 -236 l 615 -276 q 579 -279 599 -279 z "},"Å":{"ha":650,"x_min":44,"x_max":606,"o":"m 281 1125 l 368 1125 l 606 0 l 529 0 l 471 311 l 179 311 l 119 0 l 44 0 l 281 1125 m 461 367 l 325 1033 l 190 367 l 461 367 m 325 1224 q 241 1253 276 1224 q 206 1342 206 1283 q 241 1430 206 1400 q 325 1460 276 1460 q 409 1430 374 1460 q 444 1342 444 1400 q 409 1253 444 1283 q 325 1224 374 1224 m 325 1267 q 377 1285 356 1267 q 399 1342 399 1304 q 378 1399 399 1381 q 325 1418 357 1418 q 272 1399 293 1418 q 251 1342 251 1381 q 273 1285 251 1304 q 325 1267 294 1267 z "},"Ǻ":{"ha":650,"x_min":44,"x_max":606,"o":"m 281 1125 l 368 1125 l 606 0 l 529 0 l 471 311 l 179 311 l 119 0 l 44 0 l 281 1125 m 461 367 l 325 1033 l 190 367 l 461 367 m 325 1224 q 241 1253 276 1224 q 206 1342 206 1283 q 241 1430 206 1400 q 325 1460 276 1460 q 409 1430 374 1460 q 444 1342 444 1400 q 409 1253 444 1283 q 325 1224 374 1224 m 325 1267 q 377 1285 356 1267 q 399 1342 399 1304 q 378 1399 399 1381 q 325 1418 357 1418 q 272 1399 293 1418 q 251 1342 251 1381 q 273 1285 251 1304 q 325 1267 294 1267 m 396 1796 l 471 1796 l 346 1526 l 307 1526 l 396 1796 z "},"Ã":{"ha":650,"x_min":44,"x_max":606,"o":"m 281 1125 l 368 1125 l 606 0 l 529 0 l 471 311 l 179 311 l 119 0 l 44 0 l 281 1125 m 461 367 l 325 1033 l 190 367 l 461 367 m 397 1276 q 357 1285 375 1276 q 314 1313 339 1294 q 281 1335 293 1328 q 254 1342 268 1342 q 223 1328 235 1342 q 211 1288 211 1314 l 161 1288 q 180 1357 161 1321 q 247 1393 199 1393 q 290 1383 271 1393 q 338 1356 310 1374 q 396 1328 372 1328 q 429 1342 418 1328 q 442 1390 440 1357 l 489 1390 q 470 1313 489 1350 q 397 1276 451 1276 z "},"Æ":{"ha":874,"x_min":-21,"x_max":828,"o":"m 415 1125 l 828 1125 l 828 1058 l 517 1058 l 517 618 l 739 618 l 739 557 l 517 557 l 517 65 l 828 65 l 828 0 l 438 0 l 438 311 l 183 311 l 68 0 l -21 0 l 415 1125 m 436 372 l 436 1010 l 206 372 l 436 372 z "},"Ǽ":{"ha":874,"x_min":-21,"x_max":828,"o":"m 415 1125 l 828 1125 l 828 1058 l 517 1058 l 517 618 l 739 618 l 739 557 l 517 557 l 517 65 l 828 65 l 828 0 l 438 0 l 438 311 l 183 311 l 68 0 l -21 0 l 415 1125 m 436 372 l 436 1010 l 206 372 l 436 372 m 547 1461 l 622 1461 l 497 1192 l 458 1192 l 547 1461 z "},"B":{"ha":678,"x_min":104,"x_max":621,"o":"m 104 1125 l 336 1125 q 538 1050 481 1125 q 596 844 596 975 q 567 692 596 760 q 464 607 538 625 q 586 501 551 581 q 621 328 621 422 q 569 88 621 176 q 369 0 517 0 l 104 0 l 104 1125 m 369 632 q 490 689 456 632 q 525 844 525 746 q 483 1008 525 951 q 318 1064 440 1064 l 179 1064 l 179 632 l 369 632 m 360 60 q 474 88 433 60 q 531 174 514 117 q 547 326 547 231 q 506 505 547 438 q 371 572 465 572 l 179 572 l 179 60 l 360 60 z "},"Ḃ":{"ha":678,"x_min":104,"x_max":621,"o":"m 104 1125 l 336 1125 q 538 1050 481 1125 q 596 844 596 975 q 567 692 596 760 q 464 607 538 625 q 586 501 551 581 q 621 328 621 422 q 569 88 621 176 q 369 0 517 0 l 104 0 l 104 1125 m 369 632 q 490 689 456 632 q 525 844 525 746 q 483 1008 525 951 q 318 1064 440 1064 l 179 1064 l 179 632 l 369 632 m 360 60 q 474 88 433 60 q 531 174 514 117 q 547 326 547 231 q 506 505 547 438 q 371 572 465 572 l 179 572 l 179 60 l 360 60 m 297 1406 l 381 1406 l 381 1261 l 297 1261 l 297 1406 z "},"C":{"ha":679,"x_min":81,"x_max":611,"o":"m 354 -15 q 140 74 200 -15 q 81 324 81 164 l 81 801 q 142 1049 81 961 q 354 1138 203 1138 q 553 1056 494 1138 q 611 821 611 975 l 611 764 l 539 764 l 539 821 q 499 1013 539 950 q 354 1075 458 1075 q 199 1008 240 1075 q 157 810 157 942 l 157 313 q 200 113 157 179 q 354 47 243 47 q 499 112 460 47 q 539 303 539 176 l 539 371 l 611 371 l 611 315 q 554 71 611 157 q 354 -15 497 -15 z "},"Ć":{"ha":679,"x_min":81,"x_max":611,"o":"m 354 -15 q 140 74 200 -15 q 81 324 81 164 l 81 801 q 142 1049 81 961 q 354 1138 203 1138 q 553 1056 494 1138 q 611 821 611 975 l 611 764 l 539 764 l 539 821 q 499 1013 539 950 q 354 1075 458 1075 q 199 1008 240 1075 q 157 810 157 942 l 157 313 q 200 113 157 179 q 354 47 243 47 q 499 112 460 47 q 539 303 539 176 l 539 371 l 611 371 l 611 315 q 554 71 611 157 q 354 -15 497 -15 m 411 1461 l 486 1461 l 361 1192 l 322 1192 l 411 1461 z "},"Č":{"ha":679,"x_min":81,"x_max":611,"o":"m 354 -15 q 140 74 200 -15 q 81 324 81 164 l 81 801 q 142 1049 81 961 q 354 1138 203 1138 q 553 1056 494 1138 q 611 821 611 975 l 611 764 l 539 764 l 539 821 q 499 1013 539 950 q 354 1075 458 1075 q 199 1008 240 1075 q 157 810 157 942 l 157 313 q 200 113 157 179 q 354 47 243 47 q 499 112 460 47 q 539 303 539 176 l 539 371 l 611 371 l 611 315 q 554 71 611 157 q 354 -15 497 -15 m 194 1447 l 257 1447 l 340 1278 l 424 1447 l 486 1447 l 368 1221 l 313 1221 l 194 1447 z "},"Ç":{"ha":679,"x_min":81,"x_max":611,"o":"m 539 764 l 539 821 q 499 1013 539 950 q 354 1075 458 1075 q 199 1008 240 1075 q 157 810 157 942 l 157 313 q 200 113 157 179 q 354 47 243 47 q 499 112 460 47 q 539 303 539 176 l 539 371 l 611 371 l 611 315 q 556 72 611 158 q 360 -15 500 -14 l 360 -65 q 471 -160 471 -71 q 436 -233 471 -208 q 335 -258 401 -258 q 289 -256 319 -258 l 289 -215 q 319 -218 311 -218 q 391 -204 368 -218 q 414 -160 414 -190 q 390 -113 414 -131 q 319 -92 365 -96 l 319 -14 q 133 85 185 -3 q 81 324 81 174 l 81 801 q 142 1049 81 961 q 354 1138 203 1138 q 553 1056 494 1138 q 611 821 611 975 l 611 764 l 539 764 z "},"Ĉ":{"ha":679,"x_min":81,"x_max":611,"o":"m 354 -15 q 140 74 200 -15 q 81 324 81 164 l 81 801 q 142 1049 81 961 q 354 1138 203 1138 q 553 1056 494 1138 q 611 821 611 975 l 611 764 l 539 764 l 539 821 q 499 1013 539 950 q 354 1075 458 1075 q 199 1008 240 1075 q 157 810 157 942 l 157 313 q 200 113 157 179 q 354 47 243 47 q 499 112 460 47 q 539 303 539 176 l 539 371 l 611 371 l 611 315 q 554 71 611 157 q 354 -15 497 -15 m 294 1447 l 386 1447 l 504 1197 l 451 1197 l 340 1410 l 229 1197 l 175 1197 l 294 1447 z "},"Ċ":{"ha":679,"x_min":81,"x_max":611,"o":"m 354 -15 q 140 74 200 -15 q 81 324 81 164 l 81 801 q 142 1049 81 961 q 354 1138 203 1138 q 553 1056 494 1138 q 611 821 611 975 l 611 764 l 539 764 l 539 821 q 499 1013 539 950 q 354 1075 458 1075 q 199 1008 240 1075 q 157 810 157 942 l 157 313 q 200 113 157 179 q 354 47 243 47 q 499 112 460 47 q 539 303 539 176 l 539 371 l 611 371 l 611 315 q 554 71 611 157 q 354 -15 497 -15 m 299 1406 l 382 1406 l 382 1261 l 299 1261 l 299 1406 z "},"D":{"ha":718,"x_min":104,"x_max":638,"o":"m 104 1125 l 350 1125 q 572 1038 507 1125 q 638 801 638 951 l 638 335 q 574 88 638 176 q 357 0 511 0 l 104 0 l 104 1125 m 353 60 q 485 97 439 60 q 546 194 531 133 q 561 343 561 256 l 561 796 q 516 997 561 931 q 350 1064 471 1064 l 179 1064 l 179 60 l 353 60 z "},"Ǳ":{"ha":1275,"x_min":104,"x_max":1249,"o":"m 104 1125 l 350 1125 q 572 1038 507 1125 q 638 801 638 951 l 638 335 q 574 88 638 176 q 357 0 511 0 l 104 0 l 104 1125 m 353 60 q 485 97 439 60 q 546 194 531 133 q 561 343 561 256 l 561 796 q 516 997 561 931 q 350 1064 471 1064 l 179 1064 l 179 60 l 353 60 m 761 60 l 1165 1065 l 797 1065 l 797 1125 l 1247 1125 l 1247 1078 l 839 60 l 1249 60 l 1249 0 l 761 0 l 761 60 z "},"Ǆ":{"ha":1275,"x_min":104,"x_max":1249,"o":"m 104 1125 l 350 1125 q 572 1038 507 1125 q 638 801 638 951 l 638 335 q 574 88 638 176 q 357 0 511 0 l 104 0 l 104 1125 m 353 60 q 485 97 439 60 q 546 194 531 133 q 561 343 561 256 l 561 796 q 516 997 561 931 q 350 1064 471 1064 l 179 1064 l 179 60 l 353 60 m 761 60 l 1165 1065 l 797 1065 l 797 1125 l 1247 1125 l 1247 1078 l 839 60 l 1249 60 l 1249 0 l 761 0 l 761 60 m 851 1447 l 914 1447 l 997 1278 l 1081 1447 l 1143 1447 l 1025 1221 l 969 1221 l 851 1447 z "},"Ð":{"ha":779,"x_min":13,"x_max":638,"o":"m 104 567 l 13 567 l 13 618 l 104 618 l 104 1125 l 350 1125 q 572 1038 507 1125 q 638 801 638 951 l 638 335 q 574 88 638 176 q 357 0 511 0 l 104 0 l 104 567 m 353 60 q 485 97 439 60 q 546 194 531 133 q 561 343 561 256 l 561 796 q 516 997 561 931 q 350 1064 471 1064 l 179 1064 l 179 618 l 310 618 l 310 567 l 179 567 l 179 60 l 353 60 z "},"Ď":{"ha":718,"x_min":104,"x_max":638,"o":"m 104 1125 l 350 1125 q 572 1038 507 1125 q 638 801 638 951 l 638 335 q 574 88 638 176 q 357 0 511 0 l 104 0 l 104 1125 m 353 60 q 485 97 439 60 q 546 194 531 133 q 561 343 561 256 l 561 796 q 516 997 561 931 q 350 1064 471 1064 l 179 1064 l 179 60 l 353 60 m 214 1447 l 276 1447 l 360 1278 l 443 1447 l 506 1447 l 388 1221 l 332 1221 l 214 1447 z "},"Đ":{"ha":719,"x_min":14,"x_max":639,"o":"m 104 567 l 14 567 l 14 618 l 104 618 l 104 1125 l 351 1125 q 574 1038 508 1125 q 639 801 639 951 l 639 335 q 575 88 639 176 q 358 0 511 0 l 104 0 l 104 567 m 354 60 q 486 97 440 60 q 547 194 532 133 q 563 343 563 256 l 563 796 q 517 997 563 931 q 350 1064 472 1064 l 181 1064 l 181 618 l 311 618 l 311 567 l 181 567 l 181 60 l 354 60 z "},"Ḋ":{"ha":718,"x_min":104,"x_max":638,"o":"m 104 1125 l 350 1125 q 572 1038 507 1125 q 638 801 638 951 l 638 335 q 574 88 638 176 q 357 0 511 0 l 104 0 l 104 1125 m 353 60 q 485 97 439 60 q 546 194 531 133 q 561 343 561 256 l 561 796 q 516 997 561 931 q 350 1064 471 1064 l 179 1064 l 179 60 l 353 60 m 318 1406 l 401 1406 l 401 1261 l 318 1261 l 318 1406 z "},"ǲ":{"ha":1169,"x_min":104,"x_max":1128,"o":"m 104 1125 l 350 1125 q 572 1038 507 1125 q 638 801 638 951 l 638 335 q 574 88 638 176 q 357 0 511 0 l 104 0 l 104 1125 m 353 60 q 485 97 439 60 q 546 194 531 133 q 561 343 561 256 l 561 796 q 516 997 561 931 q 350 1064 471 1064 l 179 1064 l 179 60 l 353 60 m 763 54 l 1053 746 l 793 746 l 793 803 l 1128 803 l 1128 754 l 840 57 l 1124 57 l 1124 0 l 763 0 l 763 54 z "},"ǅ":{"ha":1169,"x_min":104,"x_max":1128,"o":"m 104 1125 l 350 1125 q 572 1038 507 1125 q 638 801 638 951 l 638 335 q 574 88 638 176 q 357 0 511 0 l 104 0 l 104 1125 m 353 60 q 485 97 439 60 q 546 194 531 133 q 561 343 561 256 l 561 796 q 516 997 561 931 q 350 1064 471 1064 l 179 1064 l 179 60 l 353 60 m 763 54 l 1053 746 l 793 746 l 793 803 l 1128 803 l 1128 754 l 840 57 l 1124 57 l 1124 0 l 763 0 l 763 54 m 799 1125 l 861 1125 l 944 956 l 1028 1125 l 1090 1125 l 972 899 l 917 899 l 799 1125 z "},"E":{"ha":546,"x_min":103,"x_max":496,"o":"m 103 1125 l 492 1125 l 492 1064 l 179 1064 l 179 613 l 436 613 l 436 554 l 179 554 l 179 60 l 496 60 l 496 0 l 103 0 l 103 1125 z "},"É":{"ha":546,"x_min":103,"x_max":496,"o":"m 103 1125 l 492 1125 l 492 1064 l 179 1064 l 179 613 l 436 613 l 436 554 l 179 554 l 179 60 l 496 60 l 496 0 l 103 0 l 103 1125 m 372 1461 l 447 1461 l 322 1192 l 283 1192 l 372 1461 z "},"Ĕ":{"ha":546,"x_min":103,"x_max":496,"o":"m 103 1125 l 492 1125 l 492 1064 l 179 1064 l 179 613 l 436 613 l 436 554 l 179 554 l 179 60 l 496 60 l 496 0 l 103 0 l 103 1125 m 300 1210 q 187 1248 228 1210 q 143 1364 146 1286 l 194 1364 q 300 1257 196 1257 q 408 1364 401 1257 l 460 1364 q 415 1249 457 1288 q 300 1210 372 1210 z "},"Ě":{"ha":546,"x_min":103,"x_max":496,"o":"m 103 1125 l 492 1125 l 492 1064 l 179 1064 l 179 613 l 436 613 l 436 554 l 179 554 l 179 60 l 496 60 l 496 0 l 103 0 l 103 1125 m 156 1447 l 218 1447 l 301 1278 l 385 1447 l 447 1447 l 329 1221 l 274 1221 l 156 1447 z "},"Ê":{"ha":546,"x_min":103,"x_max":496,"o":"m 103 1125 l 492 1125 l 492 1064 l 179 1064 l 179 613 l 436 613 l 436 554 l 179 554 l 179 60 l 496 60 l 496 0 l 103 0 l 103 1125 m 256 1447 l 347 1447 l 465 1197 l 413 1197 l 301 1410 l 190 1197 l 136 1197 l 256 1447 z "},"Ế":{"ha":546,"x_min":103,"x_max":590,"o":"m 103 1125 l 492 1125 l 492 1064 l 179 1064 l 179 613 l 436 613 l 436 554 l 179 554 l 179 60 l 496 60 l 496 0 l 103 0 l 103 1125 m 518 1481 l 590 1481 l 497 1321 l 444 1321 l 518 1481 m 256 1392 l 347 1392 l 465 1197 l 413 1197 l 301 1357 l 190 1197 l 136 1197 l 256 1392 z "},"Ệ":{"ha":546,"x_min":103,"x_max":496,"o":"m 103 1125 l 492 1125 l 492 1064 l 179 1064 l 179 613 l 436 613 l 436 554 l 179 554 l 179 60 l 496 60 l 496 0 l 103 0 l 103 1125 m 256 1392 l 347 1392 l 465 1197 l 413 1197 l 301 1357 l 190 1197 l 136 1197 l 256 1392 m 258 -83 l 342 -83 l 342 -187 l 258 -187 l 258 -83 z "},"Ề":{"ha":546,"x_min":103,"x_max":533,"o":"m 103 1125 l 492 1125 l 492 1064 l 179 1064 l 179 613 l 436 613 l 436 554 l 179 554 l 179 60 l 496 60 l 496 0 l 103 0 l 103 1125 m 388 1481 l 460 1481 l 533 1321 l 481 1321 l 388 1481 m 256 1392 l 347 1392 l 465 1197 l 413 1197 l 301 1357 l 190 1197 l 136 1197 l 256 1392 z "},"Ể":{"ha":546,"x_min":103,"x_max":554,"o":"m 103 1125 l 492 1125 l 492 1064 l 179 1064 l 179 613 l 436 613 l 436 554 l 179 554 l 179 60 l 496 60 l 496 0 l 103 0 l 103 1125 m 433 1351 q 482 1387 467 1369 q 497 1426 497 1404 q 438 1474 497 1474 q 375 1464 406 1474 l 375 1501 q 451 1514 414 1514 q 527 1492 500 1514 q 554 1431 554 1471 q 531 1367 554 1393 q 464 1319 507 1342 l 433 1351 m 256 1392 l 347 1392 l 465 1197 l 413 1197 l 301 1357 l 190 1197 l 136 1197 l 256 1392 z "},"Ễ":{"ha":546,"x_min":103,"x_max":496,"o":"m 103 1125 l 492 1125 l 492 1064 l 179 1064 l 179 613 l 436 613 l 436 554 l 179 554 l 179 60 l 496 60 l 496 0 l 103 0 l 103 1125 m 256 1392 l 347 1392 l 465 1197 l 413 1197 l 301 1357 l 190 1197 l 136 1197 l 256 1392 m 374 1461 q 333 1470 351 1461 q 290 1497 315 1479 q 257 1519 269 1513 q 231 1526 244 1526 q 199 1513 211 1526 q 188 1472 188 1499 l 138 1472 q 156 1542 138 1506 q 224 1578 175 1578 q 267 1568 247 1578 q 314 1540 286 1558 q 372 1513 349 1513 q 406 1527 394 1513 q 418 1575 417 1542 l 465 1575 q 447 1498 465 1535 q 374 1461 428 1461 z "},"Ȅ":{"ha":546,"x_min":86,"x_max":496,"o":"m 103 1125 l 492 1125 l 492 1064 l 179 1064 l 179 613 l 436 613 l 436 554 l 179 554 l 179 60 l 496 60 l 496 0 l 103 0 l 103 1125 m 86 1447 l 168 1447 l 246 1243 l 206 1243 l 86 1447 m 249 1447 l 321 1447 l 379 1243 l 342 1243 l 249 1447 z "},"Ë":{"ha":546,"x_min":103,"x_max":496,"o":"m 103 1125 l 492 1125 l 492 1064 l 179 1064 l 179 613 l 436 613 l 436 554 l 179 554 l 179 60 l 496 60 l 496 0 l 103 0 l 103 1125 m 153 1447 l 229 1447 l 229 1342 l 153 1342 l 153 1447 m 375 1447 l 453 1447 l 453 1342 l 375 1342 l 375 1447 z "},"Ė":{"ha":546,"x_min":103,"x_max":496,"o":"m 103 1125 l 492 1125 l 492 1064 l 179 1064 l 179 613 l 436 613 l 436 554 l 179 554 l 179 60 l 496 60 l 496 0 l 103 0 l 103 1125 m 260 1406 l 343 1406 l 343 1261 l 260 1261 l 260 1406 z "},"Ẹ":{"ha":546,"x_min":103,"x_max":496,"o":"m 103 1125 l 492 1125 l 492 1064 l 179 1064 l 179 613 l 436 613 l 436 554 l 179 554 l 179 60 l 496 60 l 496 0 l 103 0 l 103 1125 m 258 -83 l 342 -83 l 342 -187 l 258 -187 l 258 -83 z "},"È":{"ha":546,"x_min":103,"x_max":496,"o":"m 103 1125 l 492 1125 l 492 1064 l 179 1064 l 179 613 l 436 613 l 436 554 l 179 554 l 179 60 l 496 60 l 496 0 l 103 0 l 103 1125 m 168 1461 l 243 1461 l 318 1192 l 281 1192 l 168 1461 z "},"Ẻ":{"ha":546,"x_min":103,"x_max":496,"o":"m 103 1125 l 492 1125 l 492 1064 l 179 1064 l 179 613 l 436 613 l 436 554 l 179 554 l 179 60 l 496 60 l 496 0 l 103 0 l 103 1125 m 269 1271 q 320 1307 304 1290 q 336 1346 336 1324 q 321 1382 336 1371 q 272 1393 306 1393 q 211 1386 249 1393 l 211 1425 q 285 1433 249 1433 q 393 1350 393 1433 q 369 1287 393 1313 q 300 1239 344 1261 l 269 1271 z "},"Ȇ":{"ha":546,"x_min":103,"x_max":496,"o":"m 103 1125 l 492 1125 l 492 1064 l 179 1064 l 179 613 l 436 613 l 436 554 l 179 554 l 179 60 l 496 60 l 496 0 l 103 0 l 103 1125 m 143 1293 q 188 1408 146 1369 q 301 1447 231 1447 q 415 1408 374 1447 q 460 1293 457 1369 l 408 1293 q 301 1399 404 1399 q 194 1293 200 1399 l 143 1293 z "},"Ē":{"ha":546,"x_min":103,"x_max":496,"o":"m 103 1125 l 492 1125 l 492 1064 l 179 1064 l 179 613 l 436 613 l 436 554 l 179 554 l 179 60 l 496 60 l 496 0 l 103 0 l 103 1125 m 182 1350 l 421 1350 l 421 1294 l 182 1294 l 182 1350 z "},"Ę":{"ha":546,"x_min":103,"x_max":496,"o":"m 103 1125 l 492 1125 l 492 1064 l 179 1064 l 179 613 l 436 613 l 436 554 l 179 554 l 179 60 l 496 60 l 496 0 l 103 0 l 103 1125 m 444 -279 q 343 -250 381 -279 q 306 -168 306 -221 q 335 -78 306 -121 q 415 0 365 -35 l 457 0 q 388 -85 411 -46 q 364 -162 364 -124 q 392 -217 364 -199 q 464 -236 419 -236 q 489 -233 475 -236 l 481 -276 q 444 -279 464 -279 z "},"Ẽ":{"ha":546,"x_min":103,"x_max":496,"o":"m 103 1125 l 492 1125 l 492 1064 l 179 1064 l 179 613 l 436 613 l 436 554 l 179 554 l 179 60 l 496 60 l 496 0 l 103 0 l 103 1125 m 374 1276 q 333 1285 351 1276 q 290 1313 315 1294 q 257 1335 269 1328 q 231 1342 244 1342 q 199 1328 211 1342 q 188 1288 188 1314 l 138 1288 q 156 1357 138 1321 q 224 1393 175 1393 q 267 1383 247 1393 q 314 1356 286 1374 q 372 1328 349 1328 q 406 1342 394 1328 q 418 1390 417 1357 l 465 1390 q 447 1313 465 1350 q 374 1276 428 1276 z "},"F":{"ha":532,"x_min":104,"x_max":492,"o":"m 104 1125 l 492 1125 l 492 1065 l 179 1065 l 179 613 l 449 613 l 449 554 l 179 554 l 179 0 l 104 0 l 104 1125 z "},"Ḟ":{"ha":532,"x_min":104,"x_max":492,"o":"m 104 1125 l 492 1125 l 492 1065 l 179 1065 l 179 613 l 449 613 l 449 554 l 179 554 l 179 0 l 104 0 l 104 1125 m 225 1406 l 308 1406 l 308 1261 l 225 1261 l 225 1406 z "},"G":{"ha":708,"x_min":81,"x_max":615,"o":"m 350 -15 q 140 74 200 -15 q 81 326 81 163 l 81 804 q 141 1051 81 965 q 354 1138 201 1138 q 554 1056 494 1138 q 614 817 614 974 l 614 778 l 542 778 l 542 821 q 501 1013 542 951 q 354 1075 460 1075 q 198 1007 239 1075 q 157 807 157 939 l 157 317 q 200 115 157 183 q 356 47 243 47 q 503 113 461 47 q 544 313 544 179 l 544 478 l 365 478 l 365 536 l 615 536 l 615 0 l 567 0 l 556 126 q 484 21 533 57 q 350 -15 435 -15 z "},"Ǵ":{"ha":708,"x_min":81,"x_max":615,"o":"m 350 -15 q 140 74 200 -15 q 81 326 81 163 l 81 804 q 141 1051 81 965 q 354 1138 201 1138 q 554 1056 494 1138 q 614 817 614 974 l 614 778 l 542 778 l 542 821 q 501 1013 542 951 q 354 1075 460 1075 q 198 1007 239 1075 q 157 807 157 939 l 157 317 q 200 115 157 183 q 356 47 243 47 q 503 113 461 47 q 544 313 544 179 l 544 478 l 365 478 l 365 536 l 615 536 l 615 0 l 567 0 l 556 126 q 484 21 533 57 q 350 -15 435 -15 m 425 1461 l 500 1461 l 375 1192 l 336 1192 l 425 1461 z "},"Ğ":{"ha":708,"x_min":81,"x_max":615,"o":"m 350 -15 q 140 74 200 -15 q 81 326 81 163 l 81 804 q 141 1051 81 965 q 354 1138 201 1138 q 554 1056 494 1138 q 614 817 614 974 l 614 778 l 542 778 l 542 821 q 501 1013 542 951 q 354 1075 460 1075 q 198 1007 239 1075 q 157 807 157 939 l 157 317 q 200 115 157 183 q 356 47 243 47 q 503 113 461 47 q 544 313 544 179 l 544 478 l 365 478 l 365 536 l 615 536 l 615 0 l 567 0 l 556 126 q 484 21 533 57 q 350 -15 435 -15 m 353 1210 q 240 1248 281 1210 q 196 1364 199 1286 l 247 1364 q 353 1257 249 1257 q 461 1364 454 1257 l 513 1364 q 467 1249 510 1288 q 353 1210 425 1210 z "},"Ǧ":{"ha":708,"x_min":81,"x_max":615,"o":"m 350 -15 q 140 74 200 -15 q 81 326 81 163 l 81 804 q 141 1051 81 965 q 354 1138 201 1138 q 554 1056 494 1138 q 614 817 614 974 l 614 778 l 542 778 l 542 821 q 501 1013 542 951 q 354 1075 460 1075 q 198 1007 239 1075 q 157 807 157 939 l 157 317 q 200 115 157 183 q 356 47 243 47 q 503 113 461 47 q 544 313 544 179 l 544 478 l 365 478 l 365 536 l 615 536 l 615 0 l 567 0 l 556 126 q 484 21 533 57 q 350 -15 435 -15 m 208 1447 l 271 1447 l 354 1278 l 438 1447 l 500 1447 l 382 1221 l 326 1221 l 208 1447 z "},"Ĝ":{"ha":708,"x_min":81,"x_max":615,"o":"m 350 -15 q 140 74 200 -15 q 81 326 81 163 l 81 804 q 141 1051 81 965 q 354 1138 201 1138 q 554 1056 494 1138 q 614 817 614 974 l 614 778 l 542 778 l 542 821 q 501 1013 542 951 q 354 1075 460 1075 q 198 1007 239 1075 q 157 807 157 939 l 157 317 q 200 115 157 183 q 356 47 243 47 q 503 113 461 47 q 544 313 544 179 l 544 478 l 365 478 l 365 536 l 615 536 l 615 0 l 567 0 l 556 126 q 484 21 533 57 q 350 -15 435 -15 m 308 1447 l 400 1447 l 518 1197 l 465 1197 l 354 1410 l 243 1197 l 189 1197 l 308 1447 z "},"Ģ":{"ha":708,"x_min":81,"x_max":615,"o":"m 350 -15 q 140 74 200 -15 q 81 326 81 163 l 81 804 q 141 1051 81 965 q 354 1138 201 1138 q 554 1056 494 1138 q 614 817 614 974 l 614 778 l 542 778 l 542 821 q 501 1013 542 951 q 354 1075 460 1075 q 198 1007 239 1075 q 157 807 157 939 l 157 317 q 200 115 157 183 q 356 47 243 47 q 503 113 461 47 q 544 313 544 179 l 544 478 l 365 478 l 365 536 l 615 536 l 615 0 l 567 0 l 556 126 q 484 21 533 57 q 350 -15 435 -15 m 304 -304 q 349 -251 336 -283 q 361 -187 361 -218 l 313 -187 l 313 -83 l 403 -83 l 403 -169 q 385 -274 403 -236 q 322 -333 368 -311 l 304 -304 z "},"Ġ":{"ha":708,"x_min":81,"x_max":615,"o":"m 350 -15 q 140 74 200 -15 q 81 326 81 163 l 81 804 q 141 1051 81 965 q 354 1138 201 1138 q 554 1056 494 1138 q 614 817 614 974 l 614 778 l 542 778 l 542 821 q 501 1013 542 951 q 354 1075 460 1075 q 198 1007 239 1075 q 157 807 157 939 l 157 317 q 200 115 157 183 q 356 47 243 47 q 503 113 461 47 q 544 313 544 179 l 544 478 l 365 478 l 365 536 l 615 536 l 615 0 l 567 0 l 556 126 q 484 21 533 57 q 350 -15 435 -15 m 313 1406 l 396 1406 l 396 1261 l 313 1261 l 313 1406 z "},"H":{"ha":753,"x_min":103,"x_max":649,"o":"m 103 1125 l 179 1125 l 179 618 l 574 618 l 574 1125 l 649 1125 l 649 0 l 574 0 l 574 560 l 179 560 l 179 0 l 103 0 l 103 1125 z "},"Ħ":{"ha":753,"x_min":51,"x_max":701,"o":"m 103 889 l 51 889 l 51 933 l 103 933 l 103 1125 l 179 1125 l 179 933 l 574 933 l 574 1125 l 649 1125 l 649 933 l 701 933 l 701 889 l 649 889 l 649 0 l 574 0 l 574 560 l 179 560 l 179 0 l 103 0 l 103 889 m 574 618 l 574 889 l 179 889 l 179 618 l 574 618 z "},"Ĥ":{"ha":753,"x_min":103,"x_max":649,"o":"m 103 1125 l 179 1125 l 179 618 l 574 618 l 574 1125 l 649 1125 l 649 0 l 574 0 l 574 560 l 179 560 l 179 0 l 103 0 l 103 1125 m 331 1447 l 422 1447 l 540 1197 l 488 1197 l 376 1410 l 265 1197 l 211 1197 l 331 1447 z "},"I":{"ha":286,"x_min":106,"x_max":181,"o":"m 106 1125 l 181 1125 l 181 0 l 106 0 l 106 1125 z "},"Ĳ":{"ha":654,"x_min":106,"x_max":550,"o":"m 106 1125 l 181 1125 l 181 0 l 106 0 l 106 1125 m 297 -3 q 418 13 382 -3 q 465 69 454 28 q 475 208 475 111 l 475 1125 l 550 1125 l 550 200 q 535 46 550 100 q 474 -35 519 -8 q 336 -62 429 -62 l 297 -62 l 297 -3 z "},"Í":{"ha":286,"x_min":106,"x_max":289,"o":"m 106 1125 l 181 1125 l 181 0 l 106 0 l 106 1125 m 214 1461 l 289 1461 l 164 1192 l 125 1192 l 214 1461 z "},"Ĭ":{"ha":286,"x_min":-15,"x_max":301,"o":"m 106 1125 l 181 1125 l 181 0 l 106 0 l 106 1125 m 142 1210 q 28 1248 69 1210 q -15 1364 -12 1286 l 36 1364 q 142 1257 38 1257 q 250 1364 243 1257 l 301 1364 q 256 1249 299 1288 q 142 1210 214 1210 z "},"Î":{"ha":286,"x_min":-22,"x_max":307,"o":"m 106 1125 l 181 1125 l 181 0 l 106 0 l 106 1125 m 97 1447 l 189 1447 l 307 1197 l 254 1197 l 143 1410 l 32 1197 l -22 1197 l 97 1447 z "},"Ȉ":{"ha":286,"x_min":-72,"x_max":221,"o":"m 106 1125 l 181 1125 l 181 0 l 106 0 l 106 1125 m -72 1447 l 10 1447 l 88 1243 l 47 1243 l -72 1447 m 90 1447 l 163 1447 l 221 1243 l 183 1243 l 90 1447 z "},"Ï":{"ha":286,"x_min":-6,"x_max":294,"o":"m 106 1125 l 181 1125 l 181 0 l 106 0 l 106 1125 m -6 1447 l 71 1447 l 71 1342 l -6 1342 l -6 1447 m 217 1447 l 294 1447 l 294 1342 l 217 1342 l 217 1447 z "},"İ":{"ha":286,"x_min":101,"x_max":185,"o":"m 106 1125 l 181 1125 l 181 0 l 106 0 l 106 1125 m 101 1406 l 185 1406 l 185 1261 l 101 1261 l 101 1406 z "},"Ị":{"ha":286,"x_min":101,"x_max":185,"o":"m 106 1125 l 181 1125 l 181 0 l 106 0 l 106 1125 m 101 -83 l 185 -83 l 185 -187 l 101 -187 l 101 -83 z "},"Ì":{"ha":286,"x_min":10,"x_max":181,"o":"m 106 1125 l 181 1125 l 181 0 l 106 0 l 106 1125 m 10 1461 l 85 1461 l 160 1192 l 122 1192 l 10 1461 z "},"Ỉ":{"ha":286,"x_min":53,"x_max":235,"o":"m 106 1125 l 181 1125 l 181 0 l 106 0 l 106 1125 m 111 1271 q 162 1307 146 1290 q 178 1346 178 1324 q 163 1382 178 1371 q 114 1393 147 1393 q 53 1386 90 1393 l 53 1425 q 126 1433 90 1433 q 235 1350 235 1433 q 210 1287 235 1313 q 142 1239 186 1261 l 111 1271 z "},"Ȋ":{"ha":286,"x_min":-15,"x_max":301,"o":"m 106 1125 l 181 1125 l 181 0 l 106 0 l 106 1125 m -15 1293 q 30 1408 -12 1369 q 143 1447 72 1447 q 257 1408 215 1447 q 301 1293 299 1369 l 250 1293 q 143 1399 246 1399 q 36 1293 42 1399 l -15 1293 z "},"Ī":{"ha":286,"x_min":24,"x_max":263,"o":"m 106 1125 l 181 1125 l 181 0 l 106 0 l 106 1125 m 24 1350 l 263 1350 l 263 1294 l 24 1294 l 24 1350 z "},"Į":{"ha":286,"x_min":13,"x_max":196,"o":"m 106 1125 l 181 1125 l 181 0 l 106 0 l 106 1125 m 151 -279 q 50 -250 88 -279 q 13 -168 13 -221 q 42 -78 13 -121 q 122 0 72 -35 l 164 0 q 94 -85 118 -46 q 71 -162 71 -124 q 99 -217 71 -199 q 171 -236 126 -236 q 196 -233 182 -236 l 188 -276 q 151 -279 171 -279 z "},"Ĩ":{"ha":286,"x_min":-21,"x_max":307,"o":"m 106 1125 l 181 1125 l 181 0 l 106 0 l 106 1125 m 215 1276 q 175 1285 193 1276 q 132 1313 157 1294 q 99 1335 111 1328 q 72 1342 86 1342 q 41 1328 53 1342 q 29 1288 29 1314 l -21 1288 q -2 1357 -21 1321 q 65 1393 17 1393 q 108 1383 89 1393 q 156 1356 128 1374 q 214 1328 190 1328 q 247 1342 236 1328 q 260 1390 258 1357 l 307 1390 q 288 1313 307 1350 q 215 1276 269 1276 z "},"J":{"ha":368,"x_min":11,"x_max":264,"o":"m 11 -3 q 132 13 96 -3 q 178 69 168 28 q 189 208 189 111 l 189 1125 l 264 1125 l 264 200 q 249 46 264 100 q 188 -35 233 -8 q 50 -62 143 -62 l 11 -62 l 11 -3 z "},"Ĵ":{"ha":368,"x_min":11,"x_max":390,"o":"m 11 -3 q 132 13 96 -3 q 178 69 168 28 q 189 208 189 111 l 189 1125 l 264 1125 l 264 200 q 249 46 264 100 q 188 -35 233 -8 q 50 -62 143 -62 l 11 -62 l 11 -3 m 181 1447 l 272 1447 l 390 1197 l 338 1197 l 226 1410 l 115 1197 l 61 1197 l 181 1447 z "},"K":{"ha":639,"x_min":103,"x_max":638,"o":"m 103 1125 l 179 1125 l 179 493 l 506 1125 l 581 1125 l 343 649 l 638 0 l 563 0 l 297 583 l 179 368 l 179 0 l 103 0 l 103 1125 z "},"Ķ":{"ha":639,"x_min":103,"x_max":638,"o":"m 103 1125 l 179 1125 l 179 493 l 506 1125 l 581 1125 l 343 649 l 638 0 l 563 0 l 297 583 l 179 368 l 179 0 l 103 0 l 103 1125 m 269 -304 q 314 -251 301 -283 q 326 -187 326 -218 l 278 -187 l 278 -83 l 368 -83 l 368 -169 q 351 -274 368 -236 q 288 -333 333 -311 l 269 -304 z "},"L":{"ha":518,"x_min":104,"x_max":519,"o":"m 104 1125 l 179 1125 l 179 60 l 519 60 l 519 0 l 104 0 l 104 1125 z "},"Ǉ":{"ha":886,"x_min":104,"x_max":782,"o":"m 104 1125 l 179 1125 l 179 60 l 519 60 l 519 0 l 104 0 l 104 1125 m 529 -3 q 650 13 614 -3 q 697 69 686 28 q 707 208 707 111 l 707 1125 l 782 1125 l 782 200 q 767 46 782 100 q 706 -35 751 -8 q 568 -62 661 -62 l 529 -62 l 529 -3 z "},"Ĺ":{"ha":518,"x_min":104,"x_max":519,"o":"m 104 1125 l 179 1125 l 179 60 l 519 60 l 519 0 l 104 0 l 104 1125 m 213 1461 l 288 1461 l 163 1192 l 124 1192 l 213 1461 z "},"Ľ":{"ha":518,"x_min":104,"x_max":519,"o":"m 104 1125 l 179 1125 l 179 60 l 519 60 l 519 0 l 104 0 l 104 1125 m 421 863 q 467 912 456 888 q 479 979 479 936 l 429 979 l 429 1125 l 518 1125 l 518 994 q 501 894 518 929 q 440 831 485 858 l 421 863 z "},"Ļ":{"ha":518,"x_min":104,"x_max":519,"o":"m 104 1125 l 179 1125 l 179 60 l 519 60 l 519 0 l 104 0 l 104 1125 m 263 -304 q 307 -251 294 -283 q 319 -187 319 -218 l 271 -187 l 271 -83 l 361 -83 l 361 -169 q 344 -274 361 -236 q 281 -333 326 -311 l 263 -304 z "},"Ŀ":{"ha":518,"x_min":104,"x_max":519,"o":"m 104 1125 l 179 1125 l 179 60 l 519 60 l 519 0 l 104 0 l 104 1125 m 367 644 l 435 644 l 435 540 l 367 540 l 367 644 z "},"ǈ":{"ha":799,"x_min":104,"x_max":704,"o":"m 104 1125 l 179 1125 l 179 60 l 519 60 l 519 0 l 104 0 l 104 1125 m 631 1036 l 704 1036 l 704 908 l 631 908 l 631 1036 m 538 -215 q 496 -212 507 -215 l 496 -153 q 529 -154 499 -154 q 613 -123 594 -154 q 631 -35 631 -92 l 631 803 l 704 803 l 704 -39 q 662 -174 704 -132 q 538 -215 619 -215 z "},"Ł":{"ha":518,"x_min":4,"x_max":519,"o":"m 104 567 l 4 515 l 4 576 l 104 628 l 104 1125 l 179 1125 l 179 668 l 349 756 l 349 694 l 179 607 l 179 60 l 519 60 l 519 0 l 104 0 l 104 567 z "},"M":{"ha":878,"x_min":90,"x_max":788,"o":"m 124 1125 l 199 1125 l 436 110 l 678 1125 l 756 1125 l 788 0 l 722 0 l 694 943 l 465 0 l 410 0 l 183 942 l 156 0 l 90 0 l 124 1125 z "},"Ṁ":{"ha":878,"x_min":90,"x_max":788,"o":"m 124 1125 l 199 1125 l 436 110 l 678 1125 l 756 1125 l 788 0 l 722 0 l 694 943 l 465 0 l 410 0 l 183 942 l 156 0 l 90 0 l 124 1125 m 397 1406 l 481 1406 l 481 1261 l 397 1261 l 397 1406 z "},"N":{"ha":715,"x_min":104,"x_max":613,"o":"m 104 1125 l 164 1125 l 546 175 l 546 1125 l 613 1125 l 613 0 l 553 0 l 171 951 l 171 0 l 104 0 l 104 1125 z "},"Ǌ":{"ha":1083,"x_min":104,"x_max":979,"o":"m 104 1125 l 164 1125 l 546 175 l 546 1125 l 613 1125 l 613 0 l 553 0 l 171 951 l 171 0 l 104 0 l 104 1125 m 726 -3 q 847 13 811 -3 q 894 69 883 28 q 904 208 904 111 l 904 1125 l 979 1125 l 979 200 q 964 46 979 100 q 903 -35 949 -8 q 765 -62 858 -62 l 726 -62 l 726 -3 z "},"Ń":{"ha":715,"x_min":104,"x_max":613,"o":"m 104 1125 l 164 1125 l 546 175 l 546 1125 l 613 1125 l 613 0 l 553 0 l 171 951 l 171 0 l 104 0 l 104 1125 m 429 1461 l 504 1461 l 379 1192 l 340 1192 l 429 1461 z "},"Ň":{"ha":715,"x_min":104,"x_max":613,"o":"m 104 1125 l 164 1125 l 546 175 l 546 1125 l 613 1125 l 613 0 l 553 0 l 171 951 l 171 0 l 104 0 l 104 1125 m 213 1447 l 275 1447 l 358 1278 l 442 1447 l 504 1447 l 386 1221 l 331 1221 l 213 1447 z "},"Ņ":{"ha":715,"x_min":104,"x_max":613,"o":"m 104 1125 l 164 1125 l 546 175 l 546 1125 l 613 1125 l 613 0 l 553 0 l 171 951 l 171 0 l 104 0 l 104 1125 m 308 -304 q 353 -251 340 -283 q 365 -187 365 -218 l 317 -187 l 317 -83 l 407 -83 l 407 -169 q 390 -274 407 -236 q 326 -333 372 -311 l 308 -304 z "},"Ŋ":{"ha":747,"x_min":104,"x_max":613,"o":"m 397 -143 q 491 -133 460 -144 q 534 -94 522 -121 q 546 -19 546 -68 l 546 17 l 168 951 l 168 0 l 104 0 l 104 1125 l 164 1125 l 549 175 l 549 1125 l 613 1125 l 613 0 q 576 -149 613 -103 q 439 -196 539 -196 l 397 -196 l 397 -143 z "},"ǋ":{"ha":996,"x_min":104,"x_max":901,"o":"m 104 1125 l 164 1125 l 546 175 l 546 1125 l 613 1125 l 613 0 l 553 0 l 171 951 l 171 0 l 104 0 l 104 1125 m 828 1036 l 901 1036 l 901 908 l 828 908 l 828 1036 m 735 -215 q 693 -212 704 -215 l 693 -153 q 726 -154 696 -154 q 810 -123 792 -154 q 828 -35 828 -92 l 828 803 l 901 803 l 901 -39 q 859 -174 901 -132 q 735 -215 817 -215 z "},"Ñ":{"ha":715,"x_min":104,"x_max":613,"o":"m 104 1125 l 164 1125 l 546 175 l 546 1125 l 613 1125 l 613 0 l 553 0 l 171 951 l 171 0 l 104 0 l 104 1125 m 431 1276 q 390 1285 408 1276 q 347 1313 372 1294 q 314 1335 326 1328 q 288 1342 301 1342 q 256 1328 268 1342 q 244 1288 244 1314 l 194 1288 q 213 1357 194 1321 q 281 1393 232 1393 q 324 1383 304 1393 q 371 1356 343 1374 q 429 1328 406 1328 q 463 1342 451 1328 q 475 1390 474 1357 l 522 1390 q 503 1313 522 1350 q 431 1276 485 1276 z "},"O":{"ha":717,"x_min":81,"x_max":636,"o":"m 358 -15 q 142 73 204 -15 q 81 319 81 161 l 81 811 q 144 1052 81 967 q 358 1138 207 1138 q 572 1051 508 1138 q 636 811 636 965 l 636 318 q 574 72 636 160 q 358 -15 513 -15 m 358 47 q 516 113 472 47 q 560 303 560 178 l 560 822 q 516 1011 560 947 q 358 1075 472 1075 q 201 1011 244 1075 q 157 822 157 947 l 157 303 q 201 112 157 176 q 358 47 244 47 z "},"Ó":{"ha":717,"x_min":81,"x_max":636,"o":"m 358 -15 q 142 73 204 -15 q 81 319 81 161 l 81 811 q 144 1052 81 967 q 358 1138 207 1138 q 572 1051 508 1138 q 636 811 636 965 l 636 318 q 574 72 636 160 q 358 -15 513 -15 m 358 47 q 516 113 472 47 q 560 303 560 178 l 560 822 q 516 1011 560 947 q 358 1075 472 1075 q 201 1011 244 1075 q 157 822 157 947 l 157 303 q 201 112 157 176 q 358 47 244 47 m 429 1461 l 504 1461 l 379 1192 l 340 1192 l 429 1461 z "},"Ŏ":{"ha":717,"x_min":81,"x_max":636,"o":"m 358 -15 q 142 73 204 -15 q 81 319 81 161 l 81 811 q 144 1052 81 967 q 358 1138 207 1138 q 572 1051 508 1138 q 636 811 636 965 l 636 318 q 574 72 636 160 q 358 -15 513 -15 m 358 47 q 516 113 472 47 q 560 303 560 178 l 560 822 q 516 1011 560 947 q 358 1075 472 1075 q 201 1011 244 1075 q 157 822 157 947 l 157 303 q 201 112 157 176 q 358 47 244 47 m 357 1210 q 244 1248 285 1210 q 200 1364 203 1286 l 251 1364 q 357 1257 253 1257 q 465 1364 458 1257 l 517 1364 q 472 1249 514 1288 q 357 1210 429 1210 z "},"Ô":{"ha":717,"x_min":81,"x_max":636,"o":"m 358 -15 q 142 73 204 -15 q 81 319 81 161 l 81 811 q 144 1052 81 967 q 358 1138 207 1138 q 572 1051 508 1138 q 636 811 636 965 l 636 318 q 574 72 636 160 q 358 -15 513 -15 m 358 47 q 516 113 472 47 q 560 303 560 178 l 560 822 q 516 1011 560 947 q 358 1075 472 1075 q 201 1011 244 1075 q 157 822 157 947 l 157 303 q 201 112 157 176 q 358 47 244 47 m 313 1447 l 404 1447 l 522 1197 l 469 1197 l 358 1410 l 247 1197 l 193 1197 l 313 1447 z "},"Ố":{"ha":717,"x_min":81,"x_max":647,"o":"m 358 -15 q 142 73 204 -15 q 81 319 81 161 l 81 811 q 144 1052 81 967 q 358 1138 207 1138 q 572 1051 508 1138 q 636 811 636 965 l 636 318 q 574 72 636 160 q 358 -15 513 -15 m 358 47 q 516 113 472 47 q 560 303 560 178 l 560 822 q 516 1011 560 947 q 358 1075 472 1075 q 201 1011 244 1075 q 157 822 157 947 l 157 303 q 201 112 157 176 q 358 47 244 47 m 575 1481 l 647 1481 l 554 1321 l 501 1321 l 575 1481 m 313 1392 l 404 1392 l 522 1197 l 469 1197 l 358 1357 l 247 1197 l 193 1197 l 313 1392 z "},"Ộ":{"ha":717,"x_min":81,"x_max":636,"o":"m 358 -15 q 142 73 204 -15 q 81 319 81 161 l 81 811 q 144 1052 81 967 q 358 1138 207 1138 q 572 1051 508 1138 q 636 811 636 965 l 636 318 q 574 72 636 160 q 358 -15 513 -15 m 358 47 q 516 113 472 47 q 560 303 560 178 l 560 822 q 516 1011 560 947 q 358 1075 472 1075 q 201 1011 244 1075 q 157 822 157 947 l 157 303 q 201 112 157 176 q 358 47 244 47 m 313 1392 l 404 1392 l 522 1197 l 469 1197 l 358 1357 l 247 1197 l 193 1197 l 313 1392 m 317 -83 l 400 -83 l 400 -187 l 317 -187 l 317 -83 z "},"Ồ":{"ha":717,"x_min":81,"x_max":636,"o":"m 358 -15 q 142 73 204 -15 q 81 319 81 161 l 81 811 q 144 1052 81 967 q 358 1138 207 1138 q 572 1051 508 1138 q 636 811 636 965 l 636 318 q 574 72 636 160 q 358 -15 513 -15 m 358 47 q 516 113 472 47 q 560 303 560 178 l 560 822 q 516 1011 560 947 q 358 1075 472 1075 q 201 1011 244 1075 q 157 822 157 947 l 157 303 q 201 112 157 176 q 358 47 244 47 m 444 1481 l 517 1481 l 590 1321 l 538 1321 l 444 1481 m 313 1392 l 404 1392 l 522 1197 l 469 1197 l 358 1357 l 247 1197 l 193 1197 l 313 1392 z "},"Ổ":{"ha":717,"x_min":81,"x_max":636,"o":"m 358 -15 q 142 73 204 -15 q 81 319 81 161 l 81 811 q 144 1052 81 967 q 358 1138 207 1138 q 572 1051 508 1138 q 636 811 636 965 l 636 318 q 574 72 636 160 q 358 -15 513 -15 m 358 47 q 516 113 472 47 q 560 303 560 178 l 560 822 q 516 1011 560 947 q 358 1075 472 1075 q 201 1011 244 1075 q 157 822 157 947 l 157 303 q 201 112 157 176 q 358 47 244 47 m 490 1351 q 539 1387 524 1369 q 554 1426 554 1404 q 494 1474 554 1474 q 432 1464 463 1474 l 432 1501 q 508 1514 471 1514 q 584 1492 557 1514 q 611 1431 611 1471 q 588 1367 611 1393 q 521 1319 564 1342 l 490 1351 m 313 1392 l 404 1392 l 522 1197 l 469 1197 l 358 1357 l 247 1197 l 193 1197 l 313 1392 z "},"Ỗ":{"ha":717,"x_min":81,"x_max":636,"o":"m 358 -15 q 142 73 204 -15 q 81 319 81 161 l 81 811 q 144 1052 81 967 q 358 1138 207 1138 q 572 1051 508 1138 q 636 811 636 965 l 636 318 q 574 72 636 160 q 358 -15 513 -15 m 358 47 q 516 113 472 47 q 560 303 560 178 l 560 822 q 516 1011 560 947 q 358 1075 472 1075 q 201 1011 244 1075 q 157 822 157 947 l 157 303 q 201 112 157 176 q 358 47 244 47 m 313 1392 l 404 1392 l 522 1197 l 469 1197 l 358 1357 l 247 1197 l 193 1197 l 313 1392 m 431 1461 q 390 1470 408 1461 q 347 1497 372 1479 q 314 1519 326 1513 q 288 1526 301 1526 q 256 1513 268 1526 q 244 1472 244 1499 l 194 1472 q 213 1542 194 1506 q 281 1578 232 1578 q 324 1568 304 1578 q 371 1540 343 1558 q 429 1513 406 1513 q 463 1527 451 1513 q 475 1575 474 1542 l 522 1575 q 503 1498 522 1535 q 431 1461 485 1461 z "},"Ȍ":{"ha":717,"x_min":81,"x_max":636,"o":"m 358 -15 q 142 73 204 -15 q 81 319 81 161 l 81 811 q 144 1052 81 967 q 358 1138 207 1138 q 572 1051 508 1138 q 636 811 636 965 l 636 318 q 574 72 636 160 q 358 -15 513 -15 m 358 47 q 516 113 472 47 q 560 303 560 178 l 560 822 q 516 1011 560 947 q 358 1075 472 1075 q 201 1011 244 1075 q 157 822 157 947 l 157 303 q 201 112 157 176 q 358 47 244 47 m 143 1447 l 225 1447 l 303 1243 l 263 1243 l 143 1447 m 306 1447 l 378 1447 l 436 1243 l 399 1243 l 306 1447 z "},"Ö":{"ha":717,"x_min":81,"x_max":636,"o":"m 358 -15 q 142 73 204 -15 q 81 319 81 161 l 81 811 q 144 1052 81 967 q 358 1138 207 1138 q 572 1051 508 1138 q 636 811 636 965 l 636 318 q 574 72 636 160 q 358 -15 513 -15 m 358 47 q 516 113 472 47 q 560 303 560 178 l 560 822 q 516 1011 560 947 q 358 1075 472 1075 q 201 1011 244 1075 q 157 822 157 947 l 157 303 q 201 112 157 176 q 358 47 244 47 m 210 1447 l 286 1447 l 286 1342 l 210 1342 l 210 1447 m 432 1447 l 510 1447 l 510 1342 l 432 1342 l 432 1447 z "},"Ȫ":{"ha":717,"x_min":81,"x_max":636,"o":"m 358 -15 q 142 73 204 -15 q 81 319 81 161 l 81 811 q 144 1052 81 967 q 358 1138 207 1138 q 572 1051 508 1138 q 636 811 636 965 l 636 318 q 574 72 636 160 q 358 -15 513 -15 m 358 47 q 516 113 472 47 q 560 303 560 178 l 560 822 q 516 1011 560 947 q 358 1075 472 1075 q 201 1011 244 1075 q 157 822 157 947 l 157 303 q 201 112 157 176 q 358 47 244 47 m 210 1447 l 286 1447 l 286 1342 l 210 1342 l 210 1447 m 432 1447 l 510 1447 l 510 1342 l 432 1342 l 432 1447 m 239 1672 l 478 1672 l 478 1617 l 239 1617 l 239 1672 z "},"Ȱ":{"ha":717,"x_min":81,"x_max":636,"o":"m 358 -15 q 142 73 204 -15 q 81 319 81 161 l 81 811 q 144 1052 81 967 q 358 1138 207 1138 q 572 1051 508 1138 q 636 811 636 965 l 636 318 q 574 72 636 160 q 358 -15 513 -15 m 358 47 q 516 113 472 47 q 560 303 560 178 l 560 822 q 516 1011 560 947 q 358 1075 472 1075 q 201 1011 244 1075 q 157 822 157 947 l 157 303 q 201 112 157 176 q 358 47 244 47 m 317 1406 l 400 1406 l 400 1261 l 317 1261 l 317 1406 m 239 1631 l 478 1631 l 478 1575 l 239 1575 l 239 1631 z "},"Ọ":{"ha":717,"x_min":81,"x_max":636,"o":"m 358 -15 q 142 73 204 -15 q 81 319 81 161 l 81 811 q 144 1052 81 967 q 358 1138 207 1138 q 572 1051 508 1138 q 636 811 636 965 l 636 318 q 574 72 636 160 q 358 -15 513 -15 m 358 47 q 516 113 472 47 q 560 303 560 178 l 560 822 q 516 1011 560 947 q 358 1075 472 1075 q 201 1011 244 1075 q 157 822 157 947 l 157 303 q 201 112 157 176 q 358 47 244 47 m 317 -83 l 400 -83 l 400 -187 l 317 -187 l 317 -83 z "},"Ò":{"ha":717,"x_min":81,"x_max":636,"o":"m 358 -15 q 142 73 204 -15 q 81 319 81 161 l 81 811 q 144 1052 81 967 q 358 1138 207 1138 q 572 1051 508 1138 q 636 811 636 965 l 636 318 q 574 72 636 160 q 358 -15 513 -15 m 358 47 q 516 113 472 47 q 560 303 560 178 l 560 822 q 516 1011 560 947 q 358 1075 472 1075 q 201 1011 244 1075 q 157 822 157 947 l 157 303 q 201 112 157 176 q 358 47 244 47 m 225 1461 l 300 1461 l 375 1192 l 338 1192 l 225 1461 z "},"Ỏ":{"ha":717,"x_min":81,"x_max":636,"o":"m 358 -15 q 142 73 204 -15 q 81 319 81 161 l 81 811 q 144 1052 81 967 q 358 1138 207 1138 q 572 1051 508 1138 q 636 811 636 965 l 636 318 q 574 72 636 160 q 358 -15 513 -15 m 358 47 q 516 113 472 47 q 560 303 560 178 l 560 822 q 516 1011 560 947 q 358 1075 472 1075 q 201 1011 244 1075 q 157 822 157 947 l 157 303 q 201 112 157 176 q 358 47 244 47 m 326 1271 q 377 1307 361 1290 q 393 1346 393 1324 q 378 1382 393 1371 q 329 1393 363 1393 q 268 1386 306 1393 l 268 1425 q 342 1433 306 1433 q 450 1350 450 1433 q 426 1287 450 1313 q 357 1239 401 1261 l 326 1271 z "},"Ơ":{"ha":717,"x_min":81,"x_max":636,"o":"m 532 1090 q 636 811 636 1014 l 636 318 q 574 72 636 160 q 358 -15 513 -15 q 142 73 204 -15 q 81 319 81 161 l 81 811 q 144 1052 81 967 q 358 1138 207 1138 q 458 1125 414 1138 l 463 1125 q 520 1146 503 1125 q 538 1213 538 1167 l 594 1213 q 532 1090 594 1121 m 560 822 q 516 1011 560 947 q 358 1075 472 1075 q 201 1011 244 1075 q 157 822 157 947 l 157 303 q 201 112 157 176 q 358 47 244 47 q 516 113 472 47 q 560 303 560 178 l 560 822 z "},"Ớ":{"ha":717,"x_min":81,"x_max":636,"o":"m 532 1090 q 636 811 636 1014 l 636 318 q 574 72 636 160 q 358 -15 513 -15 q 142 73 204 -15 q 81 319 81 161 l 81 811 q 144 1052 81 967 q 358 1138 207 1138 q 458 1125 414 1138 l 463 1125 q 520 1146 503 1125 q 538 1213 538 1167 l 594 1213 q 532 1090 594 1121 m 560 822 q 516 1011 560 947 q 358 1075 472 1075 q 201 1011 244 1075 q 157 822 157 947 l 157 303 q 201 112 157 176 q 358 47 244 47 q 516 113 472 47 q 560 303 560 178 l 560 822 m 429 1461 l 504 1461 l 379 1192 l 340 1192 l 429 1461 z "},"Ợ":{"ha":717,"x_min":81,"x_max":636,"o":"m 532 1090 q 636 811 636 1014 l 636 318 q 574 72 636 160 q 358 -15 513 -15 q 142 73 204 -15 q 81 319 81 161 l 81 811 q 144 1052 81 967 q 358 1138 207 1138 q 458 1125 414 1138 l 463 1125 q 520 1146 503 1125 q 538 1213 538 1167 l 594 1213 q 532 1090 594 1121 m 560 822 q 516 1011 560 947 q 358 1075 472 1075 q 201 1011 244 1075 q 157 822 157 947 l 157 303 q 201 112 157 176 q 358 47 244 47 q 516 113 472 47 q 560 303 560 178 l 560 822 m 317 -83 l 400 -83 l 400 -187 l 317 -187 l 317 -83 z "},"Ờ":{"ha":717,"x_min":81,"x_max":636,"o":"m 532 1090 q 636 811 636 1014 l 636 318 q 574 72 636 160 q 358 -15 513 -15 q 142 73 204 -15 q 81 319 81 161 l 81 811 q 144 1052 81 967 q 358 1138 207 1138 q 458 1125 414 1138 l 463 1125 q 520 1146 503 1125 q 538 1213 538 1167 l 594 1213 q 532 1090 594 1121 m 560 822 q 516 1011 560 947 q 358 1075 472 1075 q 201 1011 244 1075 q 157 822 157 947 l 157 303 q 201 112 157 176 q 358 47 244 47 q 516 113 472 47 q 560 303 560 178 l 560 822 m 225 1461 l 300 1461 l 375 1192 l 338 1192 l 225 1461 z "},"Ở":{"ha":717,"x_min":81,"x_max":636,"o":"m 532 1090 q 636 811 636 1014 l 636 318 q 574 72 636 160 q 358 -15 513 -15 q 142 73 204 -15 q 81 319 81 161 l 81 811 q 144 1052 81 967 q 358 1138 207 1138 q 458 1125 414 1138 l 463 1125 q 520 1146 503 1125 q 538 1213 538 1167 l 594 1213 q 532 1090 594 1121 m 560 822 q 516 1011 560 947 q 358 1075 472 1075 q 201 1011 244 1075 q 157 822 157 947 l 157 303 q 201 112 157 176 q 358 47 244 47 q 516 113 472 47 q 560 303 560 178 l 560 822 m 326 1271 q 377 1307 361 1290 q 393 1346 393 1324 q 378 1382 393 1371 q 329 1393 363 1393 q 268 1386 306 1393 l 268 1425 q 342 1433 306 1433 q 450 1350 450 1433 q 426 1287 450 1313 q 357 1239 401 1261 l 326 1271 z "},"Ỡ":{"ha":717,"x_min":81,"x_max":636,"o":"m 532 1090 q 636 811 636 1014 l 636 318 q 574 72 636 160 q 358 -15 513 -15 q 142 73 204 -15 q 81 319 81 161 l 81 811 q 144 1052 81 967 q 358 1138 207 1138 q 458 1125 414 1138 l 463 1125 q 520 1146 503 1125 q 538 1213 538 1167 l 594 1213 q 532 1090 594 1121 m 560 822 q 516 1011 560 947 q 358 1075 472 1075 q 201 1011 244 1075 q 157 822 157 947 l 157 303 q 201 112 157 176 q 358 47 244 47 q 516 113 472 47 q 560 303 560 178 l 560 822 m 431 1276 q 390 1285 408 1276 q 347 1313 372 1294 q 314 1335 326 1328 q 288 1342 301 1342 q 256 1328 268 1342 q 244 1288 244 1314 l 194 1288 q 213 1357 194 1321 q 281 1393 232 1393 q 324 1383 304 1393 q 371 1356 343 1374 q 429 1328 406 1328 q 463 1342 451 1328 q 475 1390 474 1357 l 522 1390 q 503 1313 522 1350 q 431 1276 485 1276 z "},"Ő":{"ha":717,"x_min":81,"x_max":636,"o":"m 358 -15 q 142 73 204 -15 q 81 319 81 161 l 81 811 q 144 1052 81 967 q 358 1138 207 1138 q 572 1051 508 1138 q 636 811 636 965 l 636 318 q 574 72 636 160 q 358 -15 513 -15 m 358 47 q 516 113 472 47 q 560 303 560 178 l 560 822 q 516 1011 560 947 q 358 1075 472 1075 q 201 1011 244 1075 q 157 822 157 947 l 157 303 q 201 112 157 176 q 358 47 244 47 m 339 1461 l 413 1461 l 326 1249 l 286 1249 l 339 1461 m 483 1461 l 569 1461 l 451 1249 l 408 1249 l 483 1461 z "},"Ȏ":{"ha":717,"x_min":81,"x_max":636,"o":"m 358 -15 q 142 73 204 -15 q 81 319 81 161 l 81 811 q 144 1052 81 967 q 358 1138 207 1138 q 572 1051 508 1138 q 636 811 636 965 l 636 318 q 574 72 636 160 q 358 -15 513 -15 m 358 47 q 516 113 472 47 q 560 303 560 178 l 560 822 q 516 1011 560 947 q 358 1075 472 1075 q 201 1011 244 1075 q 157 822 157 947 l 157 303 q 201 112 157 176 q 358 47 244 47 m 200 1293 q 245 1408 203 1369 q 358 1447 288 1447 q 472 1408 431 1447 q 517 1293 514 1369 l 465 1293 q 358 1399 461 1399 q 251 1293 257 1399 l 200 1293 z "},"Ō":{"ha":717,"x_min":81,"x_max":636,"o":"m 358 -15 q 142 73 204 -15 q 81 319 81 161 l 81 811 q 144 1052 81 967 q 358 1138 207 1138 q 572 1051 508 1138 q 636 811 636 965 l 636 318 q 574 72 636 160 q 358 -15 513 -15 m 358 47 q 516 113 472 47 q 560 303 560 178 l 560 822 q 516 1011 560 947 q 358 1075 472 1075 q 201 1011 244 1075 q 157 822 157 947 l 157 303 q 201 112 157 176 q 358 47 244 47 m 239 1350 l 478 1350 l 478 1294 l 239 1294 l 239 1350 z "},"Ǫ":{"ha":717,"x_min":81,"x_max":636,"o":"m 358 1138 q 572 1051 508 1138 q 636 811 636 965 l 636 318 q 590 95 636 179 q 432 -10 544 11 q 369 -88 390 -51 q 347 -162 347 -125 q 375 -217 347 -199 q 447 -236 403 -236 q 472 -233 458 -236 l 464 -276 q 428 -279 447 -279 q 326 -250 364 -279 q 289 -168 289 -221 q 379 -15 289 -86 l 358 -15 q 142 73 204 -15 q 81 319 81 161 l 81 811 q 144 1052 81 967 q 358 1138 207 1138 m 560 822 q 516 1011 560 947 q 358 1075 472 1075 q 201 1011 244 1075 q 157 822 157 947 l 157 303 q 201 112 157 176 q 358 47 244 47 q 516 113 472 47 q 560 303 560 178 l 560 822 z "},"Ø":{"ha":726,"x_min":81,"x_max":636,"o":"m 532 1090 q 636 811 636 1014 l 636 318 q 574 72 636 160 q 358 -15 513 -15 q 221 11 278 -15 l 179 -132 l 144 -121 l 188 29 q 106 143 131 69 q 81 319 81 217 l 81 811 q 144 1052 81 967 q 358 1138 207 1138 q 500 1110 442 1138 l 539 1244 l 574 1235 l 532 1090 m 157 303 q 169 185 157 235 q 208 101 181 135 l 481 1044 q 358 1075 435 1075 q 201 1011 244 1075 q 157 822 157 947 l 157 303 m 560 822 q 549 938 560 889 q 511 1018 538 986 l 239 76 q 358 47 283 47 q 516 113 472 47 q 560 303 560 178 l 560 822 z "},"Ǿ":{"ha":726,"x_min":81,"x_max":636,"o":"m 532 1090 q 636 811 636 1014 l 636 318 q 574 72 636 160 q 358 -15 513 -15 q 221 11 278 -15 l 179 -132 l 144 -121 l 188 29 q 106 143 131 69 q 81 319 81 217 l 81 811 q 144 1052 81 967 q 358 1138 207 1138 q 500 1110 442 1138 l 539 1244 l 574 1235 l 532 1090 m 157 303 q 169 185 157 235 q 208 101 181 135 l 481 1044 q 358 1075 435 1075 q 201 1011 244 1075 q 157 822 157 947 l 157 303 m 560 822 q 549 938 560 889 q 511 1018 538 986 l 239 76 q 358 47 283 47 q 516 113 472 47 q 560 303 560 178 l 560 822 m 435 1461 l 510 1461 l 385 1192 l 346 1192 l 435 1461 z "},"Õ":{"ha":717,"x_min":81,"x_max":636,"o":"m 358 -15 q 142 73 204 -15 q 81 319 81 161 l 81 811 q 144 1052 81 967 q 358 1138 207 1138 q 572 1051 508 1138 q 636 811 636 965 l 636 318 q 574 72 636 160 q 358 -15 513 -15 m 358 47 q 516 113 472 47 q 560 303 560 178 l 560 822 q 516 1011 560 947 q 358 1075 472 1075 q 201 1011 244 1075 q 157 822 157 947 l 157 303 q 201 112 157 176 q 358 47 244 47 m 431 1276 q 390 1285 408 1276 q 347 1313 372 1294 q 314 1335 326 1328 q 288 1342 301 1342 q 256 1328 268 1342 q 244 1288 244 1314 l 194 1288 q 213 1357 194 1321 q 281 1393 232 1393 q 324 1383 304 1393 q 371 1356 343 1374 q 429 1328 406 1328 q 463 1342 451 1328 q 475 1390 474 1357 l 522 1390 q 503 1313 522 1350 q 431 1276 485 1276 z "},"Ȭ":{"ha":717,"x_min":81,"x_max":636,"o":"m 358 -15 q 142 73 204 -15 q 81 319 81 161 l 81 811 q 144 1052 81 967 q 358 1138 207 1138 q 572 1051 508 1138 q 636 811 636 965 l 636 318 q 574 72 636 160 q 358 -15 513 -15 m 358 47 q 516 113 472 47 q 560 303 560 178 l 560 822 q 516 1011 560 947 q 358 1075 472 1075 q 201 1011 244 1075 q 157 822 157 947 l 157 303 q 201 112 157 176 q 358 47 244 47 m 431 1276 q 390 1285 408 1276 q 347 1313 372 1294 q 314 1335 326 1328 q 288 1342 301 1342 q 256 1328 268 1342 q 244 1288 244 1314 l 194 1288 q 213 1357 194 1321 q 281 1393 232 1393 q 324 1383 304 1393 q 371 1356 343 1374 q 429 1328 406 1328 q 463 1342 451 1328 q 475 1390 474 1357 l 522 1390 q 503 1313 522 1350 q 431 1276 485 1276 m 239 1675 l 478 1675 l 478 1619 l 239 1619 l 239 1675 z "},"Œ":{"ha":861,"x_min":81,"x_max":819,"o":"m 371 0 q 146 84 211 0 q 81 318 81 168 l 81 801 q 147 1040 81 954 q 367 1125 214 1125 l 818 1125 l 818 1063 l 546 1063 l 546 618 l 774 618 l 774 558 l 546 558 l 546 63 l 819 63 l 819 0 l 371 0 m 469 64 l 469 1063 l 371 1063 q 201 996 247 1063 q 156 797 156 929 l 156 318 q 203 128 156 192 q 371 64 250 64 l 469 64 z "},"P":{"ha":674,"x_min":104,"x_max":629,"o":"m 104 1125 l 368 1125 q 570 1049 511 1125 q 629 835 629 972 q 569 622 629 706 q 369 538 508 538 l 179 538 l 179 0 l 104 0 l 104 1125 m 353 596 q 504 651 457 596 q 551 835 551 706 q 532 975 551 925 q 470 1046 513 1025 q 354 1067 428 1067 l 179 1067 l 179 596 l 353 596 z "},"Ṗ":{"ha":674,"x_min":104,"x_max":629,"o":"m 104 1125 l 368 1125 q 570 1049 511 1125 q 629 835 629 972 q 569 622 629 706 q 369 538 508 538 l 179 538 l 179 0 l 104 0 l 104 1125 m 353 596 q 504 651 457 596 q 551 835 551 706 q 532 975 551 925 q 470 1046 513 1025 q 354 1067 428 1067 l 179 1067 l 179 596 l 353 596 m 296 1406 l 379 1406 l 379 1261 l 296 1261 l 296 1406 z "},"Þ":{"ha":701,"x_min":104,"x_max":656,"o":"m 104 1125 l 179 1125 l 179 981 l 390 981 q 592 894 529 981 q 656 674 656 808 q 594 443 656 539 q 383 347 533 347 l 179 347 l 179 0 l 104 0 l 104 1125 m 372 414 q 528 475 478 414 q 578 671 578 536 q 378 915 578 915 l 179 915 l 179 414 l 372 414 z "},"Q":{"ha":726,"x_min":81,"x_max":646,"o":"m 596 -217 q 508 -143 558 -197 q 404 -12 458 -89 q 363 -15 376 -15 q 144 73 208 -15 q 81 319 81 161 l 81 811 q 146 1051 81 965 q 363 1138 211 1138 q 580 1051 514 1138 q 646 811 646 965 l 646 318 q 603 106 646 189 q 463 -1 561 24 q 535 -87 493 -42 q 603 -149 578 -132 l 596 -217 m 363 47 q 523 113 476 47 q 569 303 569 179 l 569 822 q 524 1010 569 946 q 363 1075 478 1075 q 203 1010 249 1075 q 157 822 157 946 l 157 303 q 203 113 157 178 q 363 47 249 47 z "},"R":{"ha":706,"x_min":104,"x_max":639,"o":"m 104 1125 l 376 1125 q 569 1051 515 1125 q 624 847 624 978 q 588 667 624 738 q 458 581 553 596 l 639 0 l 564 0 l 389 567 l 179 567 l 179 0 l 104 0 l 104 1125 m 374 625 q 513 680 475 625 q 550 847 550 735 q 512 1013 550 961 q 372 1065 474 1065 l 179 1065 l 179 625 l 374 625 z "},"Ŕ":{"ha":706,"x_min":104,"x_max":639,"o":"m 104 1125 l 376 1125 q 569 1051 515 1125 q 624 847 624 978 q 588 667 624 738 q 458 581 553 596 l 639 0 l 564 0 l 389 567 l 179 567 l 179 0 l 104 0 l 104 1125 m 374 625 q 513 680 475 625 q 550 847 550 735 q 512 1013 550 961 q 372 1065 474 1065 l 179 1065 l 179 625 l 374 625 m 424 1461 l 499 1461 l 374 1192 l 335 1192 l 424 1461 z "},"Ř":{"ha":706,"x_min":104,"x_max":639,"o":"m 104 1125 l 376 1125 q 569 1051 515 1125 q 624 847 624 978 q 588 667 624 738 q 458 581 553 596 l 639 0 l 564 0 l 389 567 l 179 567 l 179 0 l 104 0 l 104 1125 m 374 625 q 513 680 475 625 q 550 847 550 735 q 512 1013 550 961 q 372 1065 474 1065 l 179 1065 l 179 625 l 374 625 m 207 1447 l 269 1447 l 353 1278 l 436 1447 l 499 1447 l 381 1221 l 325 1221 l 207 1447 z "},"Ŗ":{"ha":706,"x_min":104,"x_max":639,"o":"m 104 1125 l 376 1125 q 569 1051 515 1125 q 624 847 624 978 q 588 667 624 738 q 458 581 553 596 l 639 0 l 564 0 l 389 567 l 179 567 l 179 0 l 104 0 l 104 1125 m 374 625 q 513 680 475 625 q 550 847 550 735 q 512 1013 550 961 q 372 1065 474 1065 l 179 1065 l 179 625 l 374 625 m 303 -304 q 347 -251 335 -283 q 360 -187 360 -218 l 311 -187 l 311 -83 l 401 -83 l 401 -169 q 384 -274 401 -236 q 321 -333 367 -311 l 303 -304 z "},"Ȑ":{"ha":706,"x_min":104,"x_max":639,"o":"m 104 1125 l 376 1125 q 569 1051 515 1125 q 624 847 624 978 q 588 667 624 738 q 458 581 553 596 l 639 0 l 564 0 l 389 567 l 179 567 l 179 0 l 104 0 l 104 1125 m 374 625 q 513 680 475 625 q 550 847 550 735 q 512 1013 550 961 q 372 1065 474 1065 l 179 1065 l 179 625 l 374 625 m 138 1447 l 219 1447 l 297 1243 l 257 1243 l 138 1447 m 300 1447 l 372 1447 l 431 1243 l 393 1243 l 300 1447 z "},"Ȓ":{"ha":706,"x_min":104,"x_max":639,"o":"m 104 1125 l 376 1125 q 569 1051 515 1125 q 624 847 624 978 q 588 667 624 738 q 458 581 553 596 l 639 0 l 564 0 l 389 567 l 179 567 l 179 0 l 104 0 l 104 1125 m 374 625 q 513 680 475 625 q 550 847 550 735 q 512 1013 550 961 q 372 1065 474 1065 l 179 1065 l 179 625 l 374 625 m 194 1293 q 240 1408 197 1369 q 353 1447 282 1447 q 467 1408 425 1447 q 511 1293 508 1369 l 460 1293 q 353 1399 456 1399 q 246 1293 251 1399 l 194 1293 z "},"S":{"ha":628,"x_min":58,"x_max":581,"o":"m 329 -14 q 58 278 81 -14 l 124 299 q 184 111 140 174 q 331 49 228 49 q 510 229 510 49 q 475 356 510 299 q 364 489 440 413 l 158 693 q 60 907 60 792 q 127 1076 60 1017 q 307 1138 194 1136 q 493 1073 428 1138 q 568 856 558 1008 l 504 840 q 451 1019 494 961 q 315 1076 408 1076 q 180 1036 231 1076 q 129 913 129 996 q 148 828 129 868 q 211 742 167 788 l 414 542 q 536 390 492 465 q 581 233 581 315 q 513 49 581 111 q 329 -14 444 -14 z "},"Ś":{"ha":628,"x_min":58,"x_max":581,"o":"m 329 -14 q 58 278 81 -14 l 124 299 q 184 111 140 174 q 331 49 228 49 q 510 229 510 49 q 475 356 510 299 q 364 489 440 413 l 158 693 q 60 907 60 792 q 127 1076 60 1017 q 307 1138 194 1136 q 493 1073 428 1138 q 568 856 558 1008 l 504 840 q 451 1019 494 961 q 315 1076 408 1076 q 180 1036 231 1076 q 129 913 129 996 q 148 828 129 868 q 211 742 167 788 l 414 542 q 536 390 492 465 q 581 233 581 315 q 513 49 581 111 q 329 -14 444 -14 m 385 1461 l 460 1461 l 335 1192 l 296 1192 l 385 1461 z "},"Š":{"ha":628,"x_min":58,"x_max":581,"o":"m 329 -14 q 58 278 81 -14 l 124 299 q 184 111 140 174 q 331 49 228 49 q 510 229 510 49 q 475 356 510 299 q 364 489 440 413 l 158 693 q 60 907 60 792 q 127 1076 60 1017 q 307 1138 194 1136 q 493 1073 428 1138 q 568 856 558 1008 l 504 840 q 451 1019 494 961 q 315 1076 408 1076 q 180 1036 231 1076 q 129 913 129 996 q 148 828 129 868 q 211 742 167 788 l 414 542 q 536 390 492 465 q 581 233 581 315 q 513 49 581 111 q 329 -14 444 -14 m 168 1447 l 231 1447 l 314 1278 l 397 1447 l 460 1447 l 342 1221 l 286 1221 l 168 1447 z "},"Ş":{"ha":628,"x_min":58,"x_max":581,"o":"m 581 233 q 513 49 581 111 q 333 -14 446 -12 l 333 -65 q 444 -160 444 -71 q 410 -233 444 -208 q 308 -258 375 -258 q 263 -256 293 -258 l 263 -215 q 293 -218 285 -218 q 365 -204 342 -218 q 388 -160 388 -190 q 363 -113 388 -131 q 293 -92 339 -96 l 293 -12 q 58 278 79 8 l 124 299 q 184 111 140 174 q 331 49 228 49 q 510 229 510 49 q 475 356 510 299 q 364 489 440 413 l 158 693 q 60 907 60 792 q 127 1076 60 1017 q 307 1138 194 1136 q 493 1073 428 1138 q 568 856 558 1008 l 504 840 q 451 1019 494 961 q 315 1076 408 1076 q 180 1036 231 1076 q 129 913 129 996 q 148 828 129 868 q 211 742 167 788 l 414 542 q 536 390 492 465 q 581 233 581 315 z "},"Ŝ":{"ha":628,"x_min":58,"x_max":581,"o":"m 329 -14 q 58 278 81 -14 l 124 299 q 184 111 140 174 q 331 49 228 49 q 510 229 510 49 q 475 356 510 299 q 364 489 440 413 l 158 693 q 60 907 60 792 q 127 1076 60 1017 q 307 1138 194 1136 q 493 1073 428 1138 q 568 856 558 1008 l 504 840 q 451 1019 494 961 q 315 1076 408 1076 q 180 1036 231 1076 q 129 913 129 996 q 148 828 129 868 q 211 742 167 788 l 414 542 q 536 390 492 465 q 581 233 581 315 q 513 49 581 111 q 329 -14 444 -14 m 268 1447 l 360 1447 l 478 1197 l 425 1197 l 314 1410 l 203 1197 l 149 1197 l 268 1447 z "},"Ș":{"ha":628,"x_min":58,"x_max":581,"o":"m 329 -14 q 58 278 81 -14 l 124 299 q 184 111 140 174 q 331 49 228 49 q 510 229 510 49 q 475 356 510 299 q 364 489 440 413 l 158 693 q 60 907 60 792 q 127 1076 60 1017 q 307 1138 194 1136 q 493 1073 428 1138 q 568 856 558 1008 l 504 840 q 451 1019 494 961 q 315 1076 408 1076 q 180 1036 231 1076 q 129 913 129 996 q 148 828 129 868 q 211 742 167 788 l 414 542 q 536 390 492 465 q 581 233 581 315 q 513 49 581 111 q 329 -14 444 -14 m 264 -304 q 308 -251 296 -283 q 321 -187 321 -218 l 272 -187 l 272 -83 l 363 -83 l 363 -169 q 345 -274 363 -236 q 282 -333 328 -311 l 264 -304 z "},"Ṡ":{"ha":628,"x_min":58,"x_max":581,"o":"m 329 -14 q 58 278 81 -14 l 124 299 q 184 111 140 174 q 331 49 228 49 q 510 229 510 49 q 475 356 510 299 q 364 489 440 413 l 158 693 q 60 907 60 792 q 127 1076 60 1017 q 307 1138 194 1136 q 493 1073 428 1138 q 568 856 558 1008 l 504 840 q 451 1019 494 961 q 315 1076 408 1076 q 180 1036 231 1076 q 129 913 129 996 q 148 828 129 868 q 211 742 167 788 l 414 542 q 536 390 492 465 q 581 233 581 315 q 513 49 581 111 q 329 -14 444 -14 m 272 1406 l 356 1406 l 356 1261 l 272 1261 l 272 1406 z "},"ẞ":{"ha":692,"x_min":86,"x_max":642,"o":"m 392 650 q 579 556 517 640 q 642 319 642 472 q 574 72 642 156 q 381 -12 507 -12 l 306 -12 l 306 50 l 353 50 q 514 112 463 50 q 565 315 565 174 q 513 528 565 463 q 353 593 461 593 l 321 593 l 319 656 l 556 1036 q 382 1075 481 1075 q 221 1017 279 1075 q 163 850 163 960 l 163 0 l 86 0 l 86 843 q 162 1058 86 978 q 375 1138 238 1138 q 619 1081 508 1138 l 619 1018 l 392 650 z "},"Ə":{"ha":711,"x_min":75,"x_max":631,"o":"m 353 -15 q 137 73 199 -15 q 75 319 75 161 l 75 585 l 554 585 l 554 822 q 510 1011 554 947 q 353 1075 467 1075 q 195 1011 239 1075 q 151 822 151 947 l 151 714 l 75 714 l 75 811 q 138 1052 75 967 q 353 1138 201 1138 q 567 1051 503 1138 q 631 811 631 965 l 631 318 q 569 72 631 160 q 353 -15 507 -15 m 353 47 q 510 113 467 47 q 554 303 554 178 l 554 522 l 151 522 l 151 303 q 195 112 151 176 q 353 47 239 47 z "},"T":{"ha":528,"x_min":-10,"x_max":538,"o":"m 229 1064 l -10 1064 l -10 1125 l 538 1125 l 538 1064 l 304 1064 l 304 0 l 229 0 l 229 1064 z "},"Ŧ":{"ha":528,"x_min":-10,"x_max":538,"o":"m 304 1064 l 304 631 l 465 631 l 465 579 l 304 579 l 304 0 l 229 0 l 229 579 l 58 579 l 58 631 l 229 631 l 229 1064 l -10 1064 l -10 1125 l 538 1125 l 538 1064 l 304 1064 z "},"Ť":{"ha":528,"x_min":-10,"x_max":538,"o":"m 229 1064 l -10 1064 l -10 1125 l 538 1125 l 538 1064 l 304 1064 l 304 0 l 229 0 l 229 1064 m 118 1447 l 181 1447 l 264 1278 l 347 1447 l 410 1447 l 292 1221 l 236 1221 l 118 1447 z "},"Ţ":{"ha":528,"x_min":-10,"x_max":538,"o":"m 229 1064 l -10 1064 l -10 1125 l 538 1125 l 538 1064 l 304 1064 l 304 0 l 229 0 l 229 1064 m 258 -258 q 213 -256 243 -258 l 213 -215 q 243 -218 235 -218 q 315 -204 292 -218 q 338 -160 338 -190 q 313 -113 338 -131 q 243 -92 289 -96 l 243 0 l 283 0 l 283 -65 q 394 -160 394 -71 q 360 -233 394 -208 q 258 -258 325 -258 z "},"Ț":{"ha":528,"x_min":-10,"x_max":538,"o":"m 229 1064 l -10 1064 l -10 1125 l 538 1125 l 538 1064 l 304 1064 l 304 0 l 229 0 l 229 1064 m 214 -304 q 258 -251 246 -283 q 271 -187 271 -218 l 222 -187 l 222 -83 l 313 -83 l 313 -169 q 295 -274 313 -236 q 232 -333 278 -311 l 214 -304 z "},"Ṫ":{"ha":528,"x_min":-10,"x_max":538,"o":"m 229 1064 l -10 1064 l -10 1125 l 538 1125 l 538 1064 l 304 1064 l 304 0 l 229 0 l 229 1064 m 222 1406 l 306 1406 l 306 1261 l 222 1261 l 222 1406 z "},"U":{"ha":740,"x_min":90,"x_max":650,"o":"m 371 -15 q 153 58 217 -15 q 90 264 90 132 l 90 1125 l 165 1125 l 165 263 q 211 103 165 160 q 371 47 257 47 q 528 106 479 47 q 576 263 576 164 l 576 1125 l 650 1125 l 650 264 q 585 60 650 135 q 371 -15 519 -15 z "},"Ú":{"ha":740,"x_min":90,"x_max":650,"o":"m 371 -15 q 153 58 217 -15 q 90 264 90 132 l 90 1125 l 165 1125 l 165 263 q 211 103 165 160 q 371 47 257 47 q 528 106 479 47 q 576 263 576 164 l 576 1125 l 650 1125 l 650 264 q 585 60 650 135 q 371 -15 519 -15 m 442 1461 l 517 1461 l 392 1192 l 353 1192 l 442 1461 z "},"Ŭ":{"ha":740,"x_min":90,"x_max":650,"o":"m 371 -15 q 153 58 217 -15 q 90 264 90 132 l 90 1125 l 165 1125 l 165 263 q 211 103 165 160 q 371 47 257 47 q 528 106 479 47 q 576 263 576 164 l 576 1125 l 650 1125 l 650 264 q 585 60 650 135 q 371 -15 519 -15 m 369 1210 q 256 1248 297 1210 q 213 1364 215 1286 l 264 1364 q 369 1257 265 1257 q 478 1364 471 1257 l 529 1364 q 484 1249 526 1288 q 369 1210 442 1210 z "},"Û":{"ha":740,"x_min":90,"x_max":650,"o":"m 371 -15 q 153 58 217 -15 q 90 264 90 132 l 90 1125 l 165 1125 l 165 263 q 211 103 165 160 q 371 47 257 47 q 528 106 479 47 q 576 263 576 164 l 576 1125 l 650 1125 l 650 264 q 585 60 650 135 q 371 -15 519 -15 m 325 1447 l 417 1447 l 535 1197 l 482 1197 l 371 1410 l 260 1197 l 206 1197 l 325 1447 z "},"Ȕ":{"ha":740,"x_min":90,"x_max":650,"o":"m 371 -15 q 153 58 217 -15 q 90 264 90 132 l 90 1125 l 165 1125 l 165 263 q 211 103 165 160 q 371 47 257 47 q 528 106 479 47 q 576 263 576 164 l 576 1125 l 650 1125 l 650 264 q 585 60 650 135 q 371 -15 519 -15 m 156 1447 l 238 1447 l 315 1243 l 275 1243 l 156 1447 m 318 1447 l 390 1447 l 449 1243 l 411 1243 l 318 1447 z "},"Ü":{"ha":740,"x_min":90,"x_max":650,"o":"m 371 -15 q 153 58 217 -15 q 90 264 90 132 l 90 1125 l 165 1125 l 165 263 q 211 103 165 160 q 371 47 257 47 q 528 106 479 47 q 576 263 576 164 l 576 1125 l 650 1125 l 650 264 q 585 60 650 135 q 371 -15 519 -15 m 222 1447 l 299 1447 l 299 1342 l 222 1342 l 222 1447 m 444 1447 l 522 1447 l 522 1342 l 444 1342 l 444 1447 z "},"Ụ":{"ha":740,"x_min":90,"x_max":650,"o":"m 371 -15 q 153 58 217 -15 q 90 264 90 132 l 90 1125 l 165 1125 l 165 263 q 211 103 165 160 q 371 47 257 47 q 528 106 479 47 q 576 263 576 164 l 576 1125 l 650 1125 l 650 264 q 585 60 650 135 q 371 -15 519 -15 m 329 -83 l 413 -83 l 413 -187 l 329 -187 l 329 -83 z "},"Ù":{"ha":740,"x_min":90,"x_max":650,"o":"m 371 -15 q 153 58 217 -15 q 90 264 90 132 l 90 1125 l 165 1125 l 165 263 q 211 103 165 160 q 371 47 257 47 q 528 106 479 47 q 576 263 576 164 l 576 1125 l 650 1125 l 650 264 q 585 60 650 135 q 371 -15 519 -15 m 238 1461 l 313 1461 l 388 1192 l 350 1192 l 238 1461 z "},"Ủ":{"ha":740,"x_min":90,"x_max":650,"o":"m 371 -15 q 153 58 217 -15 q 90 264 90 132 l 90 1125 l 165 1125 l 165 263 q 211 103 165 160 q 371 47 257 47 q 528 106 479 47 q 576 263 576 164 l 576 1125 l 650 1125 l 650 264 q 585 60 650 135 q 371 -15 519 -15 m 339 1271 q 390 1307 374 1290 q 406 1346 406 1324 q 390 1382 406 1371 q 342 1393 375 1393 q 281 1386 318 1393 l 281 1425 q 354 1433 318 1433 q 463 1350 463 1433 q 438 1287 463 1313 q 369 1239 414 1261 l 339 1271 z "},"Ư":{"ha":740,"x_min":90,"x_max":739,"o":"m 739 1213 q 650 1082 739 1101 l 650 264 q 585 60 650 135 q 371 -15 519 -15 q 153 58 217 -15 q 90 264 90 132 l 90 1125 l 165 1125 l 165 263 q 211 103 165 160 q 371 47 257 47 q 528 106 479 47 q 576 263 576 164 l 576 1125 l 607 1125 q 665 1146 647 1125 q 682 1213 682 1167 l 739 1213 z "},"Ứ":{"ha":740,"x_min":90,"x_max":739,"o":"m 739 1213 q 650 1082 739 1101 l 650 264 q 585 60 650 135 q 371 -15 519 -15 q 153 58 217 -15 q 90 264 90 132 l 90 1125 l 165 1125 l 165 263 q 211 103 165 160 q 371 47 257 47 q 528 106 479 47 q 576 263 576 164 l 576 1125 l 607 1125 q 665 1146 647 1125 q 682 1213 682 1167 l 739 1213 m 442 1461 l 517 1461 l 392 1192 l 353 1192 l 442 1461 z "},"Ự":{"ha":740,"x_min":90,"x_max":739,"o":"m 739 1213 q 650 1082 739 1101 l 650 264 q 585 60 650 135 q 371 -15 519 -15 q 153 58 217 -15 q 90 264 90 132 l 90 1125 l 165 1125 l 165 263 q 211 103 165 160 q 371 47 257 47 q 528 106 479 47 q 576 263 576 164 l 576 1125 l 607 1125 q 665 1146 647 1125 q 682 1213 682 1167 l 739 1213 m 329 -83 l 413 -83 l 413 -187 l 329 -187 l 329 -83 z "},"Ừ":{"ha":740,"x_min":90,"x_max":739,"o":"m 739 1213 q 650 1082 739 1101 l 650 264 q 585 60 650 135 q 371 -15 519 -15 q 153 58 217 -15 q 90 264 90 132 l 90 1125 l 165 1125 l 165 263 q 211 103 165 160 q 371 47 257 47 q 528 106 479 47 q 576 263 576 164 l 576 1125 l 607 1125 q 665 1146 647 1125 q 682 1213 682 1167 l 739 1213 m 238 1461 l 313 1461 l 388 1192 l 350 1192 l 238 1461 z "},"Ử":{"ha":740,"x_min":90,"x_max":739,"o":"m 739 1213 q 650 1082 739 1101 l 650 264 q 585 60 650 135 q 371 -15 519 -15 q 153 58 217 -15 q 90 264 90 132 l 90 1125 l 165 1125 l 165 263 q 211 103 165 160 q 371 47 257 47 q 528 106 479 47 q 576 263 576 164 l 576 1125 l 607 1125 q 665 1146 647 1125 q 682 1213 682 1167 l 739 1213 m 339 1271 q 390 1307 374 1290 q 406 1346 406 1324 q 390 1382 406 1371 q 342 1393 375 1393 q 281 1386 318 1393 l 281 1425 q 354 1433 318 1433 q 463 1350 463 1433 q 438 1287 463 1313 q 369 1239 414 1261 l 339 1271 z "},"Ữ":{"ha":740,"x_min":90,"x_max":739,"o":"m 739 1213 q 650 1082 739 1101 l 650 264 q 585 60 650 135 q 371 -15 519 -15 q 153 58 217 -15 q 90 264 90 132 l 90 1125 l 165 1125 l 165 263 q 211 103 165 160 q 371 47 257 47 q 528 106 479 47 q 576 263 576 164 l 576 1125 l 607 1125 q 665 1146 647 1125 q 682 1213 682 1167 l 739 1213 m 443 1276 q 403 1285 421 1276 q 360 1313 385 1294 q 326 1335 339 1328 q 300 1342 314 1342 q 269 1328 281 1342 q 257 1288 257 1314 l 207 1288 q 226 1357 207 1321 q 293 1393 244 1393 q 336 1383 317 1393 q 383 1356 356 1374 q 442 1328 418 1328 q 475 1342 464 1328 q 488 1390 486 1357 l 535 1390 q 516 1313 535 1350 q 443 1276 497 1276 z "},"Ű":{"ha":740,"x_min":90,"x_max":650,"o":"m 371 -15 q 153 58 217 -15 q 90 264 90 132 l 90 1125 l 165 1125 l 165 263 q 211 103 165 160 q 371 47 257 47 q 528 106 479 47 q 576 263 576 164 l 576 1125 l 650 1125 l 650 264 q 585 60 650 135 q 371 -15 519 -15 m 351 1461 l 425 1461 l 339 1249 l 299 1249 l 351 1461 m 496 1461 l 582 1461 l 464 1249 l 421 1249 l 496 1461 z "},"Ȗ":{"ha":740,"x_min":90,"x_max":650,"o":"m 371 -15 q 153 58 217 -15 q 90 264 90 132 l 90 1125 l 165 1125 l 165 263 q 211 103 165 160 q 371 47 257 47 q 528 106 479 47 q 576 263 576 164 l 576 1125 l 650 1125 l 650 264 q 585 60 650 135 q 371 -15 519 -15 m 213 1293 q 258 1408 215 1369 q 371 1447 300 1447 q 485 1408 443 1447 q 529 1293 526 1369 l 478 1293 q 371 1399 474 1399 q 264 1293 269 1399 l 213 1293 z "},"Ū":{"ha":740,"x_min":90,"x_max":650,"o":"m 371 -15 q 153 58 217 -15 q 90 264 90 132 l 90 1125 l 165 1125 l 165 263 q 211 103 165 160 q 371 47 257 47 q 528 106 479 47 q 576 263 576 164 l 576 1125 l 650 1125 l 650 264 q 585 60 650 135 q 371 -15 519 -15 m 251 1350 l 490 1350 l 490 1294 l 251 1294 l 251 1350 z "},"Ų":{"ha":740,"x_min":90,"x_max":650,"o":"m 650 1125 l 650 264 q 603 84 650 156 q 454 -8 557 13 q 390 -88 413 -51 q 368 -162 368 -125 q 396 -217 368 -199 q 468 -236 424 -236 q 493 -233 479 -236 l 485 -276 q 449 -279 468 -279 q 347 -250 385 -279 q 310 -168 310 -221 q 334 -87 310 -126 q 400 -14 358 -47 q 371 -15 390 -15 q 153 58 217 -15 q 90 264 90 132 l 90 1125 l 165 1125 l 165 263 q 211 103 165 160 q 371 47 257 47 q 528 106 479 47 q 576 263 576 164 l 576 1125 l 650 1125 z "},"Ů":{"ha":740,"x_min":90,"x_max":650,"o":"m 371 -15 q 153 58 217 -15 q 90 264 90 132 l 90 1125 l 165 1125 l 165 263 q 211 103 165 160 q 371 47 257 47 q 528 106 479 47 q 576 263 576 164 l 576 1125 l 650 1125 l 650 264 q 585 60 650 135 q 371 -15 519 -15 m 371 1224 q 287 1253 322 1224 q 251 1342 251 1283 q 287 1430 251 1400 q 371 1460 322 1460 q 455 1430 419 1460 q 490 1342 490 1400 q 455 1253 490 1283 q 371 1224 419 1224 m 371 1267 q 423 1285 401 1267 q 444 1342 444 1304 q 424 1399 444 1381 q 371 1418 403 1418 q 318 1399 339 1418 q 297 1342 297 1381 q 319 1285 297 1304 q 371 1267 340 1267 z "},"Ũ":{"ha":740,"x_min":90,"x_max":650,"o":"m 371 -15 q 153 58 217 -15 q 90 264 90 132 l 90 1125 l 165 1125 l 165 263 q 211 103 165 160 q 371 47 257 47 q 528 106 479 47 q 576 263 576 164 l 576 1125 l 650 1125 l 650 264 q 585 60 650 135 q 371 -15 519 -15 m 443 1276 q 403 1285 421 1276 q 360 1313 385 1294 q 326 1335 339 1328 q 300 1342 314 1342 q 269 1328 281 1342 q 257 1288 257 1314 l 207 1288 q 226 1357 207 1321 q 293 1393 244 1393 q 336 1383 317 1393 q 383 1356 356 1374 q 442 1328 418 1328 q 475 1342 464 1328 q 488 1390 486 1357 l 535 1390 q 516 1313 535 1350 q 443 1276 497 1276 z "},"V":{"ha":667,"x_min":33,"x_max":633,"o":"m 33 1125 l 108 1125 l 342 132 l 560 1125 l 633 1125 l 376 0 l 306 0 l 33 1125 z "},"W":{"ha":981,"x_min":47,"x_max":933,"o":"m 47 1124 l 114 1125 l 279 149 l 460 1100 l 532 1100 l 718 149 l 868 1125 l 933 1125 l 751 0 l 688 0 l 496 985 l 308 0 l 243 0 l 47 1124 z "},"Ẃ":{"ha":981,"x_min":47,"x_max":933,"o":"m 47 1124 l 114 1125 l 279 149 l 460 1100 l 532 1100 l 718 149 l 868 1125 l 933 1125 l 751 0 l 688 0 l 496 985 l 308 0 l 243 0 l 47 1124 m 561 1461 l 636 1461 l 511 1192 l 472 1192 l 561 1461 z "},"Ŵ":{"ha":981,"x_min":47,"x_max":933,"o":"m 47 1124 l 114 1125 l 279 149 l 460 1100 l 532 1100 l 718 149 l 868 1125 l 933 1125 l 751 0 l 688 0 l 496 985 l 308 0 l 243 0 l 47 1124 m 444 1447 l 536 1447 l 654 1197 l 601 1197 l 490 1410 l 379 1197 l 325 1197 l 444 1447 z "},"Ẅ":{"ha":981,"x_min":47,"x_max":933,"o":"m 47 1124 l 114 1125 l 279 149 l 460 1100 l 532 1100 l 718 149 l 868 1125 l 933 1125 l 751 0 l 688 0 l 496 985 l 308 0 l 243 0 l 47 1124 m 342 1447 l 418 1447 l 418 1342 l 342 1342 l 342 1447 m 564 1447 l 642 1447 l 642 1342 l 564 1342 l 564 1447 z "},"Ẁ":{"ha":981,"x_min":47,"x_max":933,"o":"m 47 1124 l 114 1125 l 279 149 l 460 1100 l 532 1100 l 718 149 l 868 1125 l 933 1125 l 751 0 l 688 0 l 496 985 l 308 0 l 243 0 l 47 1124 m 357 1461 l 432 1461 l 507 1192 l 469 1192 l 357 1461 z "},"X":{"ha":628,"x_min":21,"x_max":608,"o":"m 268 583 l 22 1125 l 92 1125 l 313 644 l 528 1125 l 603 1125 l 346 572 l 608 0 l 535 0 l 303 506 l 96 0 l 21 0 l 268 583 z "},"Y":{"ha":642,"x_min":28,"x_max":614,"o":"m 288 360 l 28 1125 l 106 1125 l 326 450 l 536 1125 l 614 1125 l 363 360 l 363 0 l 288 0 l 288 360 z "},"Ý":{"ha":642,"x_min":28,"x_max":614,"o":"m 288 360 l 28 1125 l 106 1125 l 326 450 l 536 1125 l 614 1125 l 363 360 l 363 0 l 288 0 l 288 360 m 392 1461 l 467 1461 l 342 1192 l 303 1192 l 392 1461 z "},"Ŷ":{"ha":642,"x_min":28,"x_max":614,"o":"m 288 360 l 28 1125 l 106 1125 l 326 450 l 536 1125 l 614 1125 l 363 360 l 363 0 l 288 0 l 288 360 m 275 1447 l 367 1447 l 485 1197 l 432 1197 l 321 1410 l 210 1197 l 156 1197 l 275 1447 z "},"Ÿ":{"ha":642,"x_min":28,"x_max":614,"o":"m 288 360 l 28 1125 l 106 1125 l 326 450 l 536 1125 l 614 1125 l 363 360 l 363 0 l 288 0 l 288 360 m 172 1447 l 249 1447 l 249 1342 l 172 1342 l 172 1447 m 394 1447 l 472 1447 l 472 1342 l 394 1342 l 394 1447 z "},"Ỵ":{"ha":642,"x_min":28,"x_max":614,"o":"m 288 360 l 28 1125 l 106 1125 l 326 450 l 536 1125 l 614 1125 l 363 360 l 363 0 l 288 0 l 288 360 m 279 -83 l 363 -83 l 363 -187 l 279 -187 l 279 -83 z "},"Ỳ":{"ha":642,"x_min":28,"x_max":614,"o":"m 288 360 l 28 1125 l 106 1125 l 326 450 l 536 1125 l 614 1125 l 363 360 l 363 0 l 288 0 l 288 360 m 188 1461 l 263 1461 l 338 1192 l 300 1192 l 188 1461 z "},"Ỷ":{"ha":642,"x_min":28,"x_max":614,"o":"m 288 360 l 28 1125 l 106 1125 l 326 450 l 536 1125 l 614 1125 l 363 360 l 363 0 l 288 0 l 288 360 m 289 1271 q 340 1307 324 1290 q 356 1346 356 1324 q 340 1382 356 1371 q 292 1393 325 1393 q 231 1386 268 1393 l 231 1425 q 304 1433 268 1433 q 413 1350 413 1433 q 388 1287 413 1313 q 319 1239 364 1261 l 289 1271 z "},"Ȳ":{"ha":642,"x_min":28,"x_max":614,"o":"m 288 360 l 28 1125 l 106 1125 l 326 450 l 536 1125 l 614 1125 l 363 360 l 363 0 l 288 0 l 288 360 m 201 1350 l 440 1350 l 440 1294 l 201 1294 l 201 1350 z "},"Ỹ":{"ha":642,"x_min":28,"x_max":614,"o":"m 288 360 l 28 1125 l 106 1125 l 326 450 l 536 1125 l 614 1125 l 363 360 l 363 0 l 288 0 l 288 360 m 393 1276 q 353 1285 371 1276 q 310 1313 335 1294 q 276 1335 289 1328 q 250 1342 264 1342 q 219 1328 231 1342 q 207 1288 207 1314 l 157 1288 q 176 1357 157 1321 q 243 1393 194 1393 q 286 1383 267 1393 q 333 1356 306 1374 q 392 1328 368 1328 q 425 1342 414 1328 q 438 1390 436 1357 l 485 1390 q 466 1313 485 1350 q 393 1276 447 1276 z "},"Z":{"ha":557,"x_min":43,"x_max":531,"o":"m 43 60 l 447 1065 l 79 1065 l 79 1125 l 529 1125 l 529 1078 l 121 60 l 531 60 l 531 0 l 43 0 l 43 60 z "},"Ź":{"ha":557,"x_min":43,"x_max":531,"o":"m 43 60 l 447 1065 l 79 1065 l 79 1125 l 529 1125 l 529 1078 l 121 60 l 531 60 l 531 0 l 43 0 l 43 60 m 350 1461 l 425 1461 l 300 1192 l 261 1192 l 350 1461 z "},"Ž":{"ha":557,"x_min":43,"x_max":531,"o":"m 43 60 l 447 1065 l 79 1065 l 79 1125 l 529 1125 l 529 1078 l 121 60 l 531 60 l 531 0 l 43 0 l 43 60 m 133 1447 l 196 1447 l 279 1278 l 363 1447 l 425 1447 l 307 1221 l 251 1221 l 133 1447 z "},"Ż":{"ha":557,"x_min":43,"x_max":531,"o":"m 43 60 l 447 1065 l 79 1065 l 79 1125 l 529 1125 l 529 1078 l 121 60 l 531 60 l 531 0 l 43 0 l 43 60 m 238 1406 l 321 1406 l 321 1261 l 238 1261 l 238 1406 z "},"a":{"ha":526,"x_min":53,"x_max":458,"o":"m 214 -12 q 97 36 142 -12 q 53 163 53 85 q 78 278 53 233 q 170 367 103 324 q 381 479 238 411 l 381 536 q 370 672 381 624 q 335 740 360 721 q 269 760 311 760 q 177 728 213 760 q 142 608 142 696 l 142 586 l 69 588 l 69 608 q 123 767 72 718 q 272 815 174 815 q 413 752 372 815 q 454 544 454 689 l 454 140 q 456 60 454 111 q 458 0 457 10 l 394 0 l 382 107 q 318 22 364 56 q 214 -12 272 -12 m 232 49 q 319 81 281 49 q 381 161 357 113 l 381 425 q 215 334 260 363 q 148 270 169 306 q 126 174 126 235 q 157 78 126 107 q 232 49 188 49 z "},"á":{"ha":526,"x_min":53,"x_max":458,"o":"m 214 -12 q 97 36 142 -12 q 53 163 53 85 q 78 278 53 233 q 170 367 103 324 q 381 479 238 411 l 381 536 q 370 672 381 624 q 335 740 360 721 q 269 760 311 760 q 177 728 213 760 q 142 608 142 696 l 142 586 l 69 588 l 69 608 q 123 767 72 718 q 272 815 174 815 q 413 752 372 815 q 454 544 454 689 l 454 140 q 456 60 454 111 q 458 0 457 10 l 394 0 l 382 107 q 318 22 364 56 q 214 -12 272 -12 m 232 49 q 319 81 281 49 q 381 161 357 113 l 381 425 q 215 334 260 363 q 148 270 169 306 q 126 174 126 235 q 157 78 126 107 q 232 49 188 49 m 342 1139 l 417 1139 l 292 869 l 253 869 l 342 1139 z "},"ă":{"ha":526,"x_min":53,"x_max":458,"o":"m 214 -12 q 97 36 142 -12 q 53 163 53 85 q 78 278 53 233 q 170 367 103 324 q 381 479 238 411 l 381 536 q 370 672 381 624 q 335 740 360 721 q 269 760 311 760 q 177 728 213 760 q 142 608 142 696 l 142 586 l 69 588 l 69 608 q 123 767 72 718 q 272 815 174 815 q 413 752 372 815 q 454 544 454 689 l 454 140 q 456 60 454 111 q 458 0 457 10 l 394 0 l 382 107 q 318 22 364 56 q 214 -12 272 -12 m 232 49 q 319 81 281 49 q 381 161 357 113 l 381 425 q 215 334 260 363 q 148 270 169 306 q 126 174 126 235 q 157 78 126 107 q 232 49 188 49 m 269 888 q 156 926 197 888 q 113 1042 115 964 l 164 1042 q 269 935 165 935 q 378 1042 371 935 l 429 1042 q 384 926 426 965 q 269 888 342 888 z "},"ắ":{"ha":526,"x_min":53,"x_max":458,"o":"m 214 -12 q 97 36 142 -12 q 53 163 53 85 q 78 278 53 233 q 170 367 103 324 q 381 479 238 411 l 381 536 q 370 672 381 624 q 335 740 360 721 q 269 760 311 760 q 177 728 213 760 q 142 608 142 696 l 142 586 l 69 588 l 69 608 q 123 767 72 718 q 272 815 174 815 q 413 752 372 815 q 454 544 454 689 l 454 140 q 456 60 454 111 q 458 0 457 10 l 394 0 l 382 107 q 318 22 364 56 q 214 -12 272 -12 m 232 49 q 319 81 281 49 q 381 161 357 113 l 381 425 q 215 334 260 363 q 148 270 169 306 q 126 174 126 235 q 157 78 126 107 q 232 49 188 49 m 313 1253 l 388 1253 l 261 1090 l 222 1090 l 313 1253 m 269 888 q 156 926 197 888 q 113 1042 115 964 l 164 1042 q 269 935 165 935 q 378 1042 371 935 l 429 1042 q 384 926 426 965 q 269 888 342 888 z "},"ặ":{"ha":526,"x_min":53,"x_max":458,"o":"m 214 -12 q 97 36 142 -12 q 53 163 53 85 q 78 278 53 233 q 170 367 103 324 q 381 479 238 411 l 381 536 q 370 672 381 624 q 335 740 360 721 q 269 760 311 760 q 177 728 213 760 q 142 608 142 696 l 142 586 l 69 588 l 69 608 q 123 767 72 718 q 272 815 174 815 q 413 752 372 815 q 454 544 454 689 l 454 140 q 456 60 454 111 q 458 0 457 10 l 394 0 l 382 107 q 318 22 364 56 q 214 -12 272 -12 m 232 49 q 319 81 281 49 q 381 161 357 113 l 381 425 q 215 334 260 363 q 148 270 169 306 q 126 174 126 235 q 157 78 126 107 q 232 49 188 49 m 222 -83 l 306 -83 l 306 -187 l 222 -187 l 222 -83 m 269 888 q 156 926 197 888 q 113 1042 115 964 l 164 1042 q 269 935 165 935 q 378 1042 371 935 l 429 1042 q 384 926 426 965 q 269 888 342 888 z "},"ằ":{"ha":526,"x_min":53,"x_max":458,"o":"m 214 -12 q 97 36 142 -12 q 53 163 53 85 q 78 278 53 233 q 170 367 103 324 q 381 479 238 411 l 381 536 q 370 672 381 624 q 335 740 360 721 q 269 760 311 760 q 177 728 213 760 q 142 608 142 696 l 142 586 l 69 588 l 69 608 q 123 767 72 718 q 272 815 174 815 q 413 752 372 815 q 454 544 454 689 l 454 140 q 456 60 454 111 q 458 0 457 10 l 394 0 l 382 107 q 318 22 364 56 q 214 -12 272 -12 m 232 49 q 319 81 281 49 q 381 161 357 113 l 381 425 q 215 334 260 363 q 148 270 169 306 q 126 174 126 235 q 157 78 126 107 q 232 49 188 49 m 163 1253 l 238 1253 l 328 1090 l 289 1090 l 163 1253 m 269 888 q 156 926 197 888 q 113 1042 115 964 l 164 1042 q 269 935 165 935 q 378 1042 371 935 l 429 1042 q 384 926 426 965 q 269 888 342 888 z "},"ẳ":{"ha":526,"x_min":53,"x_max":458,"o":"m 214 -12 q 97 36 142 -12 q 53 163 53 85 q 78 278 53 233 q 170 367 103 324 q 381 479 238 411 l 381 536 q 370 672 381 624 q 335 740 360 721 q 269 760 311 760 q 177 728 213 760 q 142 608 142 696 l 142 586 l 69 588 l 69 608 q 123 767 72 718 q 272 815 174 815 q 413 752 372 815 q 454 544 454 689 l 454 140 q 456 60 454 111 q 458 0 457 10 l 394 0 l 382 107 q 318 22 364 56 q 214 -12 272 -12 m 232 49 q 319 81 281 49 q 381 161 357 113 l 381 425 q 215 334 260 363 q 148 270 169 306 q 126 174 126 235 q 157 78 126 107 q 232 49 188 49 m 246 1063 q 294 1098 279 1081 q 310 1138 310 1115 q 250 1185 310 1185 q 188 1175 218 1185 l 188 1213 q 264 1225 228 1225 q 340 1203 313 1225 q 367 1142 367 1182 q 342 1078 367 1106 q 276 1031 318 1051 l 246 1063 m 269 888 q 156 926 197 888 q 113 1042 115 964 l 164 1042 q 269 935 165 935 q 378 1042 371 935 l 429 1042 q 384 926 426 965 q 269 888 342 888 z "},"ẵ":{"ha":526,"x_min":53,"x_max":458,"o":"m 214 -12 q 97 36 142 -12 q 53 163 53 85 q 78 278 53 233 q 170 367 103 324 q 381 479 238 411 l 381 536 q 370 672 381 624 q 335 740 360 721 q 269 760 311 760 q 177 728 213 760 q 142 608 142 696 l 142 586 l 69 588 l 69 608 q 123 767 72 718 q 272 815 174 815 q 413 752 372 815 q 454 544 454 689 l 454 140 q 456 60 454 111 q 458 0 457 10 l 394 0 l 382 107 q 318 22 364 56 q 214 -12 272 -12 m 232 49 q 319 81 281 49 q 381 161 357 113 l 381 425 q 215 334 260 363 q 148 270 169 306 q 126 174 126 235 q 157 78 126 107 q 232 49 188 49 m 269 888 q 156 926 197 888 q 113 1042 115 964 l 164 1042 q 269 935 165 935 q 378 1042 371 935 l 429 1042 q 384 926 426 965 q 269 888 342 888 m 343 1103 q 303 1112 321 1103 q 260 1139 285 1121 q 226 1161 239 1154 q 200 1168 214 1168 q 169 1154 181 1168 q 157 1114 157 1140 l 107 1114 q 126 1183 107 1147 q 193 1219 144 1219 q 236 1210 217 1219 q 283 1182 256 1200 q 342 1154 318 1154 q 375 1169 364 1154 q 388 1217 386 1183 l 435 1217 q 416 1140 435 1176 q 343 1103 397 1103 z "},"â":{"ha":526,"x_min":53,"x_max":458,"o":"m 214 -12 q 97 36 142 -12 q 53 163 53 85 q 78 278 53 233 q 170 367 103 324 q 381 479 238 411 l 381 536 q 370 672 381 624 q 335 740 360 721 q 269 760 311 760 q 177 728 213 760 q 142 608 142 696 l 142 586 l 69 588 l 69 608 q 123 767 72 718 q 272 815 174 815 q 413 752 372 815 q 454 544 454 689 l 454 140 q 456 60 454 111 q 458 0 457 10 l 394 0 l 382 107 q 318 22 364 56 q 214 -12 272 -12 m 232 49 q 319 81 281 49 q 381 161 357 113 l 381 425 q 215 334 260 363 q 148 270 169 306 q 126 174 126 235 q 157 78 126 107 q 232 49 188 49 m 225 1125 l 317 1125 l 435 875 l 382 875 l 271 1088 l 160 875 l 106 875 l 225 1125 z "},"ấ":{"ha":526,"x_min":53,"x_max":560,"o":"m 214 -12 q 97 36 142 -12 q 53 163 53 85 q 78 278 53 233 q 170 367 103 324 q 381 479 238 411 l 381 536 q 370 672 381 624 q 335 740 360 721 q 269 760 311 760 q 177 728 213 760 q 142 608 142 696 l 142 586 l 69 588 l 69 608 q 123 767 72 718 q 272 815 174 815 q 413 752 372 815 q 454 544 454 689 l 454 140 q 456 60 454 111 q 458 0 457 10 l 394 0 l 382 107 q 318 22 364 56 q 214 -12 272 -12 m 232 49 q 319 81 281 49 q 381 161 357 113 l 381 425 q 215 334 260 363 q 148 270 169 306 q 126 174 126 235 q 157 78 126 107 q 232 49 188 49 m 488 1158 l 560 1158 l 467 999 l 414 999 l 488 1158 m 225 1069 l 317 1069 l 435 875 l 382 875 l 271 1035 l 160 875 l 106 875 l 225 1069 z "},"ậ":{"ha":526,"x_min":53,"x_max":458,"o":"m 214 -12 q 97 36 142 -12 q 53 163 53 85 q 78 278 53 233 q 170 367 103 324 q 381 479 238 411 l 381 536 q 370 672 381 624 q 335 740 360 721 q 269 760 311 760 q 177 728 213 760 q 142 608 142 696 l 142 586 l 69 588 l 69 608 q 123 767 72 718 q 272 815 174 815 q 413 752 372 815 q 454 544 454 689 l 454 140 q 456 60 454 111 q 458 0 457 10 l 394 0 l 382 107 q 318 22 364 56 q 214 -12 272 -12 m 232 49 q 319 81 281 49 q 381 161 357 113 l 381 425 q 215 334 260 363 q 148 270 169 306 q 126 174 126 235 q 157 78 126 107 q 232 49 188 49 m 222 -83 l 306 -83 l 306 -187 l 222 -187 l 222 -83 m 225 1069 l 317 1069 l 435 875 l 382 875 l 271 1035 l 160 875 l 106 875 l 225 1069 z "},"ầ":{"ha":526,"x_min":53,"x_max":503,"o":"m 214 -12 q 97 36 142 -12 q 53 163 53 85 q 78 278 53 233 q 170 367 103 324 q 381 479 238 411 l 381 536 q 370 672 381 624 q 335 740 360 721 q 269 760 311 760 q 177 728 213 760 q 142 608 142 696 l 142 586 l 69 588 l 69 608 q 123 767 72 718 q 272 815 174 815 q 413 752 372 815 q 454 544 454 689 l 454 140 q 456 60 454 111 q 458 0 457 10 l 394 0 l 382 107 q 318 22 364 56 q 214 -12 272 -12 m 232 49 q 319 81 281 49 q 381 161 357 113 l 381 425 q 215 334 260 363 q 148 270 169 306 q 126 174 126 235 q 157 78 126 107 q 232 49 188 49 m 357 1158 l 429 1158 l 503 999 l 450 999 l 357 1158 m 225 1069 l 317 1069 l 435 875 l 382 875 l 271 1035 l 160 875 l 106 875 l 225 1069 z "},"ẩ":{"ha":526,"x_min":53,"x_max":524,"o":"m 214 -12 q 97 36 142 -12 q 53 163 53 85 q 78 278 53 233 q 170 367 103 324 q 381 479 238 411 l 381 536 q 370 672 381 624 q 335 740 360 721 q 269 760 311 760 q 177 728 213 760 q 142 608 142 696 l 142 586 l 69 588 l 69 608 q 123 767 72 718 q 272 815 174 815 q 413 752 372 815 q 454 544 454 689 l 454 140 q 456 60 454 111 q 458 0 457 10 l 394 0 l 382 107 q 318 22 364 56 q 214 -12 272 -12 m 232 49 q 319 81 281 49 q 381 161 357 113 l 381 425 q 215 334 260 363 q 148 270 169 306 q 126 174 126 235 q 157 78 126 107 q 232 49 188 49 m 403 1029 q 451 1065 436 1047 q 467 1104 467 1082 q 407 1151 467 1151 q 344 1142 375 1151 l 344 1179 q 421 1192 383 1192 q 497 1170 469 1192 q 524 1108 524 1149 q 500 1045 524 1071 q 433 997 476 1019 l 403 1029 m 225 1069 l 317 1069 l 435 875 l 382 875 l 271 1035 l 160 875 l 106 875 l 225 1069 z "},"ẫ":{"ha":526,"x_min":53,"x_max":458,"o":"m 214 -12 q 97 36 142 -12 q 53 163 53 85 q 78 278 53 233 q 170 367 103 324 q 381 479 238 411 l 381 536 q 370 672 381 624 q 335 740 360 721 q 269 760 311 760 q 177 728 213 760 q 142 608 142 696 l 142 586 l 69 588 l 69 608 q 123 767 72 718 q 272 815 174 815 q 413 752 372 815 q 454 544 454 689 l 454 140 q 456 60 454 111 q 458 0 457 10 l 394 0 l 382 107 q 318 22 364 56 q 214 -12 272 -12 m 232 49 q 319 81 281 49 q 381 161 357 113 l 381 425 q 215 334 260 363 q 148 270 169 306 q 126 174 126 235 q 157 78 126 107 q 232 49 188 49 m 225 1069 l 317 1069 l 435 875 l 382 875 l 271 1035 l 160 875 l 106 875 l 225 1069 m 343 1139 q 303 1148 321 1139 q 260 1175 285 1157 q 226 1197 239 1190 q 200 1204 214 1204 q 169 1190 181 1204 q 157 1150 157 1176 l 107 1150 q 126 1219 107 1183 q 193 1256 144 1256 q 236 1246 217 1256 q 283 1218 256 1236 q 342 1190 318 1190 q 375 1205 364 1190 q 388 1253 386 1219 l 435 1253 q 416 1176 435 1213 q 343 1139 397 1139 z "},"ȁ":{"ha":526,"x_min":53,"x_max":458,"o":"m 214 -12 q 97 36 142 -12 q 53 163 53 85 q 78 278 53 233 q 170 367 103 324 q 381 479 238 411 l 381 536 q 370 672 381 624 q 335 740 360 721 q 269 760 311 760 q 177 728 213 760 q 142 608 142 696 l 142 586 l 69 588 l 69 608 q 123 767 72 718 q 272 815 174 815 q 413 752 372 815 q 454 544 454 689 l 454 140 q 456 60 454 111 q 458 0 457 10 l 394 0 l 382 107 q 318 22 364 56 q 214 -12 272 -12 m 232 49 q 319 81 281 49 q 381 161 357 113 l 381 425 q 215 334 260 363 q 148 270 169 306 q 126 174 126 235 q 157 78 126 107 q 232 49 188 49 m 56 1125 l 138 1125 l 215 921 l 175 921 l 56 1125 m 218 1125 l 290 1125 l 349 921 l 311 921 l 218 1125 z "},"ä":{"ha":526,"x_min":53,"x_max":458,"o":"m 214 -12 q 97 36 142 -12 q 53 163 53 85 q 78 278 53 233 q 170 367 103 324 q 381 479 238 411 l 381 536 q 370 672 381 624 q 335 740 360 721 q 269 760 311 760 q 177 728 213 760 q 142 608 142 696 l 142 586 l 69 588 l 69 608 q 123 767 72 718 q 272 815 174 815 q 413 752 372 815 q 454 544 454 689 l 454 140 q 456 60 454 111 q 458 0 457 10 l 394 0 l 382 107 q 318 22 364 56 q 214 -12 272 -12 m 232 49 q 319 81 281 49 q 381 161 357 113 l 381 425 q 215 334 260 363 q 148 270 169 306 q 126 174 126 235 q 157 78 126 107 q 232 49 188 49 m 122 1125 l 199 1125 l 199 1019 l 122 1019 l 122 1125 m 344 1125 l 422 1125 l 422 1019 l 344 1019 l 344 1125 z "},"ạ":{"ha":526,"x_min":53,"x_max":458,"o":"m 214 -12 q 97 36 142 -12 q 53 163 53 85 q 78 278 53 233 q 170 367 103 324 q 381 479 238 411 l 381 536 q 370 672 381 624 q 335 740 360 721 q 269 760 311 760 q 177 728 213 760 q 142 608 142 696 l 142 586 l 69 588 l 69 608 q 123 767 72 718 q 272 815 174 815 q 413 752 372 815 q 454 544 454 689 l 454 140 q 456 60 454 111 q 458 0 457 10 l 394 0 l 382 107 q 318 22 364 56 q 214 -12 272 -12 m 232 49 q 319 81 281 49 q 381 161 357 113 l 381 425 q 215 334 260 363 q 148 270 169 306 q 126 174 126 235 q 157 78 126 107 q 232 49 188 49 m 222 -83 l 306 -83 l 306 -187 l 222 -187 l 222 -83 z "},"à":{"ha":526,"x_min":53,"x_max":458,"o":"m 214 -12 q 97 36 142 -12 q 53 163 53 85 q 78 278 53 233 q 170 367 103 324 q 381 479 238 411 l 381 536 q 370 672 381 624 q 335 740 360 721 q 269 760 311 760 q 177 728 213 760 q 142 608 142 696 l 142 586 l 69 588 l 69 608 q 123 767 72 718 q 272 815 174 815 q 413 752 372 815 q 454 544 454 689 l 454 140 q 456 60 454 111 q 458 0 457 10 l 394 0 l 382 107 q 318 22 364 56 q 214 -12 272 -12 m 232 49 q 319 81 281 49 q 381 161 357 113 l 381 425 q 215 334 260 363 q 148 270 169 306 q 126 174 126 235 q 157 78 126 107 q 232 49 188 49 m 138 1139 l 213 1139 l 288 869 l 250 869 l 138 1139 z "},"ả":{"ha":526,"x_min":53,"x_max":458,"o":"m 214 -12 q 97 36 142 -12 q 53 163 53 85 q 78 278 53 233 q 170 367 103 324 q 381 479 238 411 l 381 536 q 370 672 381 624 q 335 740 360 721 q 269 760 311 760 q 177 728 213 760 q 142 608 142 696 l 142 586 l 69 588 l 69 608 q 123 767 72 718 q 272 815 174 815 q 413 752 372 815 q 454 544 454 689 l 454 140 q 456 60 454 111 q 458 0 457 10 l 394 0 l 382 107 q 318 22 364 56 q 214 -12 272 -12 m 232 49 q 319 81 281 49 q 381 161 357 113 l 381 425 q 215 334 260 363 q 148 270 169 306 q 126 174 126 235 q 157 78 126 107 q 232 49 188 49 m 239 949 q 290 985 274 968 q 306 1024 306 1001 q 290 1060 306 1049 q 242 1071 275 1071 q 181 1064 218 1071 l 181 1103 q 254 1111 218 1111 q 363 1028 363 1111 q 338 965 363 990 q 269 917 314 939 l 239 949 z "},"ȃ":{"ha":526,"x_min":53,"x_max":458,"o":"m 214 -12 q 97 36 142 -12 q 53 163 53 85 q 78 278 53 233 q 170 367 103 324 q 381 479 238 411 l 381 536 q 370 672 381 624 q 335 740 360 721 q 269 760 311 760 q 177 728 213 760 q 142 608 142 696 l 142 586 l 69 588 l 69 608 q 123 767 72 718 q 272 815 174 815 q 413 752 372 815 q 454 544 454 689 l 454 140 q 456 60 454 111 q 458 0 457 10 l 394 0 l 382 107 q 318 22 364 56 q 214 -12 272 -12 m 232 49 q 319 81 281 49 q 381 161 357 113 l 381 425 q 215 334 260 363 q 148 270 169 306 q 126 174 126 235 q 157 78 126 107 q 232 49 188 49 m 113 971 q 158 1086 115 1047 q 271 1125 200 1125 q 385 1086 343 1125 q 429 971 426 1047 l 378 971 q 271 1076 374 1076 q 164 971 169 1076 l 113 971 z "},"ā":{"ha":526,"x_min":53,"x_max":458,"o":"m 214 -12 q 97 36 142 -12 q 53 163 53 85 q 78 278 53 233 q 170 367 103 324 q 381 479 238 411 l 381 536 q 370 672 381 624 q 335 740 360 721 q 269 760 311 760 q 177 728 213 760 q 142 608 142 696 l 142 586 l 69 588 l 69 608 q 123 767 72 718 q 272 815 174 815 q 413 752 372 815 q 454 544 454 689 l 454 140 q 456 60 454 111 q 458 0 457 10 l 394 0 l 382 107 q 318 22 364 56 q 214 -12 272 -12 m 232 49 q 319 81 281 49 q 381 161 357 113 l 381 425 q 215 334 260 363 q 148 270 169 306 q 126 174 126 235 q 157 78 126 107 q 232 49 188 49 m 151 1028 l 390 1028 l 390 972 l 151 972 l 151 1028 z "},"ą":{"ha":526,"x_min":53,"x_max":481,"o":"m 456 -236 q 481 -233 467 -236 l 472 -276 q 436 -279 456 -279 q 335 -250 372 -279 q 297 -168 297 -221 q 327 -78 297 -121 q 407 0 357 -35 l 394 0 l 382 107 q 318 22 364 56 q 214 -12 272 -12 q 97 36 142 -12 q 53 163 53 85 q 78 278 53 233 q 170 367 103 324 q 381 479 238 411 l 381 536 q 370 672 381 624 q 335 740 360 721 q 269 760 311 760 q 177 728 213 760 q 142 608 142 696 l 142 586 l 69 588 l 69 608 q 123 767 72 718 q 272 815 174 815 q 413 752 372 815 q 454 544 454 689 l 454 140 q 456 60 454 111 q 458 0 457 10 l 449 0 q 379 -85 403 -46 q 356 -162 356 -124 q 383 -217 356 -199 q 456 -236 411 -236 m 381 425 q 215 334 260 363 q 148 270 169 306 q 126 174 126 235 q 157 78 126 107 q 232 49 188 49 q 319 81 281 49 q 381 161 357 113 l 381 425 z "},"å":{"ha":526,"x_min":53,"x_max":458,"o":"m 214 -12 q 97 36 142 -12 q 53 163 53 85 q 78 278 53 233 q 170 367 103 324 q 381 479 238 411 l 381 536 q 370 672 381 624 q 335 740 360 721 q 269 760 311 760 q 177 728 213 760 q 142 608 142 696 l 142 586 l 69 588 l 69 608 q 123 767 72 718 q 272 815 174 815 q 413 752 372 815 q 454 544 454 689 l 454 140 q 456 60 454 111 q 458 0 457 10 l 394 0 l 382 107 q 318 22 364 56 q 214 -12 272 -12 m 232 49 q 319 81 281 49 q 381 161 357 113 l 381 425 q 215 334 260 363 q 148 270 169 306 q 126 174 126 235 q 157 78 126 107 q 232 49 188 49 m 271 901 q 187 931 222 901 q 151 1019 151 961 q 187 1108 151 1078 q 271 1138 222 1138 q 355 1108 319 1138 q 390 1019 390 1078 q 355 931 390 961 q 271 901 319 901 m 271 944 q 323 963 301 944 q 344 1019 344 982 q 324 1077 344 1058 q 271 1096 303 1096 q 218 1077 239 1096 q 197 1019 197 1058 q 219 963 197 982 q 271 944 240 944 z "},"ǻ":{"ha":526,"x_min":53,"x_max":458,"o":"m 214 -12 q 97 36 142 -12 q 53 163 53 85 q 78 278 53 233 q 170 367 103 324 q 381 479 238 411 l 381 536 q 370 672 381 624 q 335 740 360 721 q 269 760 311 760 q 177 728 213 760 q 142 608 142 696 l 142 586 l 69 588 l 69 608 q 123 767 72 718 q 272 815 174 815 q 413 752 372 815 q 454 544 454 689 l 454 140 q 456 60 454 111 q 458 0 457 10 l 394 0 l 382 107 q 318 22 364 56 q 214 -12 272 -12 m 232 49 q 319 81 281 49 q 381 161 357 113 l 381 425 q 215 334 260 363 q 148 270 169 306 q 126 174 126 235 q 157 78 126 107 q 232 49 188 49 m 271 901 q 187 931 222 901 q 151 1019 151 961 q 187 1108 151 1078 q 271 1138 222 1138 q 355 1108 319 1138 q 390 1019 390 1078 q 355 931 390 961 q 271 901 319 901 m 271 944 q 323 963 301 944 q 344 1019 344 982 q 324 1077 344 1058 q 271 1096 303 1096 q 218 1077 239 1096 q 197 1019 197 1058 q 219 963 197 982 q 271 944 240 944 m 342 1474 l 417 1474 l 292 1204 l 253 1204 l 342 1474 z "},"ã":{"ha":526,"x_min":53,"x_max":458,"o":"m 214 -12 q 97 36 142 -12 q 53 163 53 85 q 78 278 53 233 q 170 367 103 324 q 381 479 238 411 l 381 536 q 370 672 381 624 q 335 740 360 721 q 269 760 311 760 q 177 728 213 760 q 142 608 142 696 l 142 586 l 69 588 l 69 608 q 123 767 72 718 q 272 815 174 815 q 413 752 372 815 q 454 544 454 689 l 454 140 q 456 60 454 111 q 458 0 457 10 l 394 0 l 382 107 q 318 22 364 56 q 214 -12 272 -12 m 232 49 q 319 81 281 49 q 381 161 357 113 l 381 425 q 215 334 260 363 q 148 270 169 306 q 126 174 126 235 q 157 78 126 107 q 232 49 188 49 m 343 954 q 303 963 321 954 q 260 990 285 972 q 226 1013 239 1006 q 200 1019 214 1019 q 169 1006 181 1019 q 157 965 157 992 l 107 965 q 126 1035 107 999 q 193 1071 144 1071 q 236 1061 217 1071 q 283 1033 256 1051 q 342 1006 318 1006 q 375 1020 364 1006 q 388 1068 386 1035 l 435 1068 q 416 991 435 1028 q 343 954 397 954 z "},"æ":{"ha":832,"x_min":56,"x_max":782,"o":"m 782 271 l 782 218 q 738 47 782 107 q 588 -12 694 -12 q 471 25 519 -12 q 411 149 422 63 q 338 26 392 65 q 224 -12 285 -12 q 101 35 147 -12 q 56 163 56 82 q 70 259 56 218 q 130 338 85 300 q 263 407 175 375 l 383 449 l 383 568 q 355 717 383 676 q 258 758 326 758 q 174 723 207 758 q 140 601 140 688 l 69 604 q 118 763 69 710 q 256 815 167 815 q 367 782 324 815 q 424 683 411 749 q 487 784 438 753 q 601 815 536 815 q 731 771 686 815 q 776 654 776 726 q 737 540 776 581 q 613 469 697 499 l 458 417 l 458 310 q 488 106 458 165 q 588 46 518 46 q 676 79 643 46 q 710 215 710 113 l 710 271 l 782 271 m 458 465 l 600 515 q 686 567 664 539 q 708 649 708 594 q 681 726 708 694 q 596 757 654 757 q 492 708 526 757 q 458 533 458 658 l 458 465 m 383 400 q 333 381 381 400 l 282 360 q 182 306 215 332 q 138 251 149 279 q 128 181 128 222 q 159 77 128 110 q 233 44 190 44 q 340 104 297 44 q 383 301 383 164 l 383 400 z "},"ǽ":{"ha":832,"x_min":56,"x_max":782,"o":"m 782 271 l 782 218 q 738 47 782 107 q 588 -12 694 -12 q 471 25 519 -12 q 411 149 422 63 q 338 26 392 65 q 224 -12 285 -12 q 101 35 147 -12 q 56 163 56 82 q 70 259 56 218 q 130 338 85 300 q 263 407 175 375 l 383 449 l 383 568 q 355 717 383 676 q 258 758 326 758 q 174 723 207 758 q 140 601 140 688 l 69 604 q 118 763 69 710 q 256 815 167 815 q 367 782 324 815 q 424 683 411 749 q 487 784 438 753 q 601 815 536 815 q 731 771 686 815 q 776 654 776 726 q 737 540 776 581 q 613 469 697 499 l 458 417 l 458 310 q 488 106 458 165 q 588 46 518 46 q 676 79 643 46 q 710 215 710 113 l 710 271 l 782 271 m 458 465 l 600 515 q 686 567 664 539 q 708 649 708 594 q 681 726 708 694 q 596 757 654 757 q 492 708 526 757 q 458 533 458 658 l 458 465 m 383 400 q 333 381 381 400 l 282 360 q 182 306 215 332 q 138 251 149 279 q 128 181 128 222 q 159 77 128 110 q 233 44 190 44 q 340 104 297 44 q 383 301 383 164 l 383 400 m 488 1139 l 563 1139 l 438 869 l 399 869 l 488 1139 z "},"b":{"ha":551,"x_min":79,"x_max":489,"o":"m 300 -12 q 153 67 217 -12 l 153 0 l 79 0 l 79 1125 l 153 1125 l 153 735 q 217 792 178 769 q 307 815 257 815 q 450 733 411 815 q 489 485 489 650 l 489 331 q 447 71 489 154 q 300 -12 404 -12 m 290 44 q 367 74 340 44 q 403 163 393 103 q 414 328 414 224 l 414 485 q 405 645 414 588 q 369 731 396 703 q 292 758 343 758 q 153 683 221 758 l 153 117 q 290 44 214 44 z "},"ḃ":{"ha":551,"x_min":75,"x_max":489,"o":"m 300 -12 q 153 67 217 -12 l 153 0 l 79 0 l 79 1125 l 153 1125 l 153 735 q 217 792 178 769 q 307 815 257 815 q 450 733 411 815 q 489 485 489 650 l 489 331 q 447 71 489 154 q 300 -12 404 -12 m 290 44 q 367 74 340 44 q 403 163 393 103 q 414 328 414 224 l 414 485 q 405 645 414 588 q 369 731 396 703 q 292 758 343 758 q 153 683 221 758 l 153 117 q 290 44 214 44 m 75 1406 l 158 1406 l 158 1261 l 75 1261 l 75 1406 z "},"c":{"ha":521,"x_min":64,"x_max":463,"o":"m 267 -12 q 137 27 181 -12 q 78 133 93 67 q 64 301 64 200 l 64 490 q 82 682 64 613 q 144 783 100 751 q 267 815 188 815 q 422 749 382 815 q 463 556 463 682 l 463 524 l 393 524 l 393 556 q 380 681 393 636 q 340 742 367 725 q 267 760 313 760 q 185 735 213 760 q 147 655 157 710 q 138 499 138 600 l 138 290 q 149 146 138 199 q 188 68 160 93 q 268 43 215 43 q 348 66 321 43 q 384 136 375 89 q 393 269 393 183 l 393 300 l 463 300 l 463 271 q 449 118 463 178 q 392 23 435 58 q 267 -12 350 -12 z "},"ć":{"ha":521,"x_min":64,"x_max":463,"o":"m 267 -12 q 137 27 181 -12 q 78 133 93 67 q 64 301 64 200 l 64 490 q 82 682 64 613 q 144 783 100 751 q 267 815 188 815 q 422 749 382 815 q 463 556 463 682 l 463 524 l 393 524 l 393 556 q 380 681 393 636 q 340 742 367 725 q 267 760 313 760 q 185 735 213 760 q 147 655 157 710 q 138 499 138 600 l 138 290 q 149 146 138 199 q 188 68 160 93 q 268 43 215 43 q 348 66 321 43 q 384 136 375 89 q 393 269 393 183 l 393 300 l 463 300 l 463 271 q 449 118 463 178 q 392 23 435 58 q 267 -12 350 -12 m 332 1139 l 407 1139 l 282 869 l 243 869 l 332 1139 z "},"č":{"ha":521,"x_min":64,"x_max":463,"o":"m 267 -12 q 137 27 181 -12 q 78 133 93 67 q 64 301 64 200 l 64 490 q 82 682 64 613 q 144 783 100 751 q 267 815 188 815 q 422 749 382 815 q 463 556 463 682 l 463 524 l 393 524 l 393 556 q 380 681 393 636 q 340 742 367 725 q 267 760 313 760 q 185 735 213 760 q 147 655 157 710 q 138 499 138 600 l 138 290 q 149 146 138 199 q 188 68 160 93 q 268 43 215 43 q 348 66 321 43 q 384 136 375 89 q 393 269 393 183 l 393 300 l 463 300 l 463 271 q 449 118 463 178 q 392 23 435 58 q 267 -12 350 -12 m 115 1125 l 178 1125 l 261 956 l 344 1125 l 407 1125 l 289 899 l 233 899 l 115 1125 z "},"ç":{"ha":521,"x_min":64,"x_max":463,"o":"m 393 524 l 393 556 q 380 681 393 636 q 340 742 367 725 q 267 760 313 760 q 185 735 213 760 q 147 655 157 710 q 138 499 138 600 l 138 290 q 149 146 138 199 q 188 68 160 93 q 268 43 215 43 q 348 66 321 43 q 384 136 375 89 q 393 269 393 183 l 393 300 l 463 300 l 463 271 q 450 122 463 181 q 398 26 438 63 q 281 -12 358 -10 l 281 -65 q 392 -160 392 -71 q 357 -233 392 -208 q 256 -258 322 -258 q 210 -256 240 -258 l 210 -215 q 240 -218 232 -218 q 312 -204 289 -218 q 335 -160 335 -190 q 310 -113 335 -131 q 240 -92 286 -96 l 240 -11 q 127 35 165 -6 q 76 141 89 76 q 64 301 64 206 l 64 490 q 82 682 64 613 q 144 783 100 751 q 267 815 188 815 q 422 749 382 815 q 463 556 463 682 l 463 524 l 393 524 z "},"ĉ":{"ha":521,"x_min":64,"x_max":463,"o":"m 267 -12 q 137 27 181 -12 q 78 133 93 67 q 64 301 64 200 l 64 490 q 82 682 64 613 q 144 783 100 751 q 267 815 188 815 q 422 749 382 815 q 463 556 463 682 l 463 524 l 393 524 l 393 556 q 380 681 393 636 q 340 742 367 725 q 267 760 313 760 q 185 735 213 760 q 147 655 157 710 q 138 499 138 600 l 138 290 q 149 146 138 199 q 188 68 160 93 q 268 43 215 43 q 348 66 321 43 q 384 136 375 89 q 393 269 393 183 l 393 300 l 463 300 l 463 271 q 449 118 463 178 q 392 23 435 58 q 267 -12 350 -12 m 215 1125 l 307 1125 l 425 875 l 372 875 l 261 1088 l 150 875 l 96 875 l 215 1125 z "},"ċ":{"ha":521,"x_min":64,"x_max":463,"o":"m 267 -12 q 137 27 181 -12 q 78 133 93 67 q 64 301 64 200 l 64 490 q 82 682 64 613 q 144 783 100 751 q 267 815 188 815 q 422 749 382 815 q 463 556 463 682 l 463 524 l 393 524 l 393 556 q 380 681 393 636 q 340 742 367 725 q 267 760 313 760 q 185 735 213 760 q 147 655 157 710 q 138 499 138 600 l 138 290 q 149 146 138 199 q 188 68 160 93 q 268 43 215 43 q 348 66 321 43 q 384 136 375 89 q 393 269 393 183 l 393 300 l 463 300 l 463 271 q 449 118 463 178 q 392 23 435 58 q 267 -12 350 -12 m 219 1083 l 303 1083 l 303 939 l 219 939 l 219 1083 z "},"d":{"ha":549,"x_min":64,"x_max":468,"o":"m 253 -12 q 142 22 183 -12 q 83 131 101 57 q 64 329 64 206 l 64 472 q 80 666 64 592 q 136 778 96 740 q 249 815 176 815 q 333 794 296 815 q 394 742 369 774 l 394 1125 l 468 1125 l 468 0 l 394 0 l 394 61 q 253 -12 332 -12 m 263 44 q 334 64 300 44 q 394 113 368 83 l 394 689 q 261 758 325 758 q 183 731 210 758 q 147 647 157 704 q 138 490 138 590 l 138 324 q 148 163 138 222 q 185 74 158 103 q 263 44 213 44 z "},"ð":{"ha":597,"x_min":76,"x_max":528,"o":"m 299 -15 q 128 68 181 -15 q 76 310 76 151 l 76 419 q 289 772 78 772 q 425 735 354 772 q 376 925 404 871 l 233 886 l 233 932 l 356 965 q 267 1058 326 1026 q 113 1099 207 1090 l 117 1150 q 301 1106 226 1143 q 415 985 375 1068 l 528 1014 l 528 968 l 435 943 q 488 751 461 883 q 514 461 514 618 l 514 344 q 467 72 514 158 q 299 -15 421 -15 m 301 44 q 392 78 363 44 q 432 185 422 113 q 442 393 442 257 q 436 556 442 443 q 428 679 431 668 q 394 692 419 682 q 347 708 369 703 q 306 714 325 714 q 188 632 226 714 q 149 357 149 550 q 185 120 149 196 q 301 44 222 44 z "},"ď":{"ha":619,"x_min":64,"x_max":633,"o":"m 253 -12 q 142 22 183 -12 q 83 131 101 57 q 64 329 64 206 l 64 472 q 80 666 64 592 q 136 778 96 740 q 249 815 176 815 q 333 794 296 815 q 394 742 369 774 l 394 1125 l 468 1125 l 468 0 l 394 0 l 394 61 q 253 -12 332 -12 m 263 44 q 334 64 300 44 q 394 113 368 83 l 394 689 q 261 758 325 758 q 183 731 210 758 q 147 647 157 704 q 138 490 138 590 l 138 324 q 148 163 138 222 q 185 74 158 103 q 263 44 213 44 m 536 863 q 583 912 571 888 q 594 979 594 936 l 544 979 l 544 1125 l 633 1125 l 633 994 q 617 894 633 929 q 556 831 600 858 l 536 863 z "},"đ":{"ha":569,"x_min":64,"x_max":547,"o":"m 253 -12 q 142 22 183 -12 q 83 131 101 57 q 64 329 64 206 l 64 472 q 80 666 64 592 q 136 778 96 740 q 249 815 176 815 q 333 794 296 815 q 394 742 369 774 l 394 958 l 278 958 l 278 1007 l 394 1007 l 394 1125 l 468 1125 l 468 1007 l 547 1007 l 547 958 l 468 958 l 468 0 l 394 0 l 394 61 q 253 -12 332 -12 m 263 44 q 334 64 300 44 q 394 113 368 83 l 394 689 q 261 758 325 758 q 183 731 210 758 q 147 647 157 704 q 138 490 138 590 l 138 324 q 148 163 138 222 q 185 74 158 103 q 263 44 213 44 z "},"ḋ":{"ha":549,"x_min":64,"x_max":474,"o":"m 253 -12 q 142 22 183 -12 q 83 131 101 57 q 64 329 64 206 l 64 472 q 80 666 64 592 q 136 778 96 740 q 249 815 176 815 q 333 794 296 815 q 394 742 369 774 l 394 1125 l 468 1125 l 468 0 l 394 0 l 394 61 q 253 -12 332 -12 m 263 44 q 334 64 300 44 q 394 113 368 83 l 394 689 q 261 758 325 758 q 183 731 210 758 q 147 647 157 704 q 138 490 138 590 l 138 324 q 148 163 138 222 q 185 74 158 103 q 263 44 213 44 m 390 1406 l 474 1406 l 474 1261 l 390 1261 l 390 1406 z "},"ǳ":{"ha":1000,"x_min":64,"x_max":958,"o":"m 253 -12 q 142 22 183 -12 q 83 131 101 57 q 64 329 64 206 l 64 472 q 80 666 64 592 q 136 778 96 740 q 249 815 176 815 q 333 794 296 815 q 394 742 369 774 l 394 1125 l 468 1125 l 468 0 l 394 0 l 394 61 q 253 -12 332 -12 m 263 44 q 334 64 300 44 q 394 113 368 83 l 394 689 q 261 758 325 758 q 183 731 210 758 q 147 647 157 704 q 138 490 138 590 l 138 324 q 148 163 138 222 q 185 74 158 103 q 263 44 213 44 m 593 54 l 883 746 l 624 746 l 624 803 l 958 803 l 958 754 l 671 57 l 954 57 l 954 0 l 593 0 l 593 54 z "},"ǆ":{"ha":1000,"x_min":64,"x_max":958,"o":"m 253 -12 q 142 22 183 -12 q 83 131 101 57 q 64 329 64 206 l 64 472 q 80 666 64 592 q 136 778 96 740 q 249 815 176 815 q 333 794 296 815 q 394 742 369 774 l 394 1125 l 468 1125 l 468 0 l 394 0 l 394 61 q 253 -12 332 -12 m 263 44 q 334 64 300 44 q 394 113 368 83 l 394 689 q 261 758 325 758 q 183 731 210 758 q 147 647 157 704 q 138 490 138 590 l 138 324 q 148 163 138 222 q 185 74 158 103 q 263 44 213 44 m 593 54 l 883 746 l 624 746 l 624 803 l 958 803 l 958 754 l 671 57 l 954 57 l 954 0 l 593 0 l 593 54 m 629 1125 l 692 1125 l 775 956 l 858 1125 l 921 1125 l 803 899 l 747 899 l 629 1125 z "},"e":{"ha":526,"x_min":64,"x_max":467,"o":"m 268 -12 q 156 14 200 -12 q 88 108 111 40 q 64 297 64 176 l 64 511 q 88 699 64 632 q 157 790 113 765 q 269 815 201 815 q 388 783 344 815 q 449 683 431 751 q 467 496 467 614 l 465 419 l 138 419 l 138 292 q 151 142 138 196 q 192 65 164 88 q 268 43 219 43 q 360 76 325 43 q 394 211 394 108 l 394 271 l 467 271 l 467 218 q 422 47 467 107 q 268 -12 376 -12 m 394 464 l 394 526 q 386 657 394 608 q 351 733 378 706 q 269 760 324 760 q 194 740 222 760 q 151 669 165 721 q 138 525 138 618 l 138 464 l 394 464 z "},"é":{"ha":526,"x_min":64,"x_max":467,"o":"m 268 -12 q 156 14 200 -12 q 88 108 111 40 q 64 297 64 176 l 64 511 q 88 699 64 632 q 157 790 113 765 q 269 815 201 815 q 388 783 344 815 q 449 683 431 751 q 467 496 467 614 l 465 419 l 138 419 l 138 292 q 151 142 138 196 q 192 65 164 88 q 268 43 219 43 q 360 76 325 43 q 394 211 394 108 l 394 271 l 467 271 l 467 218 q 422 47 467 107 q 268 -12 376 -12 m 394 464 l 394 526 q 386 657 394 608 q 351 733 378 706 q 269 760 324 760 q 194 740 222 760 q 151 669 165 721 q 138 525 138 618 l 138 464 l 394 464 m 335 1139 l 410 1139 l 285 869 l 246 869 l 335 1139 z "},"ĕ":{"ha":526,"x_min":64,"x_max":467,"o":"m 268 -12 q 156 14 200 -12 q 88 108 111 40 q 64 297 64 176 l 64 511 q 88 699 64 632 q 157 790 113 765 q 269 815 201 815 q 388 783 344 815 q 449 683 431 751 q 467 496 467 614 l 465 419 l 138 419 l 138 292 q 151 142 138 196 q 192 65 164 88 q 268 43 219 43 q 360 76 325 43 q 394 211 394 108 l 394 271 l 467 271 l 467 218 q 422 47 467 107 q 268 -12 376 -12 m 394 464 l 394 526 q 386 657 394 608 q 351 733 378 706 q 269 760 324 760 q 194 740 222 760 q 151 669 165 721 q 138 525 138 618 l 138 464 l 394 464 m 263 888 q 149 926 190 888 q 106 1042 108 964 l 157 1042 q 263 935 158 935 q 371 1042 364 935 l 422 1042 q 377 926 419 965 q 263 888 335 888 z "},"ě":{"ha":526,"x_min":64,"x_max":467,"o":"m 268 -12 q 156 14 200 -12 q 88 108 111 40 q 64 297 64 176 l 64 511 q 88 699 64 632 q 157 790 113 765 q 269 815 201 815 q 388 783 344 815 q 449 683 431 751 q 467 496 467 614 l 465 419 l 138 419 l 138 292 q 151 142 138 196 q 192 65 164 88 q 268 43 219 43 q 360 76 325 43 q 394 211 394 108 l 394 271 l 467 271 l 467 218 q 422 47 467 107 q 268 -12 376 -12 m 394 464 l 394 526 q 386 657 394 608 q 351 733 378 706 q 269 760 324 760 q 194 740 222 760 q 151 669 165 721 q 138 525 138 618 l 138 464 l 394 464 m 118 1125 l 181 1125 l 264 956 l 347 1125 l 410 1125 l 292 899 l 236 899 l 118 1125 z "},"ê":{"ha":526,"x_min":64,"x_max":467,"o":"m 268 -12 q 156 14 200 -12 q 88 108 111 40 q 64 297 64 176 l 64 511 q 88 699 64 632 q 157 790 113 765 q 269 815 201 815 q 388 783 344 815 q 449 683 431 751 q 467 496 467 614 l 465 419 l 138 419 l 138 292 q 151 142 138 196 q 192 65 164 88 q 268 43 219 43 q 360 76 325 43 q 394 211 394 108 l 394 271 l 467 271 l 467 218 q 422 47 467 107 q 268 -12 376 -12 m 394 464 l 394 526 q 386 657 394 608 q 351 733 378 706 q 269 760 324 760 q 194 740 222 760 q 151 669 165 721 q 138 525 138 618 l 138 464 l 394 464 m 218 1125 l 310 1125 l 428 875 l 375 875 l 264 1088 l 153 875 l 99 875 l 218 1125 z "},"ế":{"ha":526,"x_min":64,"x_max":553,"o":"m 268 -12 q 156 14 200 -12 q 88 108 111 40 q 64 297 64 176 l 64 511 q 88 699 64 632 q 157 790 113 765 q 269 815 201 815 q 388 783 344 815 q 449 683 431 751 q 467 496 467 614 l 465 419 l 138 419 l 138 292 q 151 142 138 196 q 192 65 164 88 q 268 43 219 43 q 360 76 325 43 q 394 211 394 108 l 394 271 l 467 271 l 467 218 q 422 47 467 107 q 268 -12 376 -12 m 394 464 l 394 526 q 386 657 394 608 q 351 733 378 706 q 269 760 324 760 q 194 740 222 760 q 151 669 165 721 q 138 525 138 618 l 138 464 l 394 464 m 481 1158 l 553 1158 l 460 999 l 407 999 l 481 1158 m 218 1069 l 310 1069 l 428 875 l 375 875 l 264 1035 l 153 875 l 99 875 l 218 1069 z "},"ệ":{"ha":526,"x_min":64,"x_max":467,"o":"m 268 -12 q 156 14 200 -12 q 88 108 111 40 q 64 297 64 176 l 64 511 q 88 699 64 632 q 157 790 113 765 q 269 815 201 815 q 388 783 344 815 q 449 683 431 751 q 467 496 467 614 l 465 419 l 138 419 l 138 292 q 151 142 138 196 q 192 65 164 88 q 268 43 219 43 q 360 76 325 43 q 394 211 394 108 l 394 271 l 467 271 l 467 218 q 422 47 467 107 q 268 -12 376 -12 m 394 464 l 394 526 q 386 657 394 608 q 351 733 378 706 q 269 760 324 760 q 194 740 222 760 q 151 669 165 721 q 138 525 138 618 l 138 464 l 394 464 m 222 -83 l 306 -83 l 306 -187 l 222 -187 l 222 -83 m 218 1069 l 310 1069 l 428 875 l 375 875 l 264 1035 l 153 875 l 99 875 l 218 1069 z "},"ề":{"ha":526,"x_min":64,"x_max":496,"o":"m 268 -12 q 156 14 200 -12 q 88 108 111 40 q 64 297 64 176 l 64 511 q 88 699 64 632 q 157 790 113 765 q 269 815 201 815 q 388 783 344 815 q 449 683 431 751 q 467 496 467 614 l 465 419 l 138 419 l 138 292 q 151 142 138 196 q 192 65 164 88 q 268 43 219 43 q 360 76 325 43 q 394 211 394 108 l 394 271 l 467 271 l 467 218 q 422 47 467 107 q 268 -12 376 -12 m 394 464 l 394 526 q 386 657 394 608 q 351 733 378 706 q 269 760 324 760 q 194 740 222 760 q 151 669 165 721 q 138 525 138 618 l 138 464 l 394 464 m 350 1158 l 422 1158 l 496 999 l 443 999 l 350 1158 m 218 1069 l 310 1069 l 428 875 l 375 875 l 264 1035 l 153 875 l 99 875 l 218 1069 z "},"ể":{"ha":526,"x_min":64,"x_max":517,"o":"m 268 -12 q 156 14 200 -12 q 88 108 111 40 q 64 297 64 176 l 64 511 q 88 699 64 632 q 157 790 113 765 q 269 815 201 815 q 388 783 344 815 q 449 683 431 751 q 467 496 467 614 l 465 419 l 138 419 l 138 292 q 151 142 138 196 q 192 65 164 88 q 268 43 219 43 q 360 76 325 43 q 394 211 394 108 l 394 271 l 467 271 l 467 218 q 422 47 467 107 q 268 -12 376 -12 m 394 464 l 394 526 q 386 657 394 608 q 351 733 378 706 q 269 760 324 760 q 194 740 222 760 q 151 669 165 721 q 138 525 138 618 l 138 464 l 394 464 m 396 1029 q 444 1065 429 1047 q 460 1104 460 1082 q 400 1151 460 1151 q 338 1142 368 1151 l 338 1179 q 414 1192 376 1192 q 490 1170 463 1192 q 517 1108 517 1149 q 493 1045 517 1071 q 426 997 469 1019 l 396 1029 m 218 1069 l 310 1069 l 428 875 l 375 875 l 264 1035 l 153 875 l 99 875 l 218 1069 z "},"ễ":{"ha":526,"x_min":64,"x_max":467,"o":"m 268 -12 q 156 14 200 -12 q 88 108 111 40 q 64 297 64 176 l 64 511 q 88 699 64 632 q 157 790 113 765 q 269 815 201 815 q 388 783 344 815 q 449 683 431 751 q 467 496 467 614 l 465 419 l 138 419 l 138 292 q 151 142 138 196 q 192 65 164 88 q 268 43 219 43 q 360 76 325 43 q 394 211 394 108 l 394 271 l 467 271 l 467 218 q 422 47 467 107 q 268 -12 376 -12 m 394 464 l 394 526 q 386 657 394 608 q 351 733 378 706 q 269 760 324 760 q 194 740 222 760 q 151 669 165 721 q 138 525 138 618 l 138 464 l 394 464 m 218 1069 l 310 1069 l 428 875 l 375 875 l 264 1035 l 153 875 l 99 875 l 218 1069 m 336 1139 q 296 1148 314 1139 q 253 1175 278 1157 q 219 1197 232 1190 q 193 1204 207 1204 q 162 1190 174 1204 q 150 1150 150 1176 l 100 1150 q 119 1219 100 1183 q 186 1256 138 1256 q 229 1246 210 1256 q 276 1218 249 1236 q 335 1190 311 1190 q 368 1205 357 1190 q 381 1253 379 1219 l 428 1253 q 409 1176 428 1213 q 336 1139 390 1139 z "},"ȅ":{"ha":526,"x_min":49,"x_max":467,"o":"m 268 -12 q 156 14 200 -12 q 88 108 111 40 q 64 297 64 176 l 64 511 q 88 699 64 632 q 157 790 113 765 q 269 815 201 815 q 388 783 344 815 q 449 683 431 751 q 467 496 467 614 l 465 419 l 138 419 l 138 292 q 151 142 138 196 q 192 65 164 88 q 268 43 219 43 q 360 76 325 43 q 394 211 394 108 l 394 271 l 467 271 l 467 218 q 422 47 467 107 q 268 -12 376 -12 m 394 464 l 394 526 q 386 657 394 608 q 351 733 378 706 q 269 760 324 760 q 194 740 222 760 q 151 669 165 721 q 138 525 138 618 l 138 464 l 394 464 m 49 1125 l 131 1125 l 208 921 l 168 921 l 49 1125 m 211 1125 l 283 1125 l 342 921 l 304 921 l 211 1125 z "},"ë":{"ha":526,"x_min":64,"x_max":467,"o":"m 268 -12 q 156 14 200 -12 q 88 108 111 40 q 64 297 64 176 l 64 511 q 88 699 64 632 q 157 790 113 765 q 269 815 201 815 q 388 783 344 815 q 449 683 431 751 q 467 496 467 614 l 465 419 l 138 419 l 138 292 q 151 142 138 196 q 192 65 164 88 q 268 43 219 43 q 360 76 325 43 q 394 211 394 108 l 394 271 l 467 271 l 467 218 q 422 47 467 107 q 268 -12 376 -12 m 394 464 l 394 526 q 386 657 394 608 q 351 733 378 706 q 269 760 324 760 q 194 740 222 760 q 151 669 165 721 q 138 525 138 618 l 138 464 l 394 464 m 115 1125 l 192 1125 l 192 1019 l 115 1019 l 115 1125 m 338 1125 l 415 1125 l 415 1019 l 338 1019 l 338 1125 z "},"ė":{"ha":526,"x_min":64,"x_max":467,"o":"m 268 -12 q 156 14 200 -12 q 88 108 111 40 q 64 297 64 176 l 64 511 q 88 699 64 632 q 157 790 113 765 q 269 815 201 815 q 388 783 344 815 q 449 683 431 751 q 467 496 467 614 l 465 419 l 138 419 l 138 292 q 151 142 138 196 q 192 65 164 88 q 268 43 219 43 q 360 76 325 43 q 394 211 394 108 l 394 271 l 467 271 l 467 218 q 422 47 467 107 q 268 -12 376 -12 m 394 464 l 394 526 q 386 657 394 608 q 351 733 378 706 q 269 760 324 760 q 194 740 222 760 q 151 669 165 721 q 138 525 138 618 l 138 464 l 394 464 m 222 1083 l 306 1083 l 306 939 l 222 939 l 222 1083 z "},"ẹ":{"ha":526,"x_min":64,"x_max":467,"o":"m 268 -12 q 156 14 200 -12 q 88 108 111 40 q 64 297 64 176 l 64 511 q 88 699 64 632 q 157 790 113 765 q 269 815 201 815 q 388 783 344 815 q 449 683 431 751 q 467 496 467 614 l 465 419 l 138 419 l 138 292 q 151 142 138 196 q 192 65 164 88 q 268 43 219 43 q 360 76 325 43 q 394 211 394 108 l 394 271 l 467 271 l 467 218 q 422 47 467 107 q 268 -12 376 -12 m 394 464 l 394 526 q 386 657 394 608 q 351 733 378 706 q 269 760 324 760 q 194 740 222 760 q 151 669 165 721 q 138 525 138 618 l 138 464 l 394 464 m 222 -83 l 306 -83 l 306 -187 l 222 -187 l 222 -83 z "},"è":{"ha":526,"x_min":64,"x_max":467,"o":"m 268 -12 q 156 14 200 -12 q 88 108 111 40 q 64 297 64 176 l 64 511 q 88 699 64 632 q 157 790 113 765 q 269 815 201 815 q 388 783 344 815 q 449 683 431 751 q 467 496 467 614 l 465 419 l 138 419 l 138 292 q 151 142 138 196 q 192 65 164 88 q 268 43 219 43 q 360 76 325 43 q 394 211 394 108 l 394 271 l 467 271 l 467 218 q 422 47 467 107 q 268 -12 376 -12 m 394 464 l 394 526 q 386 657 394 608 q 351 733 378 706 q 269 760 324 760 q 194 740 222 760 q 151 669 165 721 q 138 525 138 618 l 138 464 l 394 464 m 131 1139 l 206 1139 l 281 869 l 243 869 l 131 1139 z "},"ẻ":{"ha":526,"x_min":64,"x_max":467,"o":"m 268 -12 q 156 14 200 -12 q 88 108 111 40 q 64 297 64 176 l 64 511 q 88 699 64 632 q 157 790 113 765 q 269 815 201 815 q 388 783 344 815 q 449 683 431 751 q 467 496 467 614 l 465 419 l 138 419 l 138 292 q 151 142 138 196 q 192 65 164 88 q 268 43 219 43 q 360 76 325 43 q 394 211 394 108 l 394 271 l 467 271 l 467 218 q 422 47 467 107 q 268 -12 376 -12 m 394 464 l 394 526 q 386 657 394 608 q 351 733 378 706 q 269 760 324 760 q 194 740 222 760 q 151 669 165 721 q 138 525 138 618 l 138 464 l 394 464 m 232 949 q 283 985 267 968 q 299 1024 299 1001 q 283 1060 299 1049 q 235 1071 268 1071 q 174 1064 211 1071 l 174 1103 q 247 1111 211 1111 q 356 1028 356 1111 q 331 965 356 990 q 263 917 307 939 l 232 949 z "},"ȇ":{"ha":526,"x_min":64,"x_max":467,"o":"m 268 -12 q 156 14 200 -12 q 88 108 111 40 q 64 297 64 176 l 64 511 q 88 699 64 632 q 157 790 113 765 q 269 815 201 815 q 388 783 344 815 q 449 683 431 751 q 467 496 467 614 l 465 419 l 138 419 l 138 292 q 151 142 138 196 q 192 65 164 88 q 268 43 219 43 q 360 76 325 43 q 394 211 394 108 l 394 271 l 467 271 l 467 218 q 422 47 467 107 q 268 -12 376 -12 m 394 464 l 394 526 q 386 657 394 608 q 351 733 378 706 q 269 760 324 760 q 194 740 222 760 q 151 669 165 721 q 138 525 138 618 l 138 464 l 394 464 m 106 971 q 151 1086 108 1047 q 264 1125 193 1125 q 378 1086 336 1125 q 422 971 419 1047 l 371 971 q 264 1076 367 1076 q 157 971 163 1076 l 106 971 z "},"ē":{"ha":526,"x_min":64,"x_max":467,"o":"m 268 -12 q 156 14 200 -12 q 88 108 111 40 q 64 297 64 176 l 64 511 q 88 699 64 632 q 157 790 113 765 q 269 815 201 815 q 388 783 344 815 q 449 683 431 751 q 467 496 467 614 l 465 419 l 138 419 l 138 292 q 151 142 138 196 q 192 65 164 88 q 268 43 219 43 q 360 76 325 43 q 394 211 394 108 l 394 271 l 467 271 l 467 218 q 422 47 467 107 q 268 -12 376 -12 m 394 464 l 394 526 q 386 657 394 608 q 351 733 378 706 q 269 760 324 760 q 194 740 222 760 q 151 669 165 721 q 138 525 138 618 l 138 464 l 394 464 m 144 1028 l 383 1028 l 383 972 l 144 972 l 144 1028 z "},"ę":{"ha":526,"x_min":64,"x_max":467,"o":"m 394 271 l 467 271 l 467 218 q 433 65 467 122 q 321 -8 399 7 q 267 -80 286 -46 q 249 -149 249 -114 q 276 -203 249 -185 q 349 -222 304 -222 q 374 -219 360 -222 l 365 -262 q 329 -265 349 -265 q 228 -236 265 -265 q 190 -154 190 -207 q 267 -12 190 -79 q 155 15 199 -12 q 88 109 111 42 q 64 297 64 176 l 64 511 q 88 699 64 632 q 157 790 113 765 q 269 815 201 815 q 388 783 344 815 q 449 683 431 751 q 467 496 467 614 l 465 419 l 138 419 l 138 292 q 151 142 138 196 q 192 65 164 88 q 268 43 219 43 q 360 76 325 43 q 394 211 394 108 l 394 271 m 138 464 l 394 464 l 394 526 q 386 657 394 608 q 351 733 378 706 q 269 760 324 760 q 194 740 222 760 q 151 669 165 721 q 138 525 138 618 l 138 464 z "},"ẽ":{"ha":526,"x_min":64,"x_max":467,"o":"m 268 -12 q 156 14 200 -12 q 88 108 111 40 q 64 297 64 176 l 64 511 q 88 699 64 632 q 157 790 113 765 q 269 815 201 815 q 388 783 344 815 q 449 683 431 751 q 467 496 467 614 l 465 419 l 138 419 l 138 292 q 151 142 138 196 q 192 65 164 88 q 268 43 219 43 q 360 76 325 43 q 394 211 394 108 l 394 271 l 467 271 l 467 218 q 422 47 467 107 q 268 -12 376 -12 m 394 464 l 394 526 q 386 657 394 608 q 351 733 378 706 q 269 760 324 760 q 194 740 222 760 q 151 669 165 721 q 138 525 138 618 l 138 464 l 394 464 m 336 954 q 296 963 314 954 q 253 990 278 972 q 219 1013 232 1006 q 193 1019 207 1019 q 162 1006 174 1019 q 150 965 150 992 l 100 965 q 119 1035 100 999 q 186 1071 138 1071 q 229 1061 210 1071 q 276 1033 249 1051 q 335 1006 311 1006 q 368 1020 357 1006 q 381 1068 379 1035 l 428 1068 q 409 991 428 1028 q 336 954 390 954 z "},"ə":{"ha":526,"x_min":57,"x_max":463,"o":"m 257 -15 q 138 17 182 -15 q 76 118 94 49 q 60 304 57 188 l 61 381 l 389 381 l 389 511 q 376 661 389 607 q 335 738 363 715 q 258 760 307 760 q 167 727 201 760 q 132 592 132 694 l 132 532 l 60 532 l 60 585 q 105 756 60 696 q 258 815 150 815 q 371 789 326 815 q 439 694 415 763 q 463 506 463 626 l 463 289 q 438 101 463 168 q 369 10 414 35 q 257 -15 325 -15 m 257 40 q 333 60 304 40 q 375 131 361 79 q 389 275 389 182 l 389 336 l 132 336 l 132 274 q 140 143 132 192 q 176 67 149 94 q 257 40 203 40 z "},"f":{"ha":356,"x_min":24,"x_max":340,"o":"m 132 751 l 24 751 l 24 803 l 132 803 l 132 911 q 140 1009 132 971 q 177 1070 149 1047 q 263 1093 206 1093 q 336 1083 306 1093 l 336 1028 q 309 1033 328 1029 q 278 1036 290 1036 q 219 1009 233 1036 q 206 913 206 982 l 206 803 l 340 803 l 340 751 l 206 751 l 206 0 l 132 0 l 132 751 z "},"ḟ":{"ha":356,"x_min":24,"x_max":340,"o":"m 132 751 l 24 751 l 24 803 l 132 803 l 132 911 q 140 1009 132 971 q 177 1070 149 1047 q 263 1093 206 1093 q 336 1083 306 1093 l 336 1028 q 309 1033 328 1029 q 278 1036 290 1036 q 219 1009 233 1036 q 206 913 206 982 l 206 803 l 340 803 l 340 751 l 206 751 l 206 0 l 132 0 l 132 751 m 194 1364 l 278 1364 l 278 1219 l 194 1219 l 194 1364 z "},"g":{"ha":596,"x_min":21,"x_max":611,"o":"m 281 -272 q 21 -131 21 -272 q 63 -24 21 -74 q 164 57 106 26 q 97 81 126 65 q 67 117 67 97 q 96 197 67 153 q 167 290 125 242 q 61 539 61 367 q 85 672 61 610 q 159 775 108 735 q 285 815 210 815 q 463 708 406 815 q 506 762 476 735 q 571 803 536 789 l 590 810 l 611 754 q 539 723 575 746 q 482 674 503 700 q 500 605 492 647 q 508 538 508 563 q 454 333 508 410 q 288 256 400 256 q 240 260 264 256 q 201 269 215 264 l 182 239 q 131 140 131 167 q 197 113 131 125 q 247 101 222 106 q 290 92 271 96 l 328 85 q 485 21 432 63 q 539 -94 539 -21 q 466 -228 539 -183 q 281 -272 393 -272 m 288 310 q 440 539 440 310 q 406 692 440 624 q 286 761 371 761 q 165 690 201 761 q 129 539 129 618 q 163 380 129 450 q 288 310 196 310 m 281 -212 q 422 -183 368 -212 q 476 -96 476 -154 q 463 -42 476 -64 q 410 -3 449 -21 q 300 29 372 14 l 213 44 q 122 -24 160 14 q 85 -112 85 -62 q 134 -188 85 -164 q 281 -212 183 -212 z "},"ǵ":{"ha":596,"x_min":21,"x_max":611,"o":"m 281 -272 q 21 -131 21 -272 q 63 -24 21 -74 q 164 57 106 26 q 97 81 126 65 q 67 117 67 97 q 96 197 67 153 q 167 290 125 242 q 61 539 61 367 q 85 672 61 610 q 159 775 108 735 q 285 815 210 815 q 463 708 406 815 q 506 762 476 735 q 571 803 536 789 l 590 810 l 611 754 q 539 723 575 746 q 482 674 503 700 q 500 605 492 647 q 508 538 508 563 q 454 333 508 410 q 288 256 400 256 q 240 260 264 256 q 201 269 215 264 l 182 239 q 131 140 131 167 q 197 113 131 125 q 247 101 222 106 q 290 92 271 96 l 328 85 q 485 21 432 63 q 539 -94 539 -21 q 466 -228 539 -183 q 281 -272 393 -272 m 288 310 q 440 539 440 310 q 406 692 440 624 q 286 761 371 761 q 165 690 201 761 q 129 539 129 618 q 163 380 129 450 q 288 310 196 310 m 281 -212 q 422 -183 368 -212 q 476 -96 476 -154 q 463 -42 476 -64 q 410 -3 449 -21 q 300 29 372 14 l 213 44 q 122 -24 160 14 q 85 -112 85 -62 q 134 -188 85 -164 q 281 -212 183 -212 m 369 1139 l 444 1139 l 319 869 l 281 869 l 369 1139 z "},"ğ":{"ha":596,"x_min":21,"x_max":611,"o":"m 281 -272 q 21 -131 21 -272 q 63 -24 21 -74 q 164 57 106 26 q 97 81 126 65 q 67 117 67 97 q 96 197 67 153 q 167 290 125 242 q 61 539 61 367 q 85 672 61 610 q 159 775 108 735 q 285 815 210 815 q 463 708 406 815 q 506 762 476 735 q 571 803 536 789 l 590 810 l 611 754 q 539 723 575 746 q 482 674 503 700 q 500 605 492 647 q 508 538 508 563 q 454 333 508 410 q 288 256 400 256 q 240 260 264 256 q 201 269 215 264 l 182 239 q 131 140 131 167 q 197 113 131 125 q 247 101 222 106 q 290 92 271 96 l 328 85 q 485 21 432 63 q 539 -94 539 -21 q 466 -228 539 -183 q 281 -272 393 -272 m 288 310 q 440 539 440 310 q 406 692 440 624 q 286 761 371 761 q 165 690 201 761 q 129 539 129 618 q 163 380 129 450 q 288 310 196 310 m 281 -212 q 422 -183 368 -212 q 476 -96 476 -154 q 463 -42 476 -64 q 410 -3 449 -21 q 300 29 372 14 l 213 44 q 122 -24 160 14 q 85 -112 85 -62 q 134 -188 85 -164 q 281 -212 183 -212 m 297 888 q 184 926 225 888 q 140 1042 143 964 l 192 1042 q 297 935 193 935 q 406 1042 399 935 l 457 1042 q 412 926 454 965 q 297 888 369 888 z "},"ǧ":{"ha":596,"x_min":21,"x_max":611,"o":"m 281 -272 q 21 -131 21 -272 q 63 -24 21 -74 q 164 57 106 26 q 97 81 126 65 q 67 117 67 97 q 96 197 67 153 q 167 290 125 242 q 61 539 61 367 q 85 672 61 610 q 159 775 108 735 q 285 815 210 815 q 463 708 406 815 q 506 762 476 735 q 571 803 536 789 l 590 810 l 611 754 q 539 723 575 746 q 482 674 503 700 q 500 605 492 647 q 508 538 508 563 q 454 333 508 410 q 288 256 400 256 q 240 260 264 256 q 201 269 215 264 l 182 239 q 131 140 131 167 q 197 113 131 125 q 247 101 222 106 q 290 92 271 96 l 328 85 q 485 21 432 63 q 539 -94 539 -21 q 466 -228 539 -183 q 281 -272 393 -272 m 288 310 q 440 539 440 310 q 406 692 440 624 q 286 761 371 761 q 165 690 201 761 q 129 539 129 618 q 163 380 129 450 q 288 310 196 310 m 281 -212 q 422 -183 368 -212 q 476 -96 476 -154 q 463 -42 476 -64 q 410 -3 449 -21 q 300 29 372 14 l 213 44 q 122 -24 160 14 q 85 -112 85 -62 q 134 -188 85 -164 q 281 -212 183 -212 m 153 1125 l 215 1125 l 299 956 l 382 1125 l 444 1125 l 326 899 l 271 899 l 153 1125 z "},"ĝ":{"ha":596,"x_min":21,"x_max":611,"o":"m 281 -272 q 21 -131 21 -272 q 63 -24 21 -74 q 164 57 106 26 q 97 81 126 65 q 67 117 67 97 q 96 197 67 153 q 167 290 125 242 q 61 539 61 367 q 85 672 61 610 q 159 775 108 735 q 285 815 210 815 q 463 708 406 815 q 506 762 476 735 q 571 803 536 789 l 590 810 l 611 754 q 539 723 575 746 q 482 674 503 700 q 500 605 492 647 q 508 538 508 563 q 454 333 508 410 q 288 256 400 256 q 240 260 264 256 q 201 269 215 264 l 182 239 q 131 140 131 167 q 197 113 131 125 q 247 101 222 106 q 290 92 271 96 l 328 85 q 485 21 432 63 q 539 -94 539 -21 q 466 -228 539 -183 q 281 -272 393 -272 m 288 310 q 440 539 440 310 q 406 692 440 624 q 286 761 371 761 q 165 690 201 761 q 129 539 129 618 q 163 380 129 450 q 288 310 196 310 m 281 -212 q 422 -183 368 -212 q 476 -96 476 -154 q 463 -42 476 -64 q 410 -3 449 -21 q 300 29 372 14 l 213 44 q 122 -24 160 14 q 85 -112 85 -62 q 134 -188 85 -164 q 281 -212 183 -212 m 253 1125 l 344 1125 l 463 875 l 410 875 l 299 1088 l 188 875 l 133 875 l 253 1125 z "},"ģ":{"ha":596,"x_min":21,"x_max":611,"o":"m 281 -272 q 21 -131 21 -272 q 63 -24 21 -74 q 164 57 106 26 q 97 81 126 65 q 67 117 67 97 q 96 197 67 153 q 167 290 125 242 q 61 539 61 367 q 85 672 61 610 q 159 775 108 735 q 285 815 210 815 q 463 708 406 815 q 506 762 476 735 q 571 803 536 789 l 590 810 l 611 754 q 539 723 575 746 q 482 674 503 700 q 500 605 492 647 q 508 538 508 563 q 454 333 508 410 q 288 256 400 256 q 240 260 264 256 q 201 269 215 264 l 182 239 q 131 140 131 167 q 197 113 131 125 q 247 101 222 106 q 290 92 271 96 l 328 85 q 485 21 432 63 q 539 -94 539 -21 q 466 -228 539 -183 q 281 -272 393 -272 m 288 310 q 440 539 440 310 q 406 692 440 624 q 286 761 371 761 q 165 690 201 761 q 129 539 129 618 q 163 380 129 450 q 288 310 196 310 m 281 -212 q 422 -183 368 -212 q 476 -96 476 -154 q 463 -42 476 -64 q 410 -3 449 -21 q 300 29 372 14 l 213 44 q 122 -24 160 14 q 85 -112 85 -62 q 134 -188 85 -164 q 281 -212 183 -212 m 349 1110 q 304 1056 317 1089 q 292 993 292 1024 l 340 993 l 340 889 l 250 889 l 250 975 q 267 1079 250 1042 q 331 1139 285 1117 l 349 1110 z "},"ġ":{"ha":596,"x_min":21,"x_max":611,"o":"m 281 -272 q 21 -131 21 -272 q 63 -24 21 -74 q 164 57 106 26 q 97 81 126 65 q 67 117 67 97 q 96 197 67 153 q 167 290 125 242 q 61 539 61 367 q 85 672 61 610 q 159 775 108 735 q 285 815 210 815 q 463 708 406 815 q 506 762 476 735 q 571 803 536 789 l 590 810 l 611 754 q 539 723 575 746 q 482 674 503 700 q 500 605 492 647 q 508 538 508 563 q 454 333 508 410 q 288 256 400 256 q 240 260 264 256 q 201 269 215 264 l 182 239 q 131 140 131 167 q 197 113 131 125 q 247 101 222 106 q 290 92 271 96 l 328 85 q 485 21 432 63 q 539 -94 539 -21 q 466 -228 539 -183 q 281 -272 393 -272 m 288 310 q 440 539 440 310 q 406 692 440 624 q 286 761 371 761 q 165 690 201 761 q 129 539 129 618 q 163 380 129 450 q 288 310 196 310 m 281 -212 q 422 -183 368 -212 q 476 -96 476 -154 q 463 -42 476 -64 q 410 -3 449 -21 q 300 29 372 14 l 213 44 q 122 -24 160 14 q 85 -112 85 -62 q 134 -188 85 -164 q 281 -212 183 -212 m 257 1083 l 340 1083 l 340 939 l 257 939 l 257 1083 z "},"h":{"ha":544,"x_min":79,"x_max":471,"o":"m 79 1125 l 153 1125 l 153 718 q 242 790 193 764 q 344 815 292 815 q 436 773 401 815 q 471 640 471 731 l 471 0 l 396 0 l 396 632 q 375 731 396 703 q 313 758 354 758 q 232 735 274 758 q 153 669 190 711 l 153 0 l 79 0 l 79 1125 z "},"ħ":{"ha":543,"x_min":-12,"x_max":469,"o":"m 79 974 l -12 974 l -12 1021 l 79 1021 l 79 1125 l 153 1125 l 153 1021 l 317 1021 l 317 974 l 153 974 l 153 718 q 240 790 192 764 q 343 815 289 815 q 435 773 400 815 q 469 640 469 731 l 469 0 l 396 0 l 396 632 q 374 730 396 701 q 311 758 353 758 q 231 735 272 758 q 153 669 190 711 l 153 0 l 79 0 l 79 974 z "},"ĥ":{"ha":544,"x_min":-49,"x_max":471,"o":"m 79 1125 l 153 1125 l 153 718 q 242 790 193 764 q 344 815 292 815 q 436 773 401 815 q 471 640 471 731 l 471 0 l 396 0 l 396 632 q 375 731 396 703 q 313 758 354 758 q 232 735 274 758 q 153 669 190 711 l 153 0 l 79 0 l 79 1125 m 71 1447 l 163 1447 l 281 1197 l 228 1197 l 117 1410 l 6 1197 l -49 1197 l 71 1447 z "},"i":{"ha":263,"x_min":90,"x_max":165,"o":"m 90 1036 l 165 1036 l 165 908 l 90 908 l 90 1036 m 90 803 l 165 803 l 165 0 l 90 0 l 90 803 z "},"ı":{"ha":253,"x_min":90,"x_max":164,"o":"m 90 803 l 164 803 l 164 0 l 90 0 l 90 803 z "},"í":{"ha":253,"x_min":90,"x_max":274,"o":"m 90 803 l 164 803 l 164 0 l 90 0 l 90 803 m 199 1139 l 274 1139 l 149 869 l 110 869 l 199 1139 z "},"ĭ":{"ha":253,"x_min":-31,"x_max":286,"o":"m 90 803 l 164 803 l 164 0 l 90 0 l 90 803 m 126 888 q 13 926 54 888 q -31 1042 -28 964 l 21 1042 q 126 935 22 935 q 235 1042 228 935 l 286 1042 q 241 926 283 965 q 126 888 199 888 z "},"î":{"ha":253,"x_min":-37,"x_max":292,"o":"m 90 803 l 164 803 l 164 0 l 90 0 l 90 803 m 82 1125 l 174 1125 l 292 875 l 239 875 l 128 1088 l 17 875 l -37 875 l 82 1125 z "},"ȉ":{"ha":253,"x_min":-87,"x_max":206,"o":"m 90 803 l 164 803 l 164 0 l 90 0 l 90 803 m -87 1125 l -6 1125 l 72 921 l 32 921 l -87 1125 m 75 1125 l 147 1125 l 206 921 l 168 921 l 75 1125 z "},"ï":{"ha":253,"x_min":-21,"x_max":279,"o":"m 90 803 l 164 803 l 164 0 l 90 0 l 90 803 m -21 1125 l 56 1125 l 56 1019 l -21 1019 l -21 1125 m 201 1125 l 279 1125 l 279 1019 l 201 1019 l 201 1125 z "},"ị":{"ha":263,"x_min":90,"x_max":174,"o":"m 90 1036 l 165 1036 l 165 908 l 90 908 l 90 1036 m 90 803 l 165 803 l 165 0 l 90 0 l 90 803 m 90 -83 l 174 -83 l 174 -187 l 90 -187 l 90 -83 z "},"ì":{"ha":253,"x_min":-6,"x_max":164,"o":"m 90 803 l 164 803 l 164 0 l 90 0 l 90 803 m -6 1139 l 69 1139 l 144 869 l 107 869 l -6 1139 z "},"ỉ":{"ha":253,"x_min":38,"x_max":219,"o":"m 90 803 l 164 803 l 164 0 l 90 0 l 90 803 m 96 949 q 147 985 131 968 q 163 1024 163 1001 q 147 1060 163 1049 q 99 1071 132 1071 q 38 1064 75 1071 l 38 1103 q 111 1111 75 1111 q 219 1028 219 1111 q 195 965 219 990 q 126 917 171 939 l 96 949 z "},"ȋ":{"ha":253,"x_min":-31,"x_max":286,"o":"m 90 803 l 164 803 l 164 0 l 90 0 l 90 803 m -31 971 q 15 1086 -28 1047 q 128 1125 57 1125 q 242 1086 200 1125 q 286 971 283 1047 l 235 971 q 128 1076 231 1076 q 21 971 26 1076 l -31 971 z "},"ĳ":{"ha":543,"x_min":90,"x_max":449,"o":"m 90 1036 l 165 1036 l 165 908 l 90 908 l 90 1036 m 90 803 l 165 803 l 165 0 l 90 0 l 90 803 m 375 1036 l 449 1036 l 449 908 l 375 908 l 375 1036 m 282 -215 q 240 -212 251 -215 l 240 -153 q 274 -154 243 -154 q 357 -123 339 -154 q 375 -35 375 -92 l 375 803 l 449 803 l 449 -39 q 406 -174 449 -132 q 282 -215 364 -215 z "},"ī":{"ha":253,"x_min":8,"x_max":247,"o":"m 90 803 l 164 803 l 164 0 l 90 0 l 90 803 m 8 1028 l 247 1028 l 247 972 l 8 972 l 8 1028 z "},"į":{"ha":263,"x_min":-3,"x_max":181,"o":"m 90 1036 l 165 1036 l 165 908 l 90 908 l 90 1036 m 90 803 l 165 803 l 165 0 l 90 0 l 90 803 m 136 -279 q 35 -250 72 -279 q -3 -168 -3 -221 q 27 -78 -3 -121 q 107 0 57 -35 l 149 0 q 79 -85 103 -46 q 56 -162 56 -124 q 83 -217 56 -199 q 156 -236 111 -236 q 181 -233 167 -236 l 172 -276 q 136 -279 156 -279 z "},"ĩ":{"ha":253,"x_min":-36,"x_max":292,"o":"m 90 803 l 164 803 l 164 0 l 90 0 l 90 803 m 200 954 q 160 963 178 954 q 117 990 142 972 q 83 1013 96 1006 q 57 1019 71 1019 q 26 1006 38 1019 q 14 965 14 992 l -36 965 q -17 1035 -36 999 q 50 1071 1 1071 q 93 1061 74 1071 q 140 1033 113 1051 q 199 1006 175 1006 q 232 1020 221 1006 q 244 1068 243 1035 l 292 1068 q 273 991 292 1028 q 200 954 254 954 z "},"j":{"ha":281,"x_min":-22,"x_max":186,"o":"m 113 1036 l 186 1036 l 186 908 l 113 908 l 113 1036 m 19 -215 q -22 -212 -11 -215 l -22 -153 q 11 -154 -19 -154 q 94 -123 76 -154 q 113 -35 113 -92 l 113 803 l 186 803 l 186 -39 q 144 -174 186 -132 q 19 -215 101 -215 z "},"ȷ":{"ha":281,"x_min":-22,"x_max":186,"o":"m 19 -215 q -22 -212 -11 -215 l -22 -153 q 11 -154 -19 -154 q 94 -123 76 -154 q 113 -35 113 -92 l 113 803 l 186 803 l 186 -39 q 144 -174 186 -132 q 19 -215 101 -215 z "},"ĵ":{"ha":281,"x_min":-22,"x_max":314,"o":"m 19 -215 q -22 -212 -11 -215 l -22 -153 q 11 -154 -19 -154 q 94 -123 76 -154 q 113 -35 113 -92 l 113 803 l 186 803 l 186 -39 q 144 -174 186 -132 q 19 -215 101 -215 m 104 1125 l 196 1125 l 314 875 l 261 875 l 150 1088 l 39 875 l -15 875 l 104 1125 z "},"k":{"ha":532,"x_min":79,"x_max":531,"o":"m 79 1125 l 153 1125 l 153 383 l 451 803 l 531 803 l 319 496 l 519 0 l 444 0 l 264 451 l 153 301 l 153 0 l 79 0 l 79 1125 z "},"ķ":{"ha":532,"x_min":79,"x_max":531,"o":"m 79 1125 l 153 1125 l 153 383 l 451 803 l 531 803 l 319 496 l 519 0 l 444 0 l 264 451 l 153 301 l 153 0 l 79 0 l 79 1125 m 217 -304 q 261 -251 249 -283 q 274 -187 274 -218 l 225 -187 l 225 -83 l 315 -83 l 315 -169 q 298 -274 315 -236 q 235 -333 281 -311 l 217 -304 z "},"ĸ":{"ha":571,"x_min":89,"x_max":525,"o":"m 89 803 l 163 803 l 163 383 l 442 803 l 521 803 l 315 489 l 525 0 l 450 0 l 263 439 l 163 297 l 163 0 l 89 0 l 89 803 z "},"l":{"ha":258,"x_min":93,"x_max":167,"o":"m 93 1125 l 167 1125 l 167 0 l 93 0 l 93 1125 z "},"ĺ":{"ha":258,"x_min":93,"x_max":276,"o":"m 93 1125 l 167 1125 l 167 0 l 93 0 l 93 1125 m 201 1461 l 276 1461 l 151 1192 l 113 1192 l 201 1461 z "},"ľ":{"ha":318,"x_min":93,"x_max":332,"o":"m 93 1125 l 167 1125 l 167 0 l 93 0 l 93 1125 m 235 863 q 281 912 269 888 q 293 979 293 936 l 243 979 l 243 1125 l 332 1125 l 332 994 q 315 894 332 929 q 254 831 299 858 l 235 863 z "},"ļ":{"ha":258,"x_min":81,"x_max":179,"o":"m 93 1125 l 167 1125 l 167 0 l 93 0 l 93 1125 m 81 -304 q 125 -251 113 -283 q 138 -187 138 -218 l 89 -187 l 89 -83 l 179 -83 l 179 -169 q 162 -274 179 -236 q 99 -333 144 -311 l 81 -304 z "},"ŀ":{"ha":304,"x_min":93,"x_max":317,"o":"m 93 1125 l 167 1125 l 167 0 l 93 0 l 93 1125 m 249 665 l 317 665 l 317 561 l 249 561 l 249 665 z "},"ǉ":{"ha":539,"x_min":93,"x_max":444,"o":"m 93 1125 l 167 1125 l 167 0 l 93 0 l 93 1125 m 371 1036 l 444 1036 l 444 908 l 371 908 l 371 1036 m 278 -215 q 236 -212 247 -215 l 236 -153 q 269 -154 239 -154 q 353 -123 335 -154 q 371 -35 371 -92 l 371 803 l 444 803 l 444 -39 q 402 -174 444 -132 q 278 -215 360 -215 z "},"ł":{"ha":343,"x_min":49,"x_max":292,"o":"m 135 639 l 49 592 l 49 657 l 135 703 l 135 1125 l 208 1125 l 208 742 l 292 788 l 292 724 l 208 678 l 208 0 l 135 0 l 135 639 z "},"m":{"ha":865,"x_min":79,"x_max":792,"o":"m 79 803 l 149 803 l 149 718 q 236 791 188 765 q 338 817 285 817 q 463 710 438 817 q 553 789 503 761 q 658 817 603 817 q 754 776 717 817 q 792 635 792 735 l 792 0 l 721 0 l 721 636 q 699 736 721 708 q 635 764 676 764 q 550 739 593 764 q 468 669 507 714 q 471 635 471 650 l 471 0 l 400 0 l 400 636 q 378 736 400 708 q 314 764 356 764 q 231 739 274 764 q 149 671 188 714 l 149 0 l 79 0 l 79 803 z "},"ṁ":{"ha":865,"x_min":79,"x_max":792,"o":"m 79 803 l 149 803 l 149 718 q 236 791 188 765 q 338 817 285 817 q 463 710 438 817 q 553 789 503 761 q 658 817 603 817 q 754 776 717 817 q 792 635 792 735 l 792 0 l 721 0 l 721 636 q 699 736 721 708 q 635 764 676 764 q 550 739 593 764 q 468 669 507 714 q 471 635 471 650 l 471 0 l 400 0 l 400 636 q 378 736 400 708 q 314 764 356 764 q 231 739 274 764 q 149 671 188 714 l 149 0 l 79 0 l 79 803 m 392 1083 l 475 1083 l 475 939 l 392 939 l 392 1083 z "},"n":{"ha":543,"x_min":79,"x_max":469,"o":"m 79 803 l 153 803 l 153 717 q 240 789 192 763 q 343 815 289 815 q 435 773 400 815 q 469 640 469 731 l 469 0 l 396 0 l 396 632 q 374 730 396 701 q 311 758 353 758 q 231 735 272 758 q 153 669 190 711 l 153 0 l 79 0 l 79 803 z "},"ń":{"ha":543,"x_min":79,"x_max":469,"o":"m 79 803 l 153 803 l 153 717 q 240 789 192 763 q 343 815 289 815 q 435 773 400 815 q 469 640 469 731 l 469 0 l 396 0 l 396 632 q 374 730 396 701 q 311 758 353 758 q 231 735 272 758 q 153 669 190 711 l 153 0 l 79 0 l 79 803 m 343 1139 l 418 1139 l 293 869 l 254 869 l 343 1139 z "},"ŉ":{"ha":617,"x_min":22,"x_max":547,"o":"m 22 879 q 69 928 57 904 q 81 996 81 953 l 31 996 l 31 1142 l 119 1142 l 119 1011 q 103 910 119 946 q 42 847 86 875 l 22 879 m 157 803 l 231 803 l 231 717 q 318 789 269 763 q 421 815 367 815 q 513 773 478 815 q 547 640 547 731 l 547 0 l 474 0 l 474 632 q 452 730 474 701 q 389 758 431 758 q 309 735 350 758 q 231 669 268 711 l 231 0 l 157 0 l 157 803 z "},"ň":{"ha":543,"x_min":79,"x_max":469,"o":"m 79 803 l 153 803 l 153 717 q 240 789 192 763 q 343 815 289 815 q 435 773 400 815 q 469 640 469 731 l 469 0 l 396 0 l 396 632 q 374 730 396 701 q 311 758 353 758 q 231 735 272 758 q 153 669 190 711 l 153 0 l 79 0 l 79 803 m 126 1125 l 189 1125 l 272 956 l 356 1125 l 418 1125 l 300 899 l 244 899 l 126 1125 z "},"ņ":{"ha":543,"x_min":79,"x_max":469,"o":"m 79 803 l 153 803 l 153 717 q 240 789 192 763 q 343 815 289 815 q 435 773 400 815 q 469 640 469 731 l 469 0 l 396 0 l 396 632 q 374 730 396 701 q 311 758 353 758 q 231 735 272 758 q 153 669 190 711 l 153 0 l 79 0 l 79 803 m 222 -304 q 267 -251 254 -283 q 279 -187 279 -218 l 231 -187 l 231 -83 l 321 -83 l 321 -169 q 303 -274 321 -236 q 240 -333 286 -311 l 222 -304 z "},"ŋ":{"ha":539,"x_min":75,"x_max":465,"o":"m 228 -157 q 358 -120 324 -157 q 392 -7 392 -83 l 392 632 q 370 730 392 701 q 307 758 349 758 q 227 735 268 758 q 149 669 186 711 l 149 0 l 75 0 l 75 803 l 149 803 l 149 717 q 238 790 189 764 q 339 815 286 815 q 431 774 397 815 q 465 640 465 732 l 465 -8 q 246 -217 465 -217 l 228 -217 l 228 -157 z "},"ǌ":{"ha":824,"x_min":79,"x_max":729,"o":"m 79 803 l 153 803 l 153 717 q 240 789 192 763 q 343 815 289 815 q 435 773 400 815 q 469 640 469 731 l 469 0 l 396 0 l 396 632 q 374 730 396 701 q 311 758 353 758 q 231 735 272 758 q 153 669 190 711 l 153 0 l 79 0 l 79 803 m 656 1036 l 729 1036 l 729 908 l 656 908 l 656 1036 m 563 -215 q 521 -212 532 -215 l 521 -153 q 554 -154 524 -154 q 638 -123 619 -154 q 656 -35 656 -92 l 656 803 l 729 803 l 729 -39 q 687 -174 729 -132 q 563 -215 644 -215 z "},"ñ":{"ha":543,"x_min":79,"x_max":469,"o":"m 79 803 l 153 803 l 153 717 q 240 789 192 763 q 343 815 289 815 q 435 773 400 815 q 469 640 469 731 l 469 0 l 396 0 l 396 632 q 374 730 396 701 q 311 758 353 758 q 231 735 272 758 q 153 669 190 711 l 153 0 l 79 0 l 79 803 m 344 954 q 304 963 322 954 q 261 990 286 972 q 228 1013 240 1006 q 201 1019 215 1019 q 170 1006 182 1019 q 158 965 158 992 l 108 965 q 127 1035 108 999 q 194 1071 146 1071 q 238 1061 218 1071 q 285 1033 257 1051 q 343 1006 319 1006 q 376 1020 365 1006 q 389 1068 388 1035 l 436 1068 q 417 991 436 1028 q 344 954 399 954 z "},"o":{"ha":532,"x_min":64,"x_max":468,"o":"m 265 -12 q 107 60 150 -12 q 64 293 64 133 l 64 510 q 107 742 64 668 q 265 815 150 815 q 424 742 381 815 q 468 510 468 669 l 468 293 q 424 60 468 133 q 265 -12 381 -12 m 265 43 q 349 72 321 43 q 386 151 378 100 q 394 290 394 203 l 394 513 q 386 651 394 600 q 349 731 378 703 q 265 760 321 760 q 182 731 210 760 q 146 652 154 703 q 138 513 138 601 l 138 290 q 146 151 138 201 q 182 72 154 100 q 265 43 210 43 z "},"ó":{"ha":532,"x_min":64,"x_max":468,"o":"m 265 -12 q 107 60 150 -12 q 64 293 64 133 l 64 510 q 107 742 64 668 q 265 815 150 815 q 424 742 381 815 q 468 510 468 669 l 468 293 q 424 60 468 133 q 265 -12 381 -12 m 265 43 q 349 72 321 43 q 386 151 378 100 q 394 290 394 203 l 394 513 q 386 651 394 600 q 349 731 378 703 q 265 760 321 760 q 182 731 210 760 q 146 652 154 703 q 138 513 138 601 l 138 290 q 146 151 138 201 q 182 72 154 100 q 265 43 210 43 m 338 1139 l 413 1139 l 288 869 l 249 869 l 338 1139 z "},"ŏ":{"ha":532,"x_min":64,"x_max":468,"o":"m 265 -12 q 107 60 150 -12 q 64 293 64 133 l 64 510 q 107 742 64 668 q 265 815 150 815 q 424 742 381 815 q 468 510 468 669 l 468 293 q 424 60 468 133 q 265 -12 381 -12 m 265 43 q 349 72 321 43 q 386 151 378 100 q 394 290 394 203 l 394 513 q 386 651 394 600 q 349 731 378 703 q 265 760 321 760 q 182 731 210 760 q 146 652 154 703 q 138 513 138 601 l 138 290 q 146 151 138 201 q 182 72 154 100 q 265 43 210 43 m 265 888 q 152 926 193 888 q 108 1042 111 964 l 160 1042 q 265 935 161 935 q 374 1042 367 935 l 425 1042 q 380 926 422 965 q 265 888 338 888 z "},"ô":{"ha":532,"x_min":64,"x_max":468,"o":"m 265 -12 q 107 60 150 -12 q 64 293 64 133 l 64 510 q 107 742 64 668 q 265 815 150 815 q 424 742 381 815 q 468 510 468 669 l 468 293 q 424 60 468 133 q 265 -12 381 -12 m 265 43 q 349 72 321 43 q 386 151 378 100 q 394 290 394 203 l 394 513 q 386 651 394 600 q 349 731 378 703 q 265 760 321 760 q 182 731 210 760 q 146 652 154 703 q 138 513 138 601 l 138 290 q 146 151 138 201 q 182 72 154 100 q 265 43 210 43 m 221 1125 l 313 1125 l 431 875 l 378 875 l 267 1088 l 156 875 l 101 875 l 221 1125 z "},"ố":{"ha":532,"x_min":64,"x_max":556,"o":"m 265 -12 q 107 60 150 -12 q 64 293 64 133 l 64 510 q 107 742 64 668 q 265 815 150 815 q 424 742 381 815 q 468 510 468 669 l 468 293 q 424 60 468 133 q 265 -12 381 -12 m 265 43 q 349 72 321 43 q 386 151 378 100 q 394 290 394 203 l 394 513 q 386 651 394 600 q 349 731 378 703 q 265 760 321 760 q 182 731 210 760 q 146 652 154 703 q 138 513 138 601 l 138 290 q 146 151 138 201 q 182 72 154 100 q 265 43 210 43 m 483 1158 l 556 1158 l 463 999 l 410 999 l 483 1158 m 221 1069 l 313 1069 l 431 875 l 378 875 l 267 1035 l 156 875 l 101 875 l 221 1069 z "},"ộ":{"ha":532,"x_min":64,"x_max":468,"o":"m 265 -12 q 107 60 150 -12 q 64 293 64 133 l 64 510 q 107 742 64 668 q 265 815 150 815 q 424 742 381 815 q 468 510 468 669 l 468 293 q 424 60 468 133 q 265 -12 381 -12 m 265 43 q 349 72 321 43 q 386 151 378 100 q 394 290 394 203 l 394 513 q 386 651 394 600 q 349 731 378 703 q 265 760 321 760 q 182 731 210 760 q 146 652 154 703 q 138 513 138 601 l 138 290 q 146 151 138 201 q 182 72 154 100 q 265 43 210 43 m 225 -83 l 308 -83 l 308 -187 l 225 -187 l 225 -83 m 221 1069 l 313 1069 l 431 875 l 378 875 l 267 1035 l 156 875 l 101 875 l 221 1069 z "},"ồ":{"ha":532,"x_min":64,"x_max":499,"o":"m 265 -12 q 107 60 150 -12 q 64 293 64 133 l 64 510 q 107 742 64 668 q 265 815 150 815 q 424 742 381 815 q 468 510 468 669 l 468 293 q 424 60 468 133 q 265 -12 381 -12 m 265 43 q 349 72 321 43 q 386 151 378 100 q 394 290 394 203 l 394 513 q 386 651 394 600 q 349 731 378 703 q 265 760 321 760 q 182 731 210 760 q 146 652 154 703 q 138 513 138 601 l 138 290 q 146 151 138 201 q 182 72 154 100 q 265 43 210 43 m 353 1158 l 425 1158 l 499 999 l 446 999 l 353 1158 m 221 1069 l 313 1069 l 431 875 l 378 875 l 267 1035 l 156 875 l 101 875 l 221 1069 z "},"ổ":{"ha":532,"x_min":64,"x_max":519,"o":"m 265 -12 q 107 60 150 -12 q 64 293 64 133 l 64 510 q 107 742 64 668 q 265 815 150 815 q 424 742 381 815 q 468 510 468 669 l 468 293 q 424 60 468 133 q 265 -12 381 -12 m 265 43 q 349 72 321 43 q 386 151 378 100 q 394 290 394 203 l 394 513 q 386 651 394 600 q 349 731 378 703 q 265 760 321 760 q 182 731 210 760 q 146 652 154 703 q 138 513 138 601 l 138 290 q 146 151 138 201 q 182 72 154 100 q 265 43 210 43 m 399 1029 q 447 1065 432 1047 q 463 1104 463 1082 q 403 1151 463 1151 q 340 1142 371 1151 l 340 1179 q 417 1192 379 1192 q 492 1170 465 1192 q 519 1108 519 1149 q 496 1045 519 1071 q 429 997 472 1019 l 399 1029 m 221 1069 l 313 1069 l 431 875 l 378 875 l 267 1035 l 156 875 l 101 875 l 221 1069 z "},"ỗ":{"ha":532,"x_min":64,"x_max":468,"o":"m 265 -12 q 107 60 150 -12 q 64 293 64 133 l 64 510 q 107 742 64 668 q 265 815 150 815 q 424 742 381 815 q 468 510 468 669 l 468 293 q 424 60 468 133 q 265 -12 381 -12 m 265 43 q 349 72 321 43 q 386 151 378 100 q 394 290 394 203 l 394 513 q 386 651 394 600 q 349 731 378 703 q 265 760 321 760 q 182 731 210 760 q 146 652 154 703 q 138 513 138 601 l 138 290 q 146 151 138 201 q 182 72 154 100 q 265 43 210 43 m 221 1069 l 313 1069 l 431 875 l 378 875 l 267 1035 l 156 875 l 101 875 l 221 1069 m 339 1139 q 299 1148 317 1139 q 256 1175 281 1157 q 222 1197 235 1190 q 196 1204 210 1204 q 165 1190 176 1204 q 153 1150 153 1176 l 103 1150 q 122 1219 103 1183 q 189 1256 140 1256 q 232 1246 213 1256 q 279 1218 251 1236 q 338 1190 314 1190 q 371 1205 360 1190 q 383 1253 382 1219 l 431 1253 q 412 1176 431 1213 q 339 1139 393 1139 z "},"ȍ":{"ha":532,"x_min":51,"x_max":468,"o":"m 265 -12 q 107 60 150 -12 q 64 293 64 133 l 64 510 q 107 742 64 668 q 265 815 150 815 q 424 742 381 815 q 468 510 468 669 l 468 293 q 424 60 468 133 q 265 -12 381 -12 m 265 43 q 349 72 321 43 q 386 151 378 100 q 394 290 394 203 l 394 513 q 386 651 394 600 q 349 731 378 703 q 265 760 321 760 q 182 731 210 760 q 146 652 154 703 q 138 513 138 601 l 138 290 q 146 151 138 201 q 182 72 154 100 q 265 43 210 43 m 51 1125 l 133 1125 l 211 921 l 171 921 l 51 1125 m 214 1125 l 286 1125 l 344 921 l 307 921 l 214 1125 z "},"ö":{"ha":532,"x_min":64,"x_max":468,"o":"m 265 -12 q 107 60 150 -12 q 64 293 64 133 l 64 510 q 107 742 64 668 q 265 815 150 815 q 424 742 381 815 q 468 510 468 669 l 468 293 q 424 60 468 133 q 265 -12 381 -12 m 265 43 q 349 72 321 43 q 386 151 378 100 q 394 290 394 203 l 394 513 q 386 651 394 600 q 349 731 378 703 q 265 760 321 760 q 182 731 210 760 q 146 652 154 703 q 138 513 138 601 l 138 290 q 146 151 138 201 q 182 72 154 100 q 265 43 210 43 m 118 1125 l 194 1125 l 194 1019 l 118 1019 l 118 1125 m 340 1125 l 418 1125 l 418 1019 l 340 1019 l 340 1125 z "},"ȫ":{"ha":532,"x_min":64,"x_max":468,"o":"m 265 -12 q 107 60 150 -12 q 64 293 64 133 l 64 510 q 107 742 64 668 q 265 815 150 815 q 424 742 381 815 q 468 510 468 669 l 468 293 q 424 60 468 133 q 265 -12 381 -12 m 265 43 q 349 72 321 43 q 386 151 378 100 q 394 290 394 203 l 394 513 q 386 651 394 600 q 349 731 378 703 q 265 760 321 760 q 182 731 210 760 q 146 652 154 703 q 138 513 138 601 l 138 290 q 146 151 138 201 q 182 72 154 100 q 265 43 210 43 m 118 1125 l 194 1125 l 194 1019 l 118 1019 l 118 1125 m 340 1125 l 418 1125 l 418 1019 l 340 1019 l 340 1125 m 147 1350 l 386 1350 l 386 1294 l 147 1294 l 147 1350 z "},"ȱ":{"ha":532,"x_min":64,"x_max":468,"o":"m 265 -12 q 107 60 150 -12 q 64 293 64 133 l 64 510 q 107 742 64 668 q 265 815 150 815 q 424 742 381 815 q 468 510 468 669 l 468 293 q 424 60 468 133 q 265 -12 381 -12 m 265 43 q 349 72 321 43 q 386 151 378 100 q 394 290 394 203 l 394 513 q 386 651 394 600 q 349 731 378 703 q 265 760 321 760 q 182 731 210 760 q 146 652 154 703 q 138 513 138 601 l 138 290 q 146 151 138 201 q 182 72 154 100 q 265 43 210 43 m 225 1083 l 308 1083 l 308 939 l 225 939 l 225 1083 m 147 1308 l 386 1308 l 386 1253 l 147 1253 l 147 1308 z "},"ọ":{"ha":532,"x_min":64,"x_max":468,"o":"m 265 -12 q 107 60 150 -12 q 64 293 64 133 l 64 510 q 107 742 64 668 q 265 815 150 815 q 424 742 381 815 q 468 510 468 669 l 468 293 q 424 60 468 133 q 265 -12 381 -12 m 265 43 q 349 72 321 43 q 386 151 378 100 q 394 290 394 203 l 394 513 q 386 651 394 600 q 349 731 378 703 q 265 760 321 760 q 182 731 210 760 q 146 652 154 703 q 138 513 138 601 l 138 290 q 146 151 138 201 q 182 72 154 100 q 265 43 210 43 m 225 -83 l 308 -83 l 308 -187 l 225 -187 l 225 -83 z "},"ò":{"ha":532,"x_min":64,"x_max":468,"o":"m 265 -12 q 107 60 150 -12 q 64 293 64 133 l 64 510 q 107 742 64 668 q 265 815 150 815 q 424 742 381 815 q 468 510 468 669 l 468 293 q 424 60 468 133 q 265 -12 381 -12 m 265 43 q 349 72 321 43 q 386 151 378 100 q 394 290 394 203 l 394 513 q 386 651 394 600 q 349 731 378 703 q 265 760 321 760 q 182 731 210 760 q 146 652 154 703 q 138 513 138 601 l 138 290 q 146 151 138 201 q 182 72 154 100 q 265 43 210 43 m 133 1139 l 208 1139 l 283 869 l 246 869 l 133 1139 z "},"ỏ":{"ha":532,"x_min":64,"x_max":468,"o":"m 265 -12 q 107 60 150 -12 q 64 293 64 133 l 64 510 q 107 742 64 668 q 265 815 150 815 q 424 742 381 815 q 468 510 468 669 l 468 293 q 424 60 468 133 q 265 -12 381 -12 m 265 43 q 349 72 321 43 q 386 151 378 100 q 394 290 394 203 l 394 513 q 386 651 394 600 q 349 731 378 703 q 265 760 321 760 q 182 731 210 760 q 146 652 154 703 q 138 513 138 601 l 138 290 q 146 151 138 201 q 182 72 154 100 q 265 43 210 43 m 235 949 q 285 985 269 968 q 301 1024 301 1001 q 286 1060 301 1049 q 238 1071 271 1071 q 176 1064 214 1071 l 176 1103 q 250 1111 214 1111 q 358 1028 358 1111 q 334 965 358 990 q 265 917 310 939 l 235 949 z "},"ơ":{"ha":532,"x_min":64,"x_max":468,"o":"m 468 890 q 404 768 468 796 q 453 670 439 733 q 468 510 468 607 l 468 293 q 424 60 468 133 q 265 -12 381 -12 q 107 60 150 -12 q 64 293 64 133 l 64 510 q 107 742 64 668 q 265 815 150 815 q 347 803 313 815 q 397 826 382 806 q 411 890 411 847 l 468 890 m 394 513 q 386 651 394 600 q 349 731 378 703 q 265 760 321 760 q 182 731 210 760 q 146 652 154 703 q 138 513 138 601 l 138 290 q 146 151 138 201 q 182 72 154 100 q 265 43 210 43 q 349 72 321 43 q 386 151 378 100 q 394 290 394 203 l 394 513 z "},"ớ":{"ha":532,"x_min":64,"x_max":468,"o":"m 468 890 q 404 768 468 796 q 453 670 439 733 q 468 510 468 607 l 468 293 q 424 60 468 133 q 265 -12 381 -12 q 107 60 150 -12 q 64 293 64 133 l 64 510 q 107 742 64 668 q 265 815 150 815 q 347 803 313 815 q 397 826 382 806 q 411 890 411 847 l 468 890 m 394 513 q 386 651 394 600 q 349 731 378 703 q 265 760 321 760 q 182 731 210 760 q 146 652 154 703 q 138 513 138 601 l 138 290 q 146 151 138 201 q 182 72 154 100 q 265 43 210 43 q 349 72 321 43 q 386 151 378 100 q 394 290 394 203 l 394 513 m 338 1139 l 413 1139 l 288 869 l 249 869 l 338 1139 z "},"ợ":{"ha":532,"x_min":64,"x_max":468,"o":"m 468 890 q 404 768 468 796 q 453 670 439 733 q 468 510 468 607 l 468 293 q 424 60 468 133 q 265 -12 381 -12 q 107 60 150 -12 q 64 293 64 133 l 64 510 q 107 742 64 668 q 265 815 150 815 q 347 803 313 815 q 397 826 382 806 q 411 890 411 847 l 468 890 m 394 513 q 386 651 394 600 q 349 731 378 703 q 265 760 321 760 q 182 731 210 760 q 146 652 154 703 q 138 513 138 601 l 138 290 q 146 151 138 201 q 182 72 154 100 q 265 43 210 43 q 349 72 321 43 q 386 151 378 100 q 394 290 394 203 l 394 513 m 225 -83 l 308 -83 l 308 -187 l 225 -187 l 225 -83 z "},"ờ":{"ha":532,"x_min":64,"x_max":468,"o":"m 468 890 q 404 768 468 796 q 453 670 439 733 q 468 510 468 607 l 468 293 q 424 60 468 133 q 265 -12 381 -12 q 107 60 150 -12 q 64 293 64 133 l 64 510 q 107 742 64 668 q 265 815 150 815 q 347 803 313 815 q 397 826 382 806 q 411 890 411 847 l 468 890 m 394 513 q 386 651 394 600 q 349 731 378 703 q 265 760 321 760 q 182 731 210 760 q 146 652 154 703 q 138 513 138 601 l 138 290 q 146 151 138 201 q 182 72 154 100 q 265 43 210 43 q 349 72 321 43 q 386 151 378 100 q 394 290 394 203 l 394 513 m 133 1139 l 208 1139 l 283 869 l 246 869 l 133 1139 z "},"ở":{"ha":532,"x_min":64,"x_max":468,"o":"m 468 890 q 404 768 468 796 q 453 670 439 733 q 468 510 468 607 l 468 293 q 424 60 468 133 q 265 -12 381 -12 q 107 60 150 -12 q 64 293 64 133 l 64 510 q 107 742 64 668 q 265 815 150 815 q 347 803 313 815 q 397 826 382 806 q 411 890 411 847 l 468 890 m 394 513 q 386 651 394 600 q 349 731 378 703 q 265 760 321 760 q 182 731 210 760 q 146 652 154 703 q 138 513 138 601 l 138 290 q 146 151 138 201 q 182 72 154 100 q 265 43 210 43 q 349 72 321 43 q 386 151 378 100 q 394 290 394 203 l 394 513 m 235 949 q 285 985 269 968 q 301 1024 301 1001 q 286 1060 301 1049 q 238 1071 271 1071 q 176 1064 214 1071 l 176 1103 q 250 1111 214 1111 q 358 1028 358 1111 q 334 965 358 990 q 265 917 310 939 l 235 949 z "},"ỡ":{"ha":532,"x_min":64,"x_max":468,"o":"m 468 890 q 404 768 468 796 q 453 670 439 733 q 468 510 468 607 l 468 293 q 424 60 468 133 q 265 -12 381 -12 q 107 60 150 -12 q 64 293 64 133 l 64 510 q 107 742 64 668 q 265 815 150 815 q 347 803 313 815 q 397 826 382 806 q 411 890 411 847 l 468 890 m 394 513 q 386 651 394 600 q 349 731 378 703 q 265 760 321 760 q 182 731 210 760 q 146 652 154 703 q 138 513 138 601 l 138 290 q 146 151 138 201 q 182 72 154 100 q 265 43 210 43 q 349 72 321 43 q 386 151 378 100 q 394 290 394 203 l 394 513 m 339 954 q 299 963 317 954 q 256 990 281 972 q 222 1013 235 1006 q 196 1019 210 1019 q 165 1006 176 1019 q 153 965 153 992 l 103 965 q 122 1035 103 999 q 189 1071 140 1071 q 232 1061 213 1071 q 279 1033 251 1051 q 338 1006 314 1006 q 371 1020 360 1006 q 383 1068 382 1035 l 431 1068 q 412 991 431 1028 q 339 954 393 954 z "},"ő":{"ha":532,"x_min":64,"x_max":478,"o":"m 265 -12 q 107 60 150 -12 q 64 293 64 133 l 64 510 q 107 742 64 668 q 265 815 150 815 q 424 742 381 815 q 468 510 468 669 l 468 293 q 424 60 468 133 q 265 -12 381 -12 m 265 43 q 349 72 321 43 q 386 151 378 100 q 394 290 394 203 l 394 513 q 386 651 394 600 q 349 731 378 703 q 265 760 321 760 q 182 731 210 760 q 146 652 154 703 q 138 513 138 601 l 138 290 q 146 151 138 201 q 182 72 154 100 q 265 43 210 43 m 247 1139 l 321 1139 l 235 926 l 194 926 l 247 1139 m 392 1139 l 478 1139 l 360 926 l 317 926 l 392 1139 z "},"ȏ":{"ha":532,"x_min":64,"x_max":468,"o":"m 265 -12 q 107 60 150 -12 q 64 293 64 133 l 64 510 q 107 742 64 668 q 265 815 150 815 q 424 742 381 815 q 468 510 468 669 l 468 293 q 424 60 468 133 q 265 -12 381 -12 m 265 43 q 349 72 321 43 q 386 151 378 100 q 394 290 394 203 l 394 513 q 386 651 394 600 q 349 731 378 703 q 265 760 321 760 q 182 731 210 760 q 146 652 154 703 q 138 513 138 601 l 138 290 q 146 151 138 201 q 182 72 154 100 q 265 43 210 43 m 108 971 q 153 1086 111 1047 q 267 1125 196 1125 q 381 1086 339 1125 q 425 971 422 1047 l 374 971 q 267 1076 369 1076 q 160 971 165 1076 l 108 971 z "},"ō":{"ha":532,"x_min":64,"x_max":468,"o":"m 265 -12 q 107 60 150 -12 q 64 293 64 133 l 64 510 q 107 742 64 668 q 265 815 150 815 q 424 742 381 815 q 468 510 468 669 l 468 293 q 424 60 468 133 q 265 -12 381 -12 m 265 43 q 349 72 321 43 q 386 151 378 100 q 394 290 394 203 l 394 513 q 386 651 394 600 q 349 731 378 703 q 265 760 321 760 q 182 731 210 760 q 146 652 154 703 q 138 513 138 601 l 138 290 q 146 151 138 201 q 182 72 154 100 q 265 43 210 43 m 147 1028 l 386 1028 l 386 972 l 147 972 l 147 1028 z "},"ǫ":{"ha":532,"x_min":64,"x_max":468,"o":"m 265 815 q 424 742 381 815 q 468 510 468 669 l 468 293 q 438 85 468 157 q 328 -6 407 13 q 263 -87 285 -50 q 240 -162 240 -125 q 268 -217 240 -199 q 340 -236 296 -236 q 365 -233 351 -236 l 357 -276 q 321 -279 340 -279 q 219 -250 257 -279 q 182 -168 182 -221 q 207 -85 182 -125 q 275 -12 232 -46 l 265 -12 q 107 60 150 -12 q 64 293 64 133 l 64 510 q 107 742 64 668 q 265 815 150 815 m 394 513 q 386 651 394 600 q 349 731 378 703 q 265 760 321 760 q 182 731 210 760 q 146 652 154 703 q 138 513 138 601 l 138 290 q 146 151 138 201 q 182 72 154 100 q 265 43 210 43 q 349 72 321 43 q 386 151 378 100 q 394 290 394 203 l 394 513 z "},"ø":{"ha":532,"x_min":64,"x_max":468,"o":"m 421 749 q 468 510 468 679 l 468 293 q 424 60 468 133 q 265 -12 381 -12 q 149 18 192 -12 l 108 -90 l 81 -81 l 125 38 q 78 136 92 74 q 64 293 64 199 l 64 510 q 107 742 64 668 q 265 815 150 815 q 397 775 350 815 l 436 881 l 465 868 l 421 749 m 138 290 q 154 118 138 168 l 369 701 q 265 760 342 760 q 182 731 210 760 q 146 652 154 703 q 138 513 138 601 l 138 290 m 394 513 q 385 654 394 608 l 172 82 q 265 43 203 43 q 349 72 321 43 q 386 151 378 100 q 394 290 394 203 l 394 513 z "},"ǿ":{"ha":532,"x_min":64,"x_max":468,"o":"m 421 749 q 468 510 468 679 l 468 293 q 424 60 468 133 q 265 -12 381 -12 q 149 18 192 -12 l 108 -90 l 81 -81 l 125 38 q 78 136 92 74 q 64 293 64 199 l 64 510 q 107 742 64 668 q 265 815 150 815 q 397 775 350 815 l 436 881 l 465 868 l 421 749 m 138 290 q 154 118 138 168 l 369 701 q 265 760 342 760 q 182 731 210 760 q 146 652 154 703 q 138 513 138 601 l 138 290 m 394 513 q 385 654 394 608 l 172 82 q 265 43 203 43 q 349 72 321 43 q 386 151 378 100 q 394 290 394 203 l 394 513 m 338 1139 l 413 1139 l 288 869 l 249 869 l 338 1139 z "},"õ":{"ha":532,"x_min":64,"x_max":468,"o":"m 265 -12 q 107 60 150 -12 q 64 293 64 133 l 64 510 q 107 742 64 668 q 265 815 150 815 q 424 742 381 815 q 468 510 468 669 l 468 293 q 424 60 468 133 q 265 -12 381 -12 m 265 43 q 349 72 321 43 q 386 151 378 100 q 394 290 394 203 l 394 513 q 386 651 394 600 q 349 731 378 703 q 265 760 321 760 q 182 731 210 760 q 146 652 154 703 q 138 513 138 601 l 138 290 q 146 151 138 201 q 182 72 154 100 q 265 43 210 43 m 339 954 q 299 963 317 954 q 256 990 281 972 q 222 1013 235 1006 q 196 1019 210 1019 q 165 1006 176 1019 q 153 965 153 992 l 103 965 q 122 1035 103 999 q 189 1071 140 1071 q 232 1061 213 1071 q 279 1033 251 1051 q 338 1006 314 1006 q 371 1020 360 1006 q 383 1068 382 1035 l 431 1068 q 412 991 431 1028 q 339 954 393 954 z "},"ȭ":{"ha":532,"x_min":64,"x_max":468,"o":"m 265 -12 q 107 60 150 -12 q 64 293 64 133 l 64 510 q 107 742 64 668 q 265 815 150 815 q 424 742 381 815 q 468 510 468 669 l 468 293 q 424 60 468 133 q 265 -12 381 -12 m 265 43 q 349 72 321 43 q 386 151 378 100 q 394 290 394 203 l 394 513 q 386 651 394 600 q 349 731 378 703 q 265 760 321 760 q 182 731 210 760 q 146 652 154 703 q 138 513 138 601 l 138 290 q 146 151 138 201 q 182 72 154 100 q 265 43 210 43 m 339 954 q 299 963 317 954 q 256 990 281 972 q 222 1013 235 1006 q 196 1019 210 1019 q 165 1006 176 1019 q 153 965 153 992 l 103 965 q 122 1035 103 999 q 189 1071 140 1071 q 232 1061 213 1071 q 279 1033 251 1051 q 338 1006 314 1006 q 371 1020 360 1006 q 383 1068 382 1035 l 431 1068 q 412 991 431 1028 q 339 954 393 954 m 147 1353 l 386 1353 l 386 1297 l 147 1297 l 147 1353 z "},"œ":{"ha":871,"x_min":69,"x_max":806,"o":"m 271 -12 q 113 60 157 -12 q 69 292 69 133 l 69 511 q 113 742 69 668 q 271 815 157 815 q 381 783 339 815 q 438 692 422 751 q 502 788 458 761 q 608 815 546 815 q 725 784 682 815 q 787 684 768 753 q 806 499 806 615 l 804 421 l 475 421 l 475 310 q 505 108 475 167 q 606 46 535 49 q 668 56 642 46 q 713 101 694 65 q 732 210 732 138 l 732 271 l 806 271 l 806 211 q 760 46 806 104 q 613 -12 715 -12 q 439 118 474 -12 q 271 -12 408 -12 m 271 46 q 356 74 328 46 q 392 153 383 103 q 401 292 401 204 l 401 511 q 392 650 401 599 q 356 729 383 701 q 271 757 328 757 q 188 729 215 757 q 151 651 160 701 q 143 511 143 600 l 143 292 q 151 153 143 204 q 188 74 160 103 q 271 46 215 46 m 732 464 l 732 513 q 724 646 732 596 q 688 726 715 696 q 607 757 661 757 q 506 704 536 757 q 475 519 475 651 l 475 464 l 732 464 z "},"p":{"ha":556,"x_min":79,"x_max":489,"o":"m 79 803 l 153 803 l 153 735 q 307 815 217 815 q 450 733 411 815 q 489 485 489 650 l 489 331 q 447 71 489 154 q 300 -12 404 -12 q 153 67 217 -12 l 153 -264 l 79 -264 l 79 803 m 292 44 q 368 74 342 44 q 405 164 394 103 q 415 328 415 225 l 415 485 q 406 645 415 588 q 369 731 396 703 q 292 758 343 758 q 153 683 221 758 l 153 117 q 215 65 179 85 q 292 44 251 44 z "},"ṗ":{"ha":556,"x_min":79,"x_max":489,"o":"m 79 803 l 153 803 l 153 735 q 307 815 217 815 q 450 733 411 815 q 489 485 489 650 l 489 331 q 447 71 489 154 q 300 -12 404 -12 q 153 67 217 -12 l 153 -264 l 79 -264 l 79 803 m 292 44 q 368 74 342 44 q 405 164 394 103 q 415 328 415 225 l 415 485 q 406 645 415 588 q 369 731 396 703 q 292 758 343 758 q 153 683 221 758 l 153 117 q 215 65 179 85 q 292 44 251 44 m 236 1083 l 319 1083 l 319 939 l 236 939 l 236 1083 z "},"þ":{"ha":553,"x_min":81,"x_max":489,"o":"m 81 1125 l 154 1125 l 154 735 q 219 792 181 769 q 308 815 257 815 q 451 733 413 815 q 489 485 489 650 l 489 331 q 447 71 489 154 q 300 -12 404 -12 q 217 10 254 -12 q 154 67 179 33 l 154 -264 l 81 -264 l 81 1125 m 292 44 q 368 74 342 44 q 405 164 394 103 q 415 328 415 225 l 415 485 q 406 645 415 588 q 371 731 397 703 q 293 758 344 758 q 216 736 251 758 q 154 683 181 714 l 154 117 q 215 65 179 85 q 292 44 251 44 z "},"q":{"ha":550,"x_min":67,"x_max":472,"o":"m 399 61 q 256 -12 336 -12 q 145 22 186 -12 q 85 131 104 57 q 67 329 67 206 l 67 472 q 107 733 67 651 q 253 815 147 815 q 336 794 299 815 q 399 740 374 772 l 399 803 l 472 803 l 472 -264 l 399 -264 l 399 61 m 267 44 q 399 114 338 44 l 399 688 q 264 758 331 758 q 188 731 214 758 q 151 647 161 704 q 142 490 142 590 l 142 324 q 152 161 142 221 q 190 73 163 101 q 267 44 217 44 z "},"r":{"ha":393,"x_min":89,"x_max":367,"o":"m 89 803 l 163 803 l 163 694 q 249 781 196 750 q 353 811 303 811 l 367 810 l 367 733 q 336 738 357 738 q 163 635 225 738 l 163 0 l 89 0 l 89 803 z "},"ŕ":{"ha":393,"x_min":89,"x_max":371,"o":"m 89 803 l 163 803 l 163 694 q 249 781 196 750 q 353 811 303 811 l 367 810 l 367 733 q 336 738 357 738 q 163 635 225 738 l 163 0 l 89 0 l 89 803 m 296 1139 l 371 1139 l 246 869 l 207 869 l 296 1139 z "},"ř":{"ha":393,"x_min":79,"x_max":371,"o":"m 89 803 l 163 803 l 163 694 q 249 781 196 750 q 353 811 303 811 l 367 810 l 367 733 q 336 738 357 738 q 163 635 225 738 l 163 0 l 89 0 l 89 803 m 79 1125 l 142 1125 l 225 956 l 308 1125 l 371 1125 l 253 899 l 197 899 l 79 1125 z "},"ŗ":{"ha":393,"x_min":76,"x_max":367,"o":"m 89 803 l 163 803 l 163 694 q 249 781 196 750 q 353 811 303 811 l 367 810 l 367 733 q 336 738 357 738 q 163 635 225 738 l 163 0 l 89 0 l 89 803 m 76 -304 q 121 -251 108 -283 q 133 -187 133 -218 l 85 -187 l 85 -83 l 175 -83 l 175 -169 q 158 -274 175 -236 q 94 -333 140 -311 l 76 -304 z "},"ȑ":{"ha":393,"x_min":10,"x_max":367,"o":"m 89 803 l 163 803 l 163 694 q 249 781 196 750 q 353 811 303 811 l 367 810 l 367 733 q 336 738 357 738 q 163 635 225 738 l 163 0 l 89 0 l 89 803 m 10 1125 l 92 1125 l 169 921 l 129 921 l 10 1125 m 172 1125 l 244 1125 l 303 921 l 265 921 l 172 1125 z "},"ȓ":{"ha":393,"x_min":67,"x_max":383,"o":"m 89 803 l 163 803 l 163 694 q 249 781 196 750 q 353 811 303 811 l 367 810 l 367 733 q 336 738 357 738 q 163 635 225 738 l 163 0 l 89 0 l 89 803 m 67 971 q 112 1086 69 1047 q 225 1125 154 1125 q 339 1086 297 1125 q 383 971 381 1047 l 332 971 q 225 1076 328 1076 q 118 971 124 1076 l 67 971 z "},"s":{"ha":494,"x_min":47,"x_max":457,"o":"m 261 -12 q 111 49 167 -12 q 47 217 56 110 l 110 235 q 156 90 117 136 q 264 43 194 43 q 358 77 325 43 q 392 174 392 111 q 274 361 389 263 l 181 440 q 92 538 119 492 q 65 640 65 583 q 114 769 65 724 q 247 815 163 815 q 381 760 335 815 q 429 606 426 704 l 375 589 q 251 760 369 760 q 165 732 197 760 q 133 653 132 704 q 150 573 133 606 q 215 500 167 540 l 311 415 q 419 302 382 354 q 457 172 456 250 q 404 37 457 86 q 261 -12 351 -12 z "},"ś":{"ha":494,"x_min":47,"x_max":457,"o":"m 261 -12 q 111 49 167 -12 q 47 217 56 110 l 110 235 q 156 90 117 136 q 264 43 194 43 q 358 77 325 43 q 392 174 392 111 q 274 361 389 263 l 181 440 q 92 538 119 492 q 65 640 65 583 q 114 769 65 724 q 247 815 163 815 q 381 760 335 815 q 429 606 426 704 l 375 589 q 251 760 369 760 q 165 732 197 760 q 133 653 132 704 q 150 573 133 606 q 215 500 167 540 l 311 415 q 419 302 382 354 q 457 172 456 250 q 404 37 457 86 q 261 -12 351 -12 m 318 1139 l 393 1139 l 268 869 l 229 869 l 318 1139 z "},"š":{"ha":494,"x_min":47,"x_max":457,"o":"m 261 -12 q 111 49 167 -12 q 47 217 56 110 l 110 235 q 156 90 117 136 q 264 43 194 43 q 358 77 325 43 q 392 174 392 111 q 274 361 389 263 l 181 440 q 92 538 119 492 q 65 640 65 583 q 114 769 65 724 q 247 815 163 815 q 381 760 335 815 q 429 606 426 704 l 375 589 q 251 760 369 760 q 165 732 197 760 q 133 653 132 704 q 150 573 133 606 q 215 500 167 540 l 311 415 q 419 302 382 354 q 457 172 456 250 q 404 37 457 86 q 261 -12 351 -12 m 101 1125 l 164 1125 l 247 956 l 331 1125 l 393 1125 l 275 899 l 219 899 l 101 1125 z "},"ş":{"ha":494,"x_min":47,"x_max":457,"o":"m 457 172 q 406 38 457 86 q 267 -12 356 -10 l 267 -65 q 378 -160 378 -71 q 343 -233 378 -208 q 242 -258 308 -258 q 196 -256 226 -258 l 196 -215 q 226 -218 218 -218 q 298 -204 275 -218 q 321 -160 321 -190 q 297 -113 321 -131 q 226 -92 272 -96 l 226 -10 q 101 60 147 0 q 47 217 54 119 l 110 235 q 156 90 117 136 q 264 43 194 43 q 358 77 325 43 q 392 174 392 111 q 274 361 389 263 l 181 440 q 92 538 119 492 q 65 640 65 583 q 114 769 65 724 q 247 815 163 815 q 381 760 335 815 q 429 606 426 704 l 375 589 q 251 760 369 760 q 165 732 197 760 q 133 653 132 704 q 150 573 133 606 q 215 500 167 540 l 311 415 q 419 302 382 354 q 457 172 456 250 z "},"ŝ":{"ha":494,"x_min":47,"x_max":457,"o":"m 261 -12 q 111 49 167 -12 q 47 217 56 110 l 110 235 q 156 90 117 136 q 264 43 194 43 q 358 77 325 43 q 392 174 392 111 q 274 361 389 263 l 181 440 q 92 538 119 492 q 65 640 65 583 q 114 769 65 724 q 247 815 163 815 q 381 760 335 815 q 429 606 426 704 l 375 589 q 251 760 369 760 q 165 732 197 760 q 133 653 132 704 q 150 573 133 606 q 215 500 167 540 l 311 415 q 419 302 382 354 q 457 172 456 250 q 404 37 457 86 q 261 -12 351 -12 m 201 1125 l 293 1125 l 411 875 l 358 875 l 247 1088 l 136 875 l 82 875 l 201 1125 z "},"ș":{"ha":494,"x_min":47,"x_max":457,"o":"m 261 -12 q 111 49 167 -12 q 47 217 56 110 l 110 235 q 156 90 117 136 q 264 43 194 43 q 358 77 325 43 q 392 174 392 111 q 274 361 389 263 l 181 440 q 92 538 119 492 q 65 640 65 583 q 114 769 65 724 q 247 815 163 815 q 381 760 335 815 q 429 606 426 704 l 375 589 q 251 760 369 760 q 165 732 197 760 q 133 653 132 704 q 150 573 133 606 q 215 500 167 540 l 311 415 q 419 302 382 354 q 457 172 456 250 q 404 37 457 86 q 261 -12 351 -12 m 197 -304 q 242 -251 229 -283 q 254 -187 254 -218 l 206 -187 l 206 -83 l 296 -83 l 296 -169 q 278 -274 296 -236 q 215 -333 261 -311 l 197 -304 z "},"ṡ":{"ha":494,"x_min":47,"x_max":457,"o":"m 261 -12 q 111 49 167 -12 q 47 217 56 110 l 110 235 q 156 90 117 136 q 264 43 194 43 q 358 77 325 43 q 392 174 392 111 q 274 361 389 263 l 181 440 q 92 538 119 492 q 65 640 65 583 q 114 769 65 724 q 247 815 163 815 q 381 760 335 815 q 429 606 426 704 l 375 589 q 251 760 369 760 q 165 732 197 760 q 133 653 132 704 q 150 573 133 606 q 215 500 167 540 l 311 415 q 419 302 382 354 q 457 172 456 250 q 404 37 457 86 q 261 -12 351 -12 m 206 1083 l 289 1083 l 289 939 l 206 939 l 206 1083 z "},"ß":{"ha":672,"x_min":89,"x_max":608,"o":"m 236 47 q 536 329 536 47 q 485 522 536 446 q 315 597 435 597 l 318 660 q 478 881 478 660 q 440 1040 478 988 q 319 1093 403 1093 q 232 1074 265 1093 q 181 1002 199 1056 q 163 849 163 949 l 163 0 l 89 0 l 89 847 q 115 1031 89 964 q 190 1124 140 1097 q 318 1151 240 1151 q 489 1083 428 1151 q 550 881 550 1015 q 415 633 550 676 q 563 528 518 610 q 608 333 608 446 q 527 84 608 183 q 236 -15 446 -15 l 236 47 z "},"t":{"ha":365,"x_min":22,"x_max":338,"o":"m 256 -8 q 153 34 178 -8 q 128 158 128 76 l 128 754 l 22 754 l 22 803 l 128 803 l 128 1060 l 201 1060 l 201 803 l 338 803 l 338 754 l 201 754 l 201 168 q 215 75 201 100 q 271 50 228 50 q 331 57 299 50 l 331 0 q 256 -8 297 -8 z "},"ŧ":{"ha":339,"x_min":22,"x_max":338,"o":"m 201 754 l 201 549 l 324 549 l 324 503 l 201 503 l 201 168 q 215 75 201 100 q 271 50 228 50 q 331 57 299 50 l 331 0 q 256 -8 297 -8 q 153 34 178 -8 q 128 158 128 76 l 128 503 l 40 503 l 40 549 l 128 549 l 128 754 l 22 754 l 22 803 l 128 803 l 128 1060 l 201 1060 l 201 803 l 338 803 l 338 754 l 201 754 z "},"ť":{"ha":332,"x_min":22,"x_max":346,"o":"m 256 -8 q 153 34 178 -8 q 128 158 128 76 l 128 754 l 22 754 l 22 803 l 128 803 l 128 1060 l 201 1060 l 201 803 l 338 803 l 338 754 l 201 754 l 201 168 q 215 75 201 100 q 271 50 228 50 q 331 57 299 50 l 331 0 q 256 -8 297 -8 m 249 890 q 295 940 283 915 q 307 1007 307 964 l 257 1007 l 257 1153 l 346 1153 l 346 1022 q 329 922 346 957 q 268 858 313 886 l 249 890 z "},"ţ":{"ha":365,"x_min":22,"x_max":386,"o":"m 275 -65 q 386 -160 386 -71 q 351 -233 386 -208 q 250 -258 317 -258 q 204 -256 235 -258 l 204 -215 q 235 -218 226 -218 q 306 -204 283 -218 q 329 -160 329 -190 q 305 -113 329 -131 q 235 -92 281 -96 l 235 -7 q 149 40 171 -1 q 128 158 128 82 l 128 754 l 22 754 l 22 803 l 128 803 l 128 1060 l 201 1060 l 201 803 l 338 803 l 338 754 l 201 754 l 201 168 q 215 75 201 100 q 271 50 228 50 q 331 57 299 50 l 331 0 q 275 -8 307 -6 l 275 -65 z "},"ț":{"ha":365,"x_min":22,"x_max":338,"o":"m 256 -8 q 153 34 178 -8 q 128 158 128 76 l 128 754 l 22 754 l 22 803 l 128 803 l 128 1060 l 201 1060 l 201 803 l 338 803 l 338 754 l 201 754 l 201 168 q 215 75 201 100 q 271 50 228 50 q 331 57 299 50 l 331 0 q 256 -8 297 -8 m 206 -304 q 250 -251 238 -283 q 263 -187 263 -218 l 214 -187 l 214 -83 l 304 -83 l 304 -169 q 287 -274 304 -236 q 224 -333 269 -311 l 206 -304 z "},"ṫ":{"ha":365,"x_min":22,"x_max":338,"o":"m 256 -8 q 153 34 178 -8 q 128 158 128 76 l 128 754 l 22 754 l 22 803 l 128 803 l 128 1060 l 201 1060 l 201 803 l 338 803 l 338 754 l 201 754 l 201 168 q 215 75 201 100 q 271 50 228 50 q 331 57 299 50 l 331 0 q 256 -8 297 -8 m 124 1340 l 207 1340 l 207 1196 l 124 1196 l 124 1340 z "},"u":{"ha":549,"x_min":72,"x_max":468,"o":"m 199 -12 q 106 30 140 -12 q 72 163 72 72 l 72 803 l 146 803 l 146 171 q 167 73 146 101 q 231 44 189 44 q 315 71 272 44 q 396 142 358 97 l 396 803 l 468 803 l 468 0 l 396 0 l 396 94 q 306 16 357 44 q 199 -12 254 -12 z "},"ú":{"ha":549,"x_min":72,"x_max":468,"o":"m 199 -12 q 106 30 140 -12 q 72 163 72 72 l 72 803 l 146 803 l 146 171 q 167 73 146 101 q 231 44 189 44 q 315 71 272 44 q 396 142 358 97 l 396 803 l 468 803 l 468 0 l 396 0 l 396 94 q 306 16 357 44 q 199 -12 254 -12 m 346 1139 l 421 1139 l 296 869 l 257 869 l 346 1139 z "},"ŭ":{"ha":549,"x_min":72,"x_max":468,"o":"m 199 -12 q 106 30 140 -12 q 72 163 72 72 l 72 803 l 146 803 l 146 171 q 167 73 146 101 q 231 44 189 44 q 315 71 272 44 q 396 142 358 97 l 396 803 l 468 803 l 468 0 l 396 0 l 396 94 q 306 16 357 44 q 199 -12 254 -12 m 274 888 q 160 926 201 888 q 117 1042 119 964 l 168 1042 q 274 935 169 935 q 382 1042 375 935 l 433 1042 q 388 926 431 965 q 274 888 346 888 z "},"û":{"ha":549,"x_min":72,"x_max":468,"o":"m 199 -12 q 106 30 140 -12 q 72 163 72 72 l 72 803 l 146 803 l 146 171 q 167 73 146 101 q 231 44 189 44 q 315 71 272 44 q 396 142 358 97 l 396 803 l 468 803 l 468 0 l 396 0 l 396 94 q 306 16 357 44 q 199 -12 254 -12 m 229 1125 l 321 1125 l 439 875 l 386 875 l 275 1088 l 164 875 l 110 875 l 229 1125 z "},"ȕ":{"ha":549,"x_min":60,"x_max":468,"o":"m 199 -12 q 106 30 140 -12 q 72 163 72 72 l 72 803 l 146 803 l 146 171 q 167 73 146 101 q 231 44 189 44 q 315 71 272 44 q 396 142 358 97 l 396 803 l 468 803 l 468 0 l 396 0 l 396 94 q 306 16 357 44 q 199 -12 254 -12 m 60 1125 l 142 1125 l 219 921 l 179 921 l 60 1125 m 222 1125 l 294 1125 l 353 921 l 315 921 l 222 1125 z "},"ü":{"ha":549,"x_min":72,"x_max":468,"o":"m 199 -12 q 106 30 140 -12 q 72 163 72 72 l 72 803 l 146 803 l 146 171 q 167 73 146 101 q 231 44 189 44 q 315 71 272 44 q 396 142 358 97 l 396 803 l 468 803 l 468 0 l 396 0 l 396 94 q 306 16 357 44 q 199 -12 254 -12 m 126 1125 l 203 1125 l 203 1019 l 126 1019 l 126 1125 m 349 1125 l 426 1125 l 426 1019 l 349 1019 l 349 1125 z "},"ụ":{"ha":549,"x_min":72,"x_max":468,"o":"m 199 -12 q 106 30 140 -12 q 72 163 72 72 l 72 803 l 146 803 l 146 171 q 167 73 146 101 q 231 44 189 44 q 315 71 272 44 q 396 142 358 97 l 396 803 l 468 803 l 468 0 l 396 0 l 396 94 q 306 16 357 44 q 199 -12 254 -12 m 233 -83 l 317 -83 l 317 -187 l 233 -187 l 233 -83 z "},"ù":{"ha":549,"x_min":72,"x_max":468,"o":"m 199 -12 q 106 30 140 -12 q 72 163 72 72 l 72 803 l 146 803 l 146 171 q 167 73 146 101 q 231 44 189 44 q 315 71 272 44 q 396 142 358 97 l 396 803 l 468 803 l 468 0 l 396 0 l 396 94 q 306 16 357 44 q 199 -12 254 -12 m 142 1139 l 217 1139 l 292 869 l 254 869 l 142 1139 z "},"ủ":{"ha":549,"x_min":72,"x_max":468,"o":"m 199 -12 q 106 30 140 -12 q 72 163 72 72 l 72 803 l 146 803 l 146 171 q 167 73 146 101 q 231 44 189 44 q 315 71 272 44 q 396 142 358 97 l 396 803 l 468 803 l 468 0 l 396 0 l 396 94 q 306 16 357 44 q 199 -12 254 -12 m 243 949 q 294 985 278 968 q 310 1024 310 1001 q 294 1060 310 1049 q 246 1071 279 1071 q 185 1064 222 1071 l 185 1103 q 258 1111 222 1111 q 367 1028 367 1111 q 342 965 367 990 q 274 917 318 939 l 243 949 z "},"ư":{"ha":549,"x_min":72,"x_max":547,"o":"m 547 890 q 468 763 547 786 l 468 0 l 396 0 l 396 94 q 306 16 357 44 q 199 -12 254 -12 q 106 30 140 -12 q 72 163 72 72 l 72 803 l 146 803 l 146 171 q 167 73 146 101 q 231 44 189 44 q 315 71 272 44 q 396 142 358 97 l 396 803 l 415 803 q 473 824 456 803 q 490 890 490 844 l 547 890 z "},"ứ":{"ha":549,"x_min":72,"x_max":547,"o":"m 547 890 q 468 763 547 786 l 468 0 l 396 0 l 396 94 q 306 16 357 44 q 199 -12 254 -12 q 106 30 140 -12 q 72 163 72 72 l 72 803 l 146 803 l 146 171 q 167 73 146 101 q 231 44 189 44 q 315 71 272 44 q 396 142 358 97 l 396 803 l 415 803 q 473 824 456 803 q 490 890 490 844 l 547 890 m 338 1139 l 413 1139 l 288 869 l 249 869 l 338 1139 z "},"ự":{"ha":549,"x_min":72,"x_max":547,"o":"m 547 890 q 468 763 547 786 l 468 0 l 396 0 l 396 94 q 306 16 357 44 q 199 -12 254 -12 q 106 30 140 -12 q 72 163 72 72 l 72 803 l 146 803 l 146 171 q 167 73 146 101 q 231 44 189 44 q 315 71 272 44 q 396 142 358 97 l 396 803 l 415 803 q 473 824 456 803 q 490 890 490 844 l 547 890 m 221 -83 l 304 -83 l 304 -187 l 221 -187 l 221 -83 z "},"ừ":{"ha":549,"x_min":72,"x_max":547,"o":"m 547 890 q 468 763 547 786 l 468 0 l 396 0 l 396 94 q 306 16 357 44 q 199 -12 254 -12 q 106 30 140 -12 q 72 163 72 72 l 72 803 l 146 803 l 146 171 q 167 73 146 101 q 231 44 189 44 q 315 71 272 44 q 396 142 358 97 l 396 803 l 415 803 q 473 824 456 803 q 490 890 490 844 l 547 890 m 133 1139 l 208 1139 l 283 869 l 246 869 l 133 1139 z "},"ử":{"ha":549,"x_min":72,"x_max":547,"o":"m 547 890 q 468 763 547 786 l 468 0 l 396 0 l 396 94 q 306 16 357 44 q 199 -12 254 -12 q 106 30 140 -12 q 72 163 72 72 l 72 803 l 146 803 l 146 171 q 167 73 146 101 q 231 44 189 44 q 315 71 272 44 q 396 142 358 97 l 396 803 l 415 803 q 473 824 456 803 q 490 890 490 844 l 547 890 m 235 949 q 285 985 269 968 q 301 1024 301 1001 q 286 1060 301 1049 q 238 1071 271 1071 q 176 1064 214 1071 l 176 1103 q 250 1111 214 1111 q 358 1028 358 1111 q 334 965 358 990 q 265 917 310 939 l 235 949 z "},"ữ":{"ha":549,"x_min":72,"x_max":547,"o":"m 547 890 q 468 763 547 786 l 468 0 l 396 0 l 396 94 q 306 16 357 44 q 199 -12 254 -12 q 106 30 140 -12 q 72 163 72 72 l 72 803 l 146 803 l 146 171 q 167 73 146 101 q 231 44 189 44 q 315 71 272 44 q 396 142 358 97 l 396 803 l 415 803 q 473 824 456 803 q 490 890 490 844 l 547 890 m 339 954 q 299 963 317 954 q 256 990 281 972 q 222 1013 235 1006 q 196 1019 210 1019 q 165 1006 176 1019 q 153 965 153 992 l 103 965 q 122 1035 103 999 q 189 1071 140 1071 q 232 1061 213 1071 q 279 1033 251 1051 q 338 1006 314 1006 q 371 1020 360 1006 q 383 1068 382 1035 l 431 1068 q 412 991 431 1028 q 339 954 393 954 z "},"ű":{"ha":549,"x_min":72,"x_max":486,"o":"m 199 -12 q 106 30 140 -12 q 72 163 72 72 l 72 803 l 146 803 l 146 171 q 167 73 146 101 q 231 44 189 44 q 315 71 272 44 q 396 142 358 97 l 396 803 l 468 803 l 468 0 l 396 0 l 396 94 q 306 16 357 44 q 199 -12 254 -12 m 256 1139 l 329 1139 l 243 926 l 203 926 l 256 1139 m 400 1139 l 486 1139 l 368 926 l 325 926 l 400 1139 z "},"ȗ":{"ha":549,"x_min":72,"x_max":468,"o":"m 199 -12 q 106 30 140 -12 q 72 163 72 72 l 72 803 l 146 803 l 146 171 q 167 73 146 101 q 231 44 189 44 q 315 71 272 44 q 396 142 358 97 l 396 803 l 468 803 l 468 0 l 396 0 l 396 94 q 306 16 357 44 q 199 -12 254 -12 m 117 971 q 162 1086 119 1047 q 275 1125 204 1125 q 389 1086 347 1125 q 433 971 431 1047 l 382 971 q 275 1076 378 1076 q 168 971 174 1076 l 117 971 z "},"ū":{"ha":549,"x_min":72,"x_max":468,"o":"m 199 -12 q 106 30 140 -12 q 72 163 72 72 l 72 803 l 146 803 l 146 171 q 167 73 146 101 q 231 44 189 44 q 315 71 272 44 q 396 142 358 97 l 396 803 l 468 803 l 468 0 l 396 0 l 396 94 q 306 16 357 44 q 199 -12 254 -12 m 156 1028 l 394 1028 l 394 972 l 156 972 l 156 1028 z "},"ų":{"ha":549,"x_min":72,"x_max":485,"o":"m 460 -236 q 485 -233 471 -236 l 476 -276 q 440 -279 460 -279 q 339 -250 376 -279 q 301 -168 301 -221 q 331 -78 301 -121 q 411 0 361 -35 l 396 0 l 396 94 q 306 16 357 44 q 199 -12 254 -12 q 106 30 140 -12 q 72 163 72 72 l 72 803 l 146 803 l 146 171 q 167 73 146 101 q 231 44 189 44 q 315 71 272 44 q 396 142 358 97 l 396 803 l 468 803 l 468 0 l 453 0 q 383 -85 407 -46 q 360 -162 360 -124 q 388 -217 360 -199 q 460 -236 415 -236 z "},"ů":{"ha":549,"x_min":72,"x_max":468,"o":"m 199 -12 q 106 30 140 -12 q 72 163 72 72 l 72 803 l 146 803 l 146 171 q 167 73 146 101 q 231 44 189 44 q 315 71 272 44 q 396 142 358 97 l 396 803 l 468 803 l 468 0 l 396 0 l 396 94 q 306 16 357 44 q 199 -12 254 -12 m 275 901 q 191 931 226 901 q 156 1019 156 961 q 191 1108 156 1078 q 275 1138 226 1138 q 359 1108 324 1138 q 394 1019 394 1078 q 359 931 394 961 q 275 901 324 901 m 275 944 q 327 963 306 944 q 349 1019 349 982 q 328 1077 349 1058 q 275 1096 307 1096 q 222 1077 243 1096 q 201 1019 201 1058 q 223 963 201 982 q 275 944 244 944 z "},"ũ":{"ha":549,"x_min":72,"x_max":468,"o":"m 199 -12 q 106 30 140 -12 q 72 163 72 72 l 72 803 l 146 803 l 146 171 q 167 73 146 101 q 231 44 189 44 q 315 71 272 44 q 396 142 358 97 l 396 803 l 468 803 l 468 0 l 396 0 l 396 94 q 306 16 357 44 q 199 -12 254 -12 m 347 954 q 307 963 325 954 q 264 990 289 972 q 231 1013 243 1006 q 204 1019 218 1019 q 173 1006 185 1019 q 161 965 161 992 l 111 965 q 130 1035 111 999 q 197 1071 149 1071 q 240 1061 221 1071 q 288 1033 260 1051 q 346 1006 322 1006 q 379 1020 368 1006 q 392 1068 390 1035 l 439 1068 q 420 991 439 1028 q 347 954 401 954 z "},"v":{"ha":496,"x_min":26,"x_max":469,"o":"m 26 803 l 101 803 l 251 93 l 399 803 l 469 803 l 293 0 l 211 0 l 26 803 z "},"w":{"ha":786,"x_min":46,"x_max":742,"o":"m 46 803 l 111 803 l 222 85 l 360 803 l 432 803 l 572 88 l 676 803 l 742 803 l 613 0 l 536 0 l 397 704 l 261 0 l 178 0 l 46 803 z "},"ẃ":{"ha":786,"x_min":46,"x_max":742,"o":"m 46 803 l 111 803 l 222 85 l 360 803 l 432 803 l 572 88 l 676 803 l 742 803 l 613 0 l 536 0 l 397 704 l 261 0 l 178 0 l 46 803 m 464 1139 l 539 1139 l 414 869 l 375 869 l 464 1139 z "},"ŵ":{"ha":786,"x_min":46,"x_max":742,"o":"m 46 803 l 111 803 l 222 85 l 360 803 l 432 803 l 572 88 l 676 803 l 742 803 l 613 0 l 536 0 l 397 704 l 261 0 l 178 0 l 46 803 m 347 1125 l 439 1125 l 557 875 l 504 875 l 393 1088 l 282 875 l 228 875 l 347 1125 z "},"ẅ":{"ha":786,"x_min":46,"x_max":742,"o":"m 46 803 l 111 803 l 222 85 l 360 803 l 432 803 l 572 88 l 676 803 l 742 803 l 613 0 l 536 0 l 397 704 l 261 0 l 178 0 l 46 803 m 244 1125 l 321 1125 l 321 1019 l 244 1019 l 244 1125 m 467 1125 l 544 1125 l 544 1019 l 467 1019 l 467 1125 z "},"ẁ":{"ha":786,"x_min":46,"x_max":742,"o":"m 46 803 l 111 803 l 222 85 l 360 803 l 432 803 l 572 88 l 676 803 l 742 803 l 613 0 l 536 0 l 397 704 l 261 0 l 178 0 l 46 803 m 260 1139 l 335 1139 l 410 869 l 372 869 l 260 1139 z "},"x":{"ha":521,"x_min":28,"x_max":493,"o":"m 224 418 l 40 803 l 115 803 l 265 485 l 414 803 l 490 803 l 300 411 l 493 0 l 424 0 l 260 342 l 100 0 l 28 0 l 224 418 z "},"y":{"ha":521,"x_min":33,"x_max":490,"o":"m 51 -140 q 166 -128 128 -140 q 216 -92 204 -115 q 225 -29 228 -69 q 219 7 224 -17 q 211 42 214 31 q 201 82 208 51 l 33 803 l 106 803 l 264 69 l 417 803 l 490 803 l 294 -65 q 228 -168 278 -136 q 82 -200 179 -200 l 51 -200 l 51 -140 z "},"ý":{"ha":521,"x_min":33,"x_max":490,"o":"m 51 -140 q 166 -128 128 -140 q 216 -92 204 -115 q 225 -29 228 -69 q 219 7 224 -17 q 211 42 214 31 q 201 82 208 51 l 33 803 l 106 803 l 264 69 l 417 803 l 490 803 l 294 -65 q 228 -168 278 -136 q 82 -200 179 -200 l 51 -200 l 51 -140 m 332 1139 l 407 1139 l 282 869 l 243 869 l 332 1139 z "},"ŷ":{"ha":521,"x_min":33,"x_max":490,"o":"m 51 -140 q 166 -128 128 -140 q 216 -92 204 -115 q 225 -29 228 -69 q 219 7 224 -17 q 211 42 214 31 q 201 82 208 51 l 33 803 l 106 803 l 264 69 l 417 803 l 490 803 l 294 -65 q 228 -168 278 -136 q 82 -200 179 -200 l 51 -200 l 51 -140 m 215 1125 l 307 1125 l 425 875 l 372 875 l 261 1088 l 150 875 l 96 875 l 215 1125 z "},"ÿ":{"ha":521,"x_min":33,"x_max":490,"o":"m 51 -140 q 166 -128 128 -140 q 216 -92 204 -115 q 225 -29 228 -69 q 219 7 224 -17 q 211 42 214 31 q 201 82 208 51 l 33 803 l 106 803 l 264 69 l 417 803 l 490 803 l 294 -65 q 228 -168 278 -136 q 82 -200 179 -200 l 51 -200 l 51 -140 m 113 1125 l 189 1125 l 189 1019 l 113 1019 l 113 1125 m 335 1125 l 413 1125 l 413 1019 l 335 1019 l 335 1125 z "},"ỵ":{"ha":521,"x_min":33,"x_max":490,"o":"m 51 -140 q 166 -128 128 -140 q 216 -92 204 -115 q 225 -29 228 -69 q 219 7 224 -17 q 211 42 214 31 q 201 82 208 51 l 33 803 l 106 803 l 264 69 l 417 803 l 490 803 l 294 -65 q 228 -168 278 -136 q 82 -200 179 -200 l 51 -200 l 51 -140 m 333 -83 l 417 -83 l 417 -187 l 333 -187 l 333 -83 z "},"ỳ":{"ha":521,"x_min":33,"x_max":490,"o":"m 51 -140 q 166 -128 128 -140 q 216 -92 204 -115 q 225 -29 228 -69 q 219 7 224 -17 q 211 42 214 31 q 201 82 208 51 l 33 803 l 106 803 l 264 69 l 417 803 l 490 803 l 294 -65 q 228 -168 278 -136 q 82 -200 179 -200 l 51 -200 l 51 -140 m 128 1139 l 203 1139 l 278 869 l 240 869 l 128 1139 z "},"ỷ":{"ha":521,"x_min":33,"x_max":490,"o":"m 51 -140 q 166 -128 128 -140 q 216 -92 204 -115 q 225 -29 228 -69 q 219 7 224 -17 q 211 42 214 31 q 201 82 208 51 l 33 803 l 106 803 l 264 69 l 417 803 l 490 803 l 294 -65 q 228 -168 278 -136 q 82 -200 179 -200 l 51 -200 l 51 -140 m 229 949 q 280 985 264 968 q 296 1024 296 1001 q 281 1060 296 1049 q 232 1071 265 1071 q 171 1064 208 1071 l 171 1103 q 244 1111 208 1111 q 353 1028 353 1111 q 328 965 353 990 q 260 917 304 939 l 229 949 z "},"ȳ":{"ha":521,"x_min":33,"x_max":490,"o":"m 51 -140 q 166 -128 128 -140 q 216 -92 204 -115 q 225 -29 228 -69 q 219 7 224 -17 q 211 42 214 31 q 201 82 208 51 l 33 803 l 106 803 l 264 69 l 417 803 l 490 803 l 294 -65 q 228 -168 278 -136 q 82 -200 179 -200 l 51 -200 l 51 -140 m 142 1028 l 381 1028 l 381 972 l 142 972 l 142 1028 z "},"ỹ":{"ha":521,"x_min":33,"x_max":490,"o":"m 51 -140 q 166 -128 128 -140 q 216 -92 204 -115 q 225 -29 228 -69 q 219 7 224 -17 q 211 42 214 31 q 201 82 208 51 l 33 803 l 106 803 l 264 69 l 417 803 l 490 803 l 294 -65 q 228 -168 278 -136 q 82 -200 179 -200 l 51 -200 l 51 -140 m 333 954 q 293 963 311 954 q 250 990 275 972 q 217 1013 229 1006 q 190 1019 204 1019 q 159 1006 171 1019 q 147 965 147 992 l 97 965 q 116 1035 97 999 q 183 1071 135 1071 q 226 1061 207 1071 q 274 1033 246 1051 q 332 1006 308 1006 q 365 1020 354 1006 q 378 1068 376 1035 l 425 1068 q 406 991 425 1028 q 333 954 388 954 z "},"z":{"ha":451,"x_min":44,"x_max":410,"o":"m 44 54 l 335 746 l 75 746 l 75 803 l 410 803 l 410 754 l 122 57 l 406 57 l 406 0 l 44 0 l 44 54 z "},"ź":{"ha":451,"x_min":44,"x_max":410,"o":"m 44 54 l 335 746 l 75 746 l 75 803 l 410 803 l 410 754 l 122 57 l 406 57 l 406 0 l 44 0 l 44 54 m 297 1139 l 372 1139 l 247 869 l 208 869 l 297 1139 z "},"ž":{"ha":451,"x_min":44,"x_max":410,"o":"m 44 54 l 335 746 l 75 746 l 75 803 l 410 803 l 410 754 l 122 57 l 406 57 l 406 0 l 44 0 l 44 54 m 81 1125 l 143 1125 l 226 956 l 310 1125 l 372 1125 l 254 899 l 199 899 l 81 1125 z "},"ż":{"ha":451,"x_min":44,"x_max":410,"o":"m 44 54 l 335 746 l 75 746 l 75 803 l 410 803 l 410 754 l 122 57 l 406 57 l 406 0 l 44 0 l 44 54 m 185 1083 l 268 1083 l 268 939 l 185 939 l 185 1083 z "},"ﬁ":{"ha":596,"x_min":24,"x_max":497,"o":"m 132 751 l 24 751 l 24 803 l 132 803 l 132 911 q 141 1009 132 971 q 180 1070 150 1047 q 267 1093 210 1093 q 336 1083 301 1093 l 336 1028 q 278 1035 306 1035 q 219 1010 232 1035 q 206 913 206 985 l 206 803 l 497 803 l 497 0 l 424 0 l 424 751 l 206 751 l 206 0 l 132 0 l 132 751 m 428 1036 l 497 1036 l 497 908 l 428 908 l 428 1036 z "},"ﬂ":{"ha":617,"x_min":24,"x_max":525,"o":"m 132 751 l 24 751 l 24 803 l 132 803 l 132 911 q 145 1009 132 968 q 204 1078 158 1050 q 342 1106 250 1106 q 525 1083 415 1106 l 525 0 l 451 0 l 451 1042 q 347 1049 382 1049 q 251 1031 282 1049 q 213 984 221 1013 q 206 907 206 956 l 206 803 l 340 803 l 340 751 l 206 751 l 206 0 l 132 0 l 132 751 z "},"ª":{"ha":544,"x_min":99,"x_max":450,"o":"m 240 488 q 138 525 176 488 q 99 625 99 563 q 121 714 99 679 q 202 781 143 749 q 385 864 261 814 l 385 917 q 364 1053 385 1015 q 290 1090 343 1090 q 179 964 179 1090 l 118 965 q 290 1139 122 1139 q 415 1086 381 1139 q 450 910 450 1033 l 450 497 l 394 497 l 389 578 q 329 513 369 538 q 240 488 289 488 m 254 539 q 331 564 297 539 q 385 629 364 589 l 385 826 q 242 757 283 781 q 181 706 200 733 q 163 632 163 678 q 190 560 163 582 q 254 539 217 539 z "},"º":{"ha":544,"x_min":89,"x_max":456,"o":"m 272 488 q 128 539 168 488 q 89 690 89 590 l 89 936 q 131 1087 89 1035 q 272 1139 172 1139 q 414 1086 372 1139 q 456 936 456 1033 l 456 690 q 415 540 456 593 q 272 488 375 488 m 271 533 q 369 574 342 533 q 396 692 396 615 l 396 935 q 369 1052 396 1011 q 271 1093 342 1093 q 174 1051 203 1093 q 146 935 146 1010 l 146 692 q 174 575 146 617 q 271 533 201 533 z "},"А":{"ha":636,"x_min":38,"x_max":599,"o":"m 274 1125 l 361 1125 l 599 0 l 522 0 l 464 311 l 172 311 l 113 0 l 38 0 l 274 1125 m 454 367 l 318 1033 l 183 367 l 454 367 z "},"Б":{"ha":653,"x_min":103,"x_max":604,"o":"m 103 1125 l 536 1125 l 536 1067 l 179 1067 l 179 650 l 303 650 q 531 567 457 650 q 604 318 604 485 q 533 85 604 169 q 306 0 461 0 l 103 0 l 103 1125 m 307 61 q 476 125 426 61 q 526 319 526 189 q 476 521 526 453 q 307 589 426 589 l 179 589 l 179 61 l 307 61 z "},"В":{"ha":678,"x_min":104,"x_max":621,"o":"m 104 1125 l 336 1125 q 538 1050 481 1125 q 596 844 596 975 q 567 692 596 760 q 464 607 538 625 q 586 501 551 581 q 621 328 621 422 q 569 88 621 176 q 369 0 517 0 l 104 0 l 104 1125 m 369 632 q 490 689 456 632 q 525 844 525 746 q 483 1008 525 951 q 318 1064 440 1064 l 179 1064 l 179 632 l 369 632 m 360 60 q 474 88 433 60 q 531 174 514 117 q 547 326 547 231 q 506 505 547 438 q 371 572 465 572 l 179 572 l 179 60 l 360 60 z "},"Г":{"ha":513,"x_min":104,"x_max":486,"o":"m 104 1125 l 486 1125 l 486 1064 l 179 1064 l 179 0 l 104 0 l 104 1125 z "},"Ѓ":{"ha":513,"x_min":104,"x_max":486,"o":"m 104 1125 l 486 1125 l 486 1064 l 179 1064 l 179 0 l 104 0 l 104 1125 z "},"Ґ":{"ha":518,"x_min":103,"x_max":493,"o":"m 103 1125 l 442 1125 l 442 1246 l 493 1246 l 493 1067 l 179 1067 l 179 0 l 103 0 l 103 1125 z "},"Д":{"ha":783,"x_min":13,"x_max":743,"o":"m 13 58 l 53 58 q 138 139 110 96 q 190 317 167 182 q 236 742 214 451 l 265 1125 l 661 1125 l 661 58 l 743 58 l 743 -186 l 682 -186 l 674 0 l 82 0 l 74 -186 l 13 -186 l 13 58 m 585 58 l 585 1067 l 335 1067 l 308 728 q 262 308 286 443 q 212 133 238 174 q 138 58 186 92 l 585 58 z "},"Е":{"ha":531,"x_min":103,"x_max":496,"o":"m 103 1125 l 492 1125 l 492 1064 l 179 1064 l 179 613 l 436 613 l 436 554 l 179 554 l 179 60 l 496 60 l 496 0 l 103 0 l 103 1125 z "},"Ѐ":{"ha":531,"x_min":103,"x_max":496,"o":"m 103 1125 l 492 1125 l 492 1064 l 179 1064 l 179 613 l 436 613 l 436 554 l 179 554 l 179 60 l 496 60 l 496 0 l 103 0 l 103 1125 m 171 1461 l 246 1461 l 321 1192 l 283 1192 l 171 1461 z "},"Ё":{"ha":531,"x_min":103,"x_max":496,"o":"m 103 1125 l 492 1125 l 492 1064 l 179 1064 l 179 613 l 436 613 l 436 554 l 179 554 l 179 60 l 496 60 l 496 0 l 103 0 l 103 1125 z "},"Ж":{"ha":853,"x_min":29,"x_max":824,"o":"m 318 588 l 56 1125 l 129 1125 l 382 592 l 392 592 l 392 1125 l 461 1125 l 461 592 l 471 592 l 724 1125 l 797 1125 l 535 588 l 824 0 l 749 0 l 475 572 l 461 572 l 461 0 l 392 0 l 392 572 l 376 572 l 104 0 l 29 0 l 318 588 z "},"З":{"ha":639,"x_min":86,"x_max":590,"o":"m 331 -15 q 94 250 94 -15 l 94 271 l 164 271 l 164 244 q 205 94 165 144 q 331 44 244 44 q 466 101 417 44 q 515 299 515 158 q 469 485 515 417 q 319 557 422 554 l 249 557 l 249 613 l 318 613 q 470 674 425 614 q 515 861 515 733 q 474 1020 515 963 q 342 1078 432 1078 q 203 1031 249 1078 q 156 878 157 985 l 156 857 l 86 857 l 86 875 q 145 1069 86 1000 q 339 1138 204 1138 q 526 1060 463 1138 q 590 860 590 983 q 545 669 590 739 q 428 585 500 599 q 542 501 493 569 q 590 300 590 432 q 528 69 590 153 q 331 -15 465 -15 z "},"И":{"ha":722,"x_min":103,"x_max":618,"o":"m 103 1125 l 171 1125 l 171 167 l 556 1125 l 618 1125 l 618 0 l 550 0 l 550 958 l 167 0 l 103 0 l 103 1125 z "},"Й":{"ha":722,"x_min":103,"x_max":618,"o":"m 103 1125 l 171 1125 l 171 167 l 556 1125 l 618 1125 l 618 0 l 550 0 l 550 958 l 167 0 l 103 0 l 103 1125 z "},"Ѝ":{"ha":722,"x_min":103,"x_max":618,"o":"m 103 1125 l 171 1125 l 171 167 l 556 1125 l 618 1125 l 618 0 l 550 0 l 550 958 l 167 0 l 103 0 l 103 1125 m 231 1461 l 306 1461 l 381 1192 l 343 1192 l 231 1461 z "},"К":{"ha":651,"x_min":103,"x_max":639,"o":"m 103 1125 l 179 1125 l 179 597 l 272 597 l 519 1125 l 597 1125 l 339 579 l 639 0 l 563 0 l 272 553 l 179 553 l 179 0 l 103 0 l 103 1125 z "},"Ќ":{"ha":651,"x_min":103,"x_max":639,"o":"m 103 1125 l 179 1125 l 179 597 l 272 597 l 519 1125 l 597 1125 l 339 579 l 639 0 l 563 0 l 272 553 l 179 553 l 179 0 l 103 0 l 103 1125 z "},"Л":{"ha":774,"x_min":35,"x_max":671,"o":"m 35 57 q 147 92 117 61 q 193 240 176 124 q 238 706 210 357 l 268 1125 l 671 1125 l 671 0 l 594 0 l 594 1067 l 339 1067 l 311 706 l 307 658 q 260 204 279 324 q 194 42 240 85 q 35 -3 149 0 l 35 57 z "},"М":{"ha":878,"x_min":90,"x_max":788,"o":"m 124 1125 l 194 1125 l 436 124 l 681 1125 l 756 1125 l 788 0 l 724 0 l 696 926 l 465 0 l 410 0 l 182 924 l 156 0 l 90 0 l 124 1125 z "},"Н":{"ha":753,"x_min":103,"x_max":649,"o":"m 103 1125 l 179 1125 l 179 618 l 574 618 l 574 1125 l 649 1125 l 649 0 l 574 0 l 574 560 l 179 560 l 179 0 l 103 0 l 103 1125 z "},"О":{"ha":726,"x_min":81,"x_max":646,"o":"m 363 -15 q 144 73 208 -15 q 81 319 81 161 l 81 811 q 146 1051 81 965 q 363 1138 211 1138 q 580 1051 514 1138 q 646 811 646 965 l 646 318 q 581 73 646 161 q 363 -15 517 -15 m 363 47 q 523 113 476 47 q 569 303 569 179 l 569 822 q 524 1010 569 946 q 363 1075 478 1075 q 203 1010 249 1075 q 157 822 157 946 l 157 303 q 203 113 157 178 q 363 47 249 47 z "},"П":{"ha":757,"x_min":104,"x_max":653,"o":"m 104 1125 l 653 1125 l 653 0 l 578 0 l 578 1067 l 179 1067 l 179 0 l 104 0 l 104 1125 z "},"Р":{"ha":663,"x_min":104,"x_max":629,"o":"m 104 1125 l 368 1125 q 570 1049 511 1125 q 629 835 629 972 q 569 622 629 706 q 369 538 508 538 l 179 538 l 179 0 l 104 0 l 104 1125 m 353 596 q 504 651 457 596 q 551 835 551 706 q 532 975 551 925 q 470 1046 513 1025 q 354 1067 428 1067 l 179 1067 l 179 596 l 353 596 z "},"С":{"ha":675,"x_min":81,"x_max":611,"o":"m 354 -15 q 140 74 200 -15 q 81 324 81 164 l 81 801 q 142 1049 81 961 q 354 1138 203 1138 q 553 1056 494 1138 q 611 821 611 975 l 611 764 l 539 764 l 539 821 q 499 1013 539 950 q 354 1075 458 1075 q 199 1008 240 1075 q 157 810 157 942 l 157 313 q 200 113 157 179 q 354 47 243 47 q 499 112 460 47 q 539 303 539 176 l 539 371 l 611 371 l 611 315 q 554 71 611 157 q 354 -15 497 -15 z "},"Т":{"ha":519,"x_min":6,"x_max":553,"o":"m 243 1064 l 6 1064 l 6 1125 l 553 1125 l 553 1064 l 319 1064 l 319 0 l 243 0 l 243 1064 z "},"У":{"ha":628,"x_min":46,"x_max":599,"o":"m 86 -69 q 218 -54 178 -71 q 272 5 258 -37 q 297 151 286 47 l 46 1125 l 121 1125 l 249 606 l 335 240 l 410 608 l 522 1125 l 599 1125 l 375 144 q 326 -36 347 14 q 253 -108 306 -86 q 85 -129 201 -131 l 86 -69 z "},"Ў":{"ha":628,"x_min":46,"x_max":599,"o":"m 86 -69 q 218 -54 178 -71 q 272 5 258 -37 q 297 151 286 47 l 46 1125 l 121 1125 l 249 606 l 335 240 l 410 608 l 522 1125 l 599 1125 l 375 144 q 326 -36 347 14 q 253 -108 306 -86 q 85 -129 201 -131 l 86 -69 z "},"Ф":{"ha":824,"x_min":81,"x_max":744,"o":"m 372 125 l 306 122 q 136 190 192 122 q 81 404 81 258 l 81 732 q 318 1028 81 1028 l 372 1025 l 372 1226 l 449 1226 l 449 1026 l 513 1029 q 686 954 628 1029 q 744 732 744 879 l 744 404 q 688 191 744 260 q 518 122 632 122 q 449 125 496 122 l 449 -78 l 372 -78 l 372 125 m 317 174 q 372 176 354 174 l 372 974 q 322 976 356 976 q 191 916 229 976 q 153 732 153 856 l 153 404 q 189 228 153 282 q 317 174 225 174 m 507 174 q 635 228 597 174 q 672 404 672 283 l 672 732 q 633 916 672 856 q 501 976 594 976 l 449 974 l 449 176 q 507 174 467 174 z "},"Х":{"ha":628,"x_min":21,"x_max":608,"o":"m 268 583 l 22 1125 l 92 1125 l 313 644 l 528 1125 l 603 1125 l 346 572 l 608 0 l 535 0 l 303 506 l 96 0 l 21 0 l 268 583 z "},"Ч":{"ha":701,"x_min":76,"x_max":597,"o":"m 521 522 q 356 497 433 497 q 76 740 76 497 l 76 1125 l 149 1125 l 149 740 q 206 593 149 633 q 367 553 264 553 q 521 579 451 553 l 521 1125 l 597 1125 l 597 0 l 521 0 l 521 522 z "},"Ц":{"ha":771,"x_min":103,"x_max":733,"o":"m 664 0 l 103 0 l 103 1125 l 179 1125 l 179 58 l 579 58 l 579 1125 l 656 1125 l 656 58 l 733 58 l 733 -186 l 672 -186 l 664 0 z "},"Ш":{"ha":975,"x_min":104,"x_max":871,"o":"m 104 1125 l 179 1125 l 179 58 l 454 58 l 454 1125 l 531 1125 l 531 58 l 794 58 l 794 1125 l 871 1125 l 871 0 l 104 0 l 104 1125 z "},"Щ":{"ha":989,"x_min":103,"x_max":951,"o":"m 881 0 l 103 0 l 103 1125 l 179 1125 l 179 58 l 454 58 l 454 1125 l 529 1125 l 529 58 l 796 58 l 796 1125 l 871 1125 l 871 58 l 951 58 l 951 -186 l 890 -186 l 881 0 z "},"Џ":{"ha":710,"x_min":104,"x_max":607,"o":"m 329 0 l 104 0 l 104 1125 l 179 1125 l 179 58 l 531 58 l 531 1125 l 607 1125 l 607 0 l 403 0 l 396 -186 l 338 -186 l 329 0 z "},"Ь":{"ha":640,"x_min":104,"x_max":607,"o":"m 104 1125 l 179 1125 l 179 650 l 306 650 q 533 567 460 650 q 607 318 607 485 q 535 85 607 169 q 308 0 464 0 l 104 0 l 104 1125 m 311 61 q 481 125 431 61 q 531 319 531 189 q 480 521 531 453 q 310 589 429 589 l 179 589 l 179 61 l 311 61 z "},"Ъ":{"ha":753,"x_min":8,"x_max":718,"o":"m 215 1065 l 8 1065 l 8 1125 l 292 1125 l 292 650 l 417 650 q 644 567 571 650 q 718 318 718 485 q 647 85 718 169 q 419 0 575 0 l 215 0 l 215 1065 m 422 61 q 592 125 542 61 q 642 319 642 189 q 591 521 642 453 q 421 589 540 589 l 292 589 l 292 61 l 422 61 z "},"Ы":{"ha":929,"x_min":103,"x_max":826,"o":"m 103 1125 l 179 1125 l 179 650 l 306 650 q 533 567 460 650 q 607 318 607 485 q 535 85 607 169 q 308 0 464 0 l 103 0 l 103 1125 m 751 1125 l 826 1125 l 826 0 l 751 0 l 751 1125 m 310 61 q 479 125 429 61 q 529 319 529 189 q 478 521 529 453 q 310 589 428 589 l 179 589 l 179 61 l 310 61 z "}}}
